<svg width="90" height="100" viewBox="0 0 90 100" fill="none" xmlns="http://www.w3.org/2000/svg">
<path d="M75 0H15C6.7 0 0 6.65 0 14.85V69.4C0 77.6 6.7 84.25 15 84.25H18.8C22.8 84.25 26.6 85.8 29.4 88.6L37.95 97.05C41.85 100.9 48.2 100.9 52.1 97.05L60.65 88.6C63.45 85.8 67.3 84.25 71.25 84.25H75C83.3 84.25 90 77.6 90 69.4V14.85C90 6.65 83.3 0 75 0ZM45 18.75C51.45 18.75 56.65 23.95 56.65 30.4C56.65 36.85 51.45 42.05 45 42.05C38.55 42.05 33.35 36.8 33.35 30.4C33.35 23.95 38.55 18.75 45 18.75ZM58.4 65.3H31.6C27.55 65.3 25.2 60.8 27.45 57.45C30.85 52.4 37.45 49 45 49C52.55 49 59.15 52.4 62.55 57.45C64.8 60.8 62.4 65.3 58.4 65.3Z" fill="white"/>
</svg>
