<svg width="96" height="96" viewBox="0 0 96 96" fill="none" xmlns="http://www.w3.org/2000/svg">
<path d="M34.75 42.4792C28.0367 42.4792 22.6042 37.0467 22.6042 30.3333C22.6042 23.62 28.0367 18.1875 34.75 18.1875C41.4633 18.1875 46.8958 23.62 46.8958 30.3333C46.8958 37.0467 41.4633 42.4792 34.75 42.4792ZM34.75 24.8125C31.7025 24.8125 29.2292 27.2858 29.2292 30.3333C29.2292 33.3808 31.7025 35.8542 34.75 35.8542C37.7975 35.8542 40.2708 33.3808 40.2708 30.3333C40.2708 27.2858 37.7975 24.8125 34.75 24.8125Z" fill="white"/>
<path d="M61.25 95.4793H34.75C10.7675 95.4793 0.520844 85.2327 0.520844 61.2502V34.7502C0.520844 10.7677 10.7675 0.520996 34.75 0.520996H52.4167C54.2275 0.520996 55.7292 2.02266 55.7292 3.8335C55.7292 5.64433 54.2275 7.146 52.4167 7.146H34.75C14.3892 7.146 7.14584 14.3893 7.14584 34.7502V61.2502C7.14584 81.611 14.3892 88.8543 34.75 88.8543H61.25C81.6108 88.8543 88.8542 81.611 88.8542 61.2502V39.1668C88.8542 37.356 90.3558 35.8543 92.1667 35.8543C93.9775 35.8543 95.4792 37.356 95.4792 39.1668V61.2502C95.4792 85.2327 85.2325 95.4793 61.25 95.4793Z" fill="white"/>
<path d="M74.5 33.6457C72.6892 33.6457 71.1875 32.1441 71.1875 30.3332V3.83323C71.1875 2.50823 71.9825 1.27156 73.2192 0.785727C74.4558 0.299894 75.8692 0.564894 76.8408 1.49239L85.6742 10.3257C86.955 11.6066 86.955 13.7266 85.6742 15.0074C84.3933 16.2882 82.2733 16.2882 80.9925 15.0074L77.8125 11.8274V30.3332C77.8125 32.1441 76.3108 33.6457 74.5 33.6457Z" fill="white"/>
<path d="M65.6667 15.979C64.8275 15.979 63.9883 15.6699 63.3258 15.0074C62.045 13.7265 62.045 11.6065 63.3258 10.3257L72.1592 1.49236C73.44 0.21153 75.56 0.21153 76.8408 1.49236C78.1217 2.7732 78.1217 4.8932 76.8408 6.17403L68.0075 15.0074C67.345 15.6699 66.5058 15.979 65.6667 15.979Z" fill="white"/>
<path d="M6.79247 82.0086C5.73247 82.0086 4.67247 81.4786 4.05414 80.5511C3.03831 79.0495 3.43581 76.9736 4.93747 75.9578L26.7116 61.3386C31.4816 58.1586 38.0625 58.512 42.3908 62.1778L43.8483 63.4586C46.0566 65.3578 49.8108 65.3578 51.975 63.4586L70.3483 47.6911C75.03 43.672 82.4058 43.672 87.1316 47.6911L94.3308 53.8745C95.7 55.067 95.8766 57.1428 94.6841 58.5561C93.4916 59.9253 91.3716 60.102 90.0025 58.9095L82.8033 52.7261C80.595 50.827 76.885 50.827 74.6766 52.7261L56.3033 68.4936C51.6216 72.5128 44.2458 72.5128 39.52 68.4936L38.0625 67.2128C36.0308 65.4903 32.6741 65.3136 30.4216 66.8595L8.69164 81.4786C8.0733 81.832 7.41081 82.0086 6.79247 82.0086Z" fill="white"/>
</svg>
