<svg width="94" height="108" viewBox="0 0 94 108" fill="none" xmlns="http://www.w3.org/2000/svg">
<path d="M47 107.75C41.35 107.75 35.95 106.1 31.9 103.05L10.4 86.9997C4.69997 82.7497 0.249969 73.8997 0.249969 66.7997V29.5997C0.249969 21.8997 5.89997 13.6997 13.15 10.9997L38.1 1.64971C43.05 -0.200293 50.85 -0.200293 55.8 1.64971L80.8 10.9997C88.05 13.6997 93.7 21.8997 93.7 29.5997V46.7497C93.7 48.7997 92 50.4997 89.95 50.4997C87.9 50.4997 86.2 48.7997 86.2 46.7497V29.5997C86.2 25.0497 82.45 19.6497 78.15 17.9997L53.2 8.64971C49.9 7.39971 44.05 7.39971 40.75 8.64971L15.8 18.0497C11.5 19.6497 7.74997 25.0497 7.74997 29.6497V66.7997C7.74997 71.5497 11.1 78.1997 14.85 80.9997L36.35 97.0497C39.1 99.0997 42.95 100.25 46.95 100.25C49 100.25 50.7 101.95 50.7 104C50.7 106.05 49.05 107.75 47 107.75Z" fill="white"/>
</svg>
