<svg width="59" height="51" viewBox="0 0 59 51" fill="none" xmlns="http://www.w3.org/2000/svg">
<circle cx="25.1489" cy="16.766" r="5.23935" stroke="#1F6563" stroke-width="2.09574" stroke-linecap="round"/>
<path d="M28.8541 13.6224C29.2686 12.9044 29.8866 12.3255 30.6301 11.9589C31.3736 11.5922 32.2092 11.4543 33.0311 11.5625C33.853 11.6707 34.6243 12.0202 35.2476 12.5668C35.8709 13.1134 36.3181 13.8325 36.5326 14.6333C36.7472 15.434 36.7195 16.2804 36.453 17.0654C36.1866 17.8504 35.6933 18.5388 35.0356 19.0434C34.3779 19.5481 33.5853 19.8464 32.7581 19.9006C31.9309 19.9548 31.1062 19.7625 30.3882 19.348" stroke="#1F6563" stroke-width="2.09574"/>
<path d="M21.4437 13.6224C21.0292 12.9044 20.4112 12.3255 19.6677 11.9589C18.9241 11.5922 18.0886 11.4543 17.2667 11.5625C16.4448 11.6707 15.6734 12.0202 15.0502 12.5668C14.4269 13.1134 13.9797 13.8325 13.7651 14.6333C13.5506 15.434 13.5783 16.2804 13.8448 17.0654C14.1112 17.8504 14.6045 18.5388 15.2622 19.0434C15.9199 19.5481 16.7125 19.8464 17.5397 19.9006C18.3669 19.9548 19.1916 19.7625 19.9095 19.348" stroke="#1F6563" stroke-width="2.09574"/>
<path d="M25.1489 26.1968C33.7 26.1968 35.9074 33.1172 36.4772 36.6901C36.6595 37.8331 35.7372 38.7712 34.5797 38.7712H15.7181C14.5606 38.7712 13.6383 37.8331 13.8206 36.6901C14.3904 33.1172 16.5978 26.1968 25.1489 26.1968Z" stroke="#1F6563" stroke-width="2.09574" stroke-linecap="round"/>
<path d="M32.4838 24.1011L32.4838 23.0532L32.4838 23.0532L32.4838 24.1011ZM40.4409 32.3081L41.4573 32.0536L41.4573 32.0535L40.4409 32.3081ZM38.5512 34.5796L38.5512 35.6275L38.5512 35.6275L38.5512 34.5796ZM36.0063 34.5796L34.9997 34.8708L35.2186 35.6275H36.0063V34.5796ZM27.4282 26.3774L26.6543 25.6709L25.3541 27.0948L27.2563 27.4111L27.4282 26.3774ZM32.4838 24.1011V25.1489C34.6376 25.1489 36.1504 26.2023 37.2588 27.6782C38.3893 29.1836 39.0533 31.0807 39.4244 32.5627L40.4409 32.3081L41.4573 32.0535C41.0567 30.4538 40.3072 28.2474 38.9346 26.4197C37.5399 24.5625 35.4601 23.0532 32.4838 23.0532V24.1011ZM40.4409 32.3081L39.4244 32.5627C39.5371 33.0128 39.2062 33.5317 38.5512 33.5317L38.5512 34.5796L38.5512 35.6275C40.3759 35.6274 41.947 34.0088 41.4573 32.0536L40.4409 32.3081ZM38.5512 34.5796V33.5317H36.0063V34.5796V35.6275H38.5512V34.5796ZM36.0063 34.5796L37.0129 34.2883C36.0255 30.876 33.5717 26.3367 27.6 25.3438L27.4282 26.3774L27.2563 27.4111C32.0765 28.2126 34.1151 31.8136 34.9997 34.8708L36.0063 34.5796ZM27.4282 26.3774L28.202 27.084C29.2509 25.9352 30.6206 25.149 32.4838 25.1489L32.4838 24.1011L32.4838 23.0532C29.9326 23.0533 28.0282 24.1663 26.6543 25.6709L27.4282 26.3774Z" fill="#1F6563"/>
<path d="M17.8134 24.1011L17.8134 23.0532L17.8134 23.0532L17.8134 24.1011ZM22.8691 26.3765L23.041 27.4101L24.9434 27.0938L23.6428 25.6698L22.8691 26.3765ZM14.292 34.5796V35.6275H15.0796L15.2985 34.8708L14.292 34.5796ZM9.85739 32.3081L8.84091 32.0535L8.84091 32.0536L9.85739 32.3081ZM17.8134 24.1011V25.1489C19.6766 25.1489 21.0467 25.9349 22.0954 27.0831L22.8691 26.3765L23.6428 25.6698C22.2689 24.1655 20.3641 23.0532 17.8134 23.0532V24.1011ZM22.8691 26.3765L22.6972 25.3428C16.7257 26.3359 14.2726 30.8764 13.2854 34.2883L14.292 34.5796L15.2985 34.8708C16.1832 31.8134 18.2213 28.2117 23.041 27.4101L22.8691 26.3765ZM14.292 34.5796V33.5317H11.747V34.5796V35.6275H14.292V34.5796ZM11.747 34.5796V33.5317C11.0921 33.5317 10.7611 33.0129 10.8739 32.5627L9.85739 32.3081L8.84091 32.0536C8.35126 34.0088 9.92225 35.6275 11.747 35.6275V34.5796ZM9.85739 32.3081L10.8739 32.5627C11.245 31.0807 11.9088 29.1836 13.0391 27.6783C14.1473 26.2024 15.6598 25.149 17.8135 25.1489L17.8134 24.1011L17.8134 23.0532C14.8373 23.0533 12.7577 24.5627 11.3632 26.4199C9.9909 28.2476 9.24153 30.4539 8.84091 32.0535L9.85739 32.3081Z" fill="#1F6563"/>
<g clip-path="url(#clip0_1962_281)">
<path d="M52.2206 21.1858C51.5773 21.349 51.0662 21.749 50.727 22.2585L43.8009 20.2772C43.7938 20.0718 43.7783 19.8685 43.7267 19.6654C43.6752 19.4623 43.5919 19.2762 43.5002 19.0922L48.5846 14.0994C49.1491 14.4066 49.8166 14.5165 50.4853 14.3469C51.8903 13.9903 52.7367 12.5684 52.3802 11.1633C52.0236 9.75831 50.6017 8.91192 49.1966 9.26844C47.7916 9.62496 46.9452 11.0469 47.3017 12.452C47.3533 12.6551 47.4365 12.8412 47.5283 13.0251L42.4438 18.018C41.8794 17.7107 41.2119 17.6008 40.5432 17.7705C39.1382 18.127 38.2918 19.549 38.6483 20.954C39.0048 22.359 40.4268 23.2054 41.8318 22.8489C42.5005 22.6792 43.0349 22.2644 43.3845 21.7252L50.3044 23.7171C50.3071 23.9056 50.329 24.0982 50.3762 24.2844C50.722 25.6471 52.1122 26.4746 53.4749 26.1288C54.8376 25.783 55.665 24.3929 55.3192 23.0302C54.9735 21.6674 53.5833 20.84 52.2206 21.1858Z" fill="#1F6563"/>
</g>
<defs>
<clipPath id="clip0_1962_281">
<rect width="20.9574" height="20.9574" fill="white" transform="translate(33.5319 11.4417) rotate(-14.238)"/>
</clipPath>
</defs>
</svg>
