<svg width="87" height="77" viewBox="0 0 87 77" fill="none" xmlns="http://www.w3.org/2000/svg">
<path d="M19 62.9993L34.3535 55.913C35.1409 55.5193 36.7156 54.6532 36.7156 54.3383C35.4033 53.1573 32.3064 49.063 30.4167 42.1342C29.4981 41.4781 27.5822 39.6147 27.2673 37.4101C26.8736 35.5729 26.6374 31.8985 28.842 31.8985C29.6294 33.4733 30.8104 34.9693 29.2357 28.3554C28.0546 24.9435 27.346 18.1198 33.9598 18.1198C34.2223 14.3142 37.9754 8.35649 50.8881 14.9703C53.2502 16.5453 58.053 20.3251 58.368 22.8447C58.6304 23.5008 58.9191 25.6791 57.9743 29.1435C57.7119 30.4558 57.2657 33.0803 57.5806 33.0803C58.2368 32.4242 59.7065 31.5056 60.3364 33.0803C60.7301 34.7863 60.6513 38.9855 57.1869 42.135C56.2684 45.022 53.8013 51.3471 51.2818 53.5517C51.1505 53.6829 50.8881 54.0241 50.8881 54.339C51.413 54.9952 55.6122 57.646 68.21 63" stroke="#1F6563" stroke-width="3" stroke-linecap="round"/>
<path d="M2.03302 48.0003V61.7793C2.03315 65.2793 1.03292 74.2793 10.0327 74.7793H28.0332" stroke="#1F6563" stroke-width="4" stroke-linecap="round"/>
<path d="M84.0002 48.0003V61.7793C84.0001 65.2793 85.0003 74.2793 76.0005 74.7793H58" stroke="#1F6563" stroke-width="4" stroke-linecap="round"/>
<path d="M2.03302 28.779V15C2.03315 11.5 1.03292 2.5 10.0327 2H28.0332" stroke="#1F6563" stroke-width="4" stroke-linecap="round"/>
<path d="M84.0002 28.779V15C84.0001 11.5 85.0003 2.5 76.0005 2H58" stroke="#1F6563" stroke-width="4" stroke-linecap="round"/>
</svg>
