<svg width="152" height="152" viewBox="0 0 152 152" fill="none" xmlns="http://www.w3.org/2000/svg">
<g clip-path="url(#clip0_1870_6856)">
<path d="M45.4029 28.2976C45.6141 27.2886 45.7314 26.3501 45.9895 25.4584C47.5147 20.3433 51.3158 17.9969 56.2902 17.3868C64.3618 16.4013 71.7765 18.4427 78.3464 23.1355C82.1476 25.8573 85.7141 28.9311 89.1164 32.1222C92.9176 35.7122 94.9355 42.1648 92.0729 47.8666C91.2986 49.4152 91.1578 51.2689 90.712 53.1225C91.8382 53.1225 92.7064 52.9348 93.4338 53.1695C94.607 53.5214 95.264 54.5069 95.5221 55.6567C96.8361 61.2411 96.0618 66.4266 92.3075 70.9552C91.9555 71.3776 91.5801 71.8234 91.1108 72.058C89.6091 72.8089 89.2572 74.1463 88.8583 75.6011C87.2393 81.7252 84.5644 88.2951 79.0269 94.3488C79.5665 94.7243 80.0358 95.1701 80.599 95.4517C85.151 97.5634 89.7265 99.6752 94.3254 101.763C98.5489 103.688 102.772 105.612 107.019 107.512C107.981 107.958 108.944 108.38 109.929 108.756C110.868 109.108 111.384 109.694 111.079 110.727C110.821 111.618 109.976 111.9 108.85 111.478C108.122 111.219 107.395 110.914 106.691 110.586C100.004 107.653 93.3165 104.743 86.6527 101.74C83.7431 100.426 80.9275 98.8774 78.1352 97.3288C77.314 96.8595 76.5866 96.1321 75.9531 95.4282C75.3196 94.7008 75.2961 93.8796 76.0704 93.1287C81.8191 87.4973 84.799 80.4112 86.5823 72.7385C86.8169 71.753 87.1924 71.096 88.1309 70.5798C91.0874 68.9608 92.331 66.1685 92.9176 63.0478C93.3634 60.7014 93.4103 58.3316 92.4483 55.7505C91.7913 56.3606 91.322 56.9002 90.7589 57.2757C90.2192 57.6276 89.5622 58.0265 88.9756 57.9796C88.084 57.9092 87.9432 57.041 87.9432 56.2667C87.9197 52.5594 88.3421 48.9929 89.8203 45.5202C91.5567 41.3905 90.2661 37.5659 87.3566 34.4921C83.3208 30.2216 78.8626 26.4439 73.6536 23.6283C68.1865 20.6718 62.3909 19.4047 56.2433 20.3433C51.0577 21.1176 48.6409 24.0037 48.3594 29.2127C48.289 30.8317 47.9605 31.1367 46.2945 31.2071C41.6487 31.3948 38.9503 33.3424 38.176 37.3312C37.871 38.9503 37.7536 40.7101 37.9883 42.3291C38.5279 46.0364 39.3492 49.6968 40.0531 53.3806C40.2408 54.3427 40.3581 55.3047 40.4989 56.2667C40.5928 57.0176 40.4285 57.8153 39.6073 57.9327C39.0676 58.0265 38.3637 57.745 37.871 57.4165C37.2374 57.0176 36.7681 56.384 36.0408 55.6567C35.7357 56.6421 35.3838 57.2991 35.3368 58.0031C35.1022 60.983 35.3838 63.916 36.7447 66.6613C37.6129 68.3742 38.8095 69.8055 40.5459 70.6502C41.3202 71.0256 41.6487 71.6122 41.8364 72.4569C43.1504 78.3698 45.2387 83.9777 48.8287 88.9287C49.8141 90.2896 50.9639 91.5332 52.0902 92.7533C53.2164 93.9734 53.3103 94.8416 52.0432 95.8975C50.8935 96.883 49.6734 97.8684 48.3124 98.502C43.4319 100.778 38.481 102.866 33.5536 105.072C29.3535 106.972 25.2004 108.92 21.0003 110.844C20.4372 111.102 19.8506 111.36 19.264 111.548C18.4427 111.806 17.7388 111.548 17.4103 110.75C17.0584 109.906 17.4103 109.202 18.2316 108.826C22.5489 106.832 26.8663 104.814 31.2072 102.89C35.9234 100.801 40.6866 98.8539 45.3794 96.7656C46.7638 96.1556 48.0074 95.2639 49.3683 94.4896C49.2275 94.2081 49.1806 94.0203 49.0633 93.8796C43.9481 88.2717 41.0621 81.561 39.2319 74.2871C39.1145 73.7944 38.9034 73.1608 38.5045 72.9027C34.5391 70.2982 32.8731 66.4032 32.4742 61.8981C32.31 59.974 32.4977 57.9796 32.8262 56.079C33.272 53.6387 34.3748 52.9114 37.0028 52.9114C36.5804 50.9404 36.1815 49.0163 35.7827 47.0923C35.0787 43.8308 34.586 40.5693 35.1726 37.2139C36.0642 32.2865 38.8799 29.4004 43.8308 28.4853C44.3705 28.4853 44.8632 28.3914 45.4029 28.2976Z" fill="#1F6563"/>
<path d="M129.944 152C117.531 152.117 107.817 142.708 107.536 130.53C107.231 117.484 117.391 108.099 129.169 107.911C141.652 107.723 151.578 117.555 151.625 129.826C151.671 142.004 141.957 151.929 129.944 152ZM148.621 129.967C148.598 119.361 140.104 110.867 129.521 110.914C118.892 110.961 110.516 119.455 110.539 130.178C110.539 140.526 119.174 149.02 129.639 148.996C140.151 148.973 148.668 140.455 148.621 129.967Z" fill="black"/>
<path d="M0.0469521 104.814C0.0469521 100.896 0.0469521 97.0005 0.0469521 93.082C0.0469521 92.73 -0.070368 92.2607 0.117344 92.0496C0.516233 91.5803 1.05591 90.9702 1.52519 90.9702C1.99447 90.9702 2.51068 91.6272 2.8861 92.0965C3.05035 92.3311 2.93303 92.7769 2.93303 93.1289C2.93303 100.567 2.93303 107.982 2.93303 115.42C2.93303 119.972 4.92747 123.327 9.12753 125.134C10.3946 125.674 11.9198 125.861 13.3276 125.885C20.7657 125.955 28.1803 125.908 35.6184 125.908C36.0173 125.908 36.5101 125.791 36.7682 125.979C37.214 126.307 37.7771 126.847 37.8006 127.293C37.8006 127.762 37.2609 128.278 36.8386 128.677C36.6743 128.841 36.252 128.747 35.9235 128.747C28.2507 128.747 20.6014 128.771 12.9287 128.747C5.65486 128.724 0.117344 123.186 0.0704161 115.889C0.0234881 112.252 0.0469521 108.545 0.0469521 104.814Z" fill="#1F6563"/>
<path d="M128.442 23.9333C128.442 27.9691 128.442 31.9815 128.442 36.0173C128.442 37.2374 127.926 37.9413 127.058 37.9413C126.096 37.9648 125.556 37.2843 125.556 35.9938C125.556 28.4384 125.556 20.9064 125.556 13.351C125.556 7.15651 121.356 2.90952 115.138 2.90952C107.7 2.88606 100.285 2.90952 92.8472 2.90952C92.5421 2.90952 92.2136 2.93298 91.9086 2.88606C91.0874 2.76874 90.6415 2.27599 90.6415 1.47821C90.6415 0.680437 91.1108 0.164228 91.9086 0.0469082C92.2606 -1.99005e-05 92.6125 0.0234441 92.9645 0.0234441C100.403 0.0234441 107.817 0.0234441 115.255 0.0234441C122.975 0.0234441 128.466 5.56096 128.442 13.2806C128.442 16.8237 128.442 20.3902 128.442 23.9333Z" fill="#1F6563"/>
<path d="M24.0506 6.63335e-06C27.9691 6.63335e-06 31.8641 -0.0234574 35.7826 0.0234707C36.2988 0.0234707 36.9558 0.0938628 37.3078 0.398895C37.6363 0.703928 37.8709 1.40785 37.7536 1.8302C37.6363 2.25255 37.0966 2.69837 36.6508 2.83915C36.0407 3.02687 35.3368 2.90955 34.6798 2.90955C27.5233 2.90955 20.3668 2.93301 13.2337 2.88608C11.0515 2.86262 8.84591 3.26151 7.22689 4.45817C5.3967 5.79562 3.82461 7.69621 3.33187 10.113C3.12069 11.2158 2.95644 12.3421 2.93298 13.4684C2.90951 20.9299 2.90951 28.3915 2.90951 35.8531C2.90951 36.0877 2.90951 36.3223 2.90951 36.557C2.83912 37.4486 2.29945 37.9413 1.45474 37.9413C0.56311 37.9413 0.0234375 37.4486 0.0234375 36.4631C0.0234375 33.1312 0.0234375 29.8228 0.0234375 26.4909C0.0234375 21.9858 0.0234375 17.5042 0.0234375 12.9991C0.0469015 5.53752 5.56095 0.0469347 13.046 6.63335e-06C16.7064 6.63335e-06 20.3902 6.63335e-06 24.0506 6.63335e-06Z" fill="#1F6563"/>
<path d="M98.0093 125.932C99.8864 125.932 101.764 125.955 103.641 125.932C104.626 125.932 105.354 126.26 105.424 127.339C105.494 128.489 104.626 128.794 103.735 128.794C99.8629 128.841 96.0148 128.818 92.1433 128.818C91.2047 128.818 90.665 128.278 90.665 127.363C90.665 126.448 91.2047 125.932 92.1667 125.932C94.1143 125.932 96.0618 125.932 98.0093 125.932Z" fill="#1F6563"/>
<path d="M125.556 98.1968C125.556 96.3197 125.579 94.4426 125.556 92.5655C125.556 91.58 125.955 90.9699 126.964 90.8995C127.856 90.8291 128.442 91.5096 128.442 92.5889C128.466 96.4136 128.466 100.238 128.442 104.063C128.442 105.189 127.902 105.799 126.987 105.799C126.096 105.799 125.58 105.166 125.58 104.039C125.556 102.092 125.556 100.144 125.556 98.1968Z" fill="#1F6563"/>
<path d="M128.442 134.566C129.967 132.454 131.375 130.507 132.806 128.536C134.285 126.495 135.786 124.43 137.288 122.388C137.945 121.473 138.907 121.215 139.587 121.708C140.291 122.201 140.362 123.139 139.681 124.078C136.42 128.606 133.135 133.111 129.85 137.616C129.005 138.766 128.067 138.813 127.175 137.71C124.571 134.496 121.989 131.258 119.455 127.996C118.822 127.175 118.939 126.189 119.596 125.697C120.23 125.227 121.215 125.462 121.849 126.236C123.585 128.442 125.321 130.648 127.058 132.853C127.457 133.393 127.879 133.886 128.442 134.566Z" fill="black"/>
</g>
<defs>
<clipPath id="clip0_1870_6856">
<rect width="151.625" height="152" fill="white"/>
</clipPath>
</defs>
</svg>
