<svg width="179" height="117" viewBox="0 0 179 117" fill="none" xmlns="http://www.w3.org/2000/svg">
<g clip-path="url(#clip0_2089_356)">
<g clip-path="url(#clip1_2089_356)">
<path d="M149.916 63.5886C149.916 64.7752 149.916 65.9619 149.916 67.1486L150.029 67.0356C149.125 66.979 148.221 66.9225 147.204 66.866C146.978 67.8832 146.808 68.6743 146.639 69.5784C145.848 69.7479 144.944 69.9175 143.926 70.1435C143.926 72.0083 143.926 73.873 143.926 75.9073C146.978 75.9073 149.973 75.9073 153.194 75.9073C153.363 75.1162 153.476 74.3251 153.646 73.3644C154.437 73.3644 155.228 73.3644 156.132 73.3644C156.132 75.1727 156.132 76.9244 156.132 78.9022C154.154 79.0152 152.233 79.1283 149.916 79.2413C149.916 81.5016 149.916 83.5924 149.916 85.7397L150.029 85.6267C149.125 85.5702 148.221 85.5137 147.26 85.4571C147.034 86.5308 146.921 87.3219 146.752 88.226C145.904 88.3956 145.113 88.5086 144.322 88.6216C144.152 88.9041 143.983 89.1867 143.926 89.4127C143.87 91.56 143.813 93.7073 143.813 95.9111C143.7 101.731 140.253 105.178 134.49 105.235C133.19 105.235 131.834 105.235 130.534 105.235C90.5829 105.235 50.6883 105.122 10.7372 105.348C3.50415 105.461 -0.0558458 100.94 0.000662176 94.9505C0.226694 72.0648 0.0571701 49.1225 0.0571701 26.2368C0.113678 19.7949 3.39114 16.5175 9.77654 16.5175C19.1569 16.5175 28.5937 16.5175 37.974 16.5175C38.9911 16.5175 40.0083 16.5175 41.3645 16.5175C42.2686 12.7879 43.2292 9.22794 44.0769 5.61143C45.2635 0.35619 46.9023 -1 52.1575 -1C65.4934 -1 78.8292 -1 92.1651 -1C97.1943 -1 99.3416 0.864762 100.189 5.72444C100.811 9.22794 101.489 12.6749 102.224 16.461C103.41 16.461 104.427 16.461 105.388 16.461C115.051 16.461 124.77 16.461 134.433 16.461C140.423 16.461 143.587 19.6254 143.587 25.7283C143.587 32.2267 143.587 38.6686 143.587 45.167C143.587 46.1841 143.587 47.2013 143.587 48.4444C145 48.4444 146.074 48.4444 147.204 48.4444C147.147 49.4051 147.034 50.3092 146.921 51.5524C148.164 51.4959 149.069 51.4394 150.086 51.3829C150.029 50.2527 149.973 49.3486 149.916 48.501C148.786 48.501 147.938 48.501 147.147 48.501C147.147 47.5968 147.147 46.6927 147.147 45.6756C148.108 45.506 148.956 45.3365 150.086 45.1105C149.973 44.2064 149.916 43.3587 149.803 42.4546L149.747 42.5111C150.764 42.3981 151.724 42.3416 152.968 42.2286C152.968 46.3537 152.968 50.2527 152.968 54.4908C151.103 54.4908 149.182 54.4908 147.204 54.4908C146.978 55.5644 146.808 56.3556 146.639 57.3162C145.735 57.4292 144.887 57.5422 143.813 57.7118C143.813 59.6895 143.813 61.6108 143.813 63.7581C145.904 63.7581 147.882 63.7581 149.916 63.7581V63.5886ZM73.235 93.3683C91.8826 92.9162 105.953 76.7549 104.823 59.294C103.58 39.7422 87.6445 26.6324 69.1099 28.2711C50.7448 29.9098 38.313 44.0933 39.4432 63.4191C40.4604 80.88 55.887 94.4984 73.235 93.3683ZM147.034 82.4057C146.978 81.2756 146.921 80.3149 146.865 79.1848C145.678 79.2413 144.774 79.2978 143.757 79.3543C143.813 80.541 143.87 81.3886 143.87 82.4057C145 82.4057 145.848 82.4057 147.034 82.4057Z" fill="black"/>
<path d="M156.867 51.0431C156.867 43.9231 156.867 36.9727 156.867 29.9092C163.93 29.9092 170.881 29.9092 178.001 29.9092C178.001 36.9162 178.001 43.9231 178.001 51.0431C170.937 51.0431 163.93 51.0431 156.867 51.0431ZM159.692 48.2743C165.004 48.2743 170.033 48.2743 175.176 48.2743C175.176 43.019 175.176 37.9333 175.176 32.7911C169.92 32.7911 164.891 32.7911 159.692 32.7911C159.692 37.9898 159.692 43.019 159.692 48.2743Z" fill="black"/>
<path d="M159.749 69.804C160.54 69.9171 161.331 69.9736 162.292 70.0866C162.405 69.0694 162.518 68.2218 162.687 67.2047C163.478 67.1482 164.269 67.0917 165.174 67.0352C165.343 67.9958 165.513 68.7869 165.682 69.9171C166.643 69.9171 167.66 69.9171 168.621 69.9171L168.508 69.804C168.508 71.8948 168.508 73.9856 168.508 76.0764C169.751 76.0764 170.598 76.0764 171.389 76.0764L171.276 75.9634C171.389 77.0371 171.502 78.1107 171.672 79.1844C172.746 79.1844 173.706 79.1844 174.78 79.1844C174.78 77.9412 174.78 76.924 174.78 75.9634L174.723 76.0764C175.571 76.1329 176.362 76.1894 177.436 76.3025C177.436 81.3317 177.436 86.3044 177.436 91.5031C176.588 91.5031 175.854 91.5031 174.836 91.5031C174.836 89.5818 174.836 87.7171 174.836 85.7393C173.763 85.5698 172.859 85.4002 171.898 85.2307C171.729 84.2701 171.616 83.3659 171.446 82.1793C170.429 82.1793 169.525 82.1793 168.621 82.1793L168.734 82.2923C168.677 81.3882 168.621 80.4275 168.564 79.2974C167.66 79.2974 166.756 79.2974 165.739 79.2974C165.569 80.2015 165.4 81.1056 165.23 82.0663C164.383 82.1793 163.535 82.2358 162.631 82.3488C162.518 83.5355 162.405 84.6656 162.348 85.7393L162.461 85.6263C161.557 85.5133 160.653 85.3437 159.523 85.2307C159.41 84.3831 159.24 83.479 159.071 82.4618C158.336 82.2923 157.545 82.1228 156.584 81.9533C156.584 81.1621 156.584 80.371 156.584 79.5234C157.489 79.3539 158.336 79.2409 159.41 79.0713C159.579 75.9634 159.749 72.799 159.918 69.691L159.749 69.804ZM165.456 73.251C164.326 73.251 163.535 73.251 162.631 73.251C162.631 74.2682 162.631 75.1158 162.631 76.0199C163.648 76.0199 164.439 76.0199 165.343 76.0199C165.456 75.5679 165.569 75.2288 165.569 74.8898C165.569 74.4377 165.513 73.9291 165.456 73.251Z" fill="black"/>
<path d="M168.677 69.9742C168.677 69.1266 168.677 68.279 168.677 67.3183C167.773 67.0923 166.869 66.8663 165.852 66.5837C165.852 64.832 165.852 63.1367 165.852 61.046C167.603 60.9329 169.468 60.8199 171.446 60.7069C171.446 59.6898 171.446 58.8421 171.446 57.825C170.542 57.6555 169.751 57.5425 168.79 57.3729C168.79 56.5818 168.79 55.7907 168.79 54.8301C170.711 54.8301 172.52 54.8301 174.667 54.8301C174.667 56.8079 174.667 58.6161 174.667 60.5374C175.741 60.7634 176.588 60.8764 177.605 61.046C177.662 61.7806 177.718 62.5717 177.775 63.4758C176.758 63.6453 175.967 63.7583 174.78 63.9279C174.78 65.0015 174.78 66.0752 174.78 67.1488L174.893 67.0358C173.876 67.0358 172.915 67.0358 171.842 67.0358C171.615 68.0529 171.446 68.9006 171.22 69.8612C170.259 69.8612 169.412 69.8612 168.564 69.8612L168.677 69.9742Z" fill="black"/>
<path d="M162.235 85.7965C163.139 85.74 164.043 85.6835 165.23 85.627C165.343 87.7743 165.456 89.6955 165.569 91.8428C167.716 91.8428 169.638 91.8428 171.729 91.8428C171.729 92.86 171.729 93.5381 171.729 94.4987C168.79 94.4987 165.852 94.4987 162.744 94.4987C162.631 93.7076 162.518 92.9165 162.292 91.7298C159.41 91.7298 156.471 91.7298 153.363 91.7298C153.363 90.5431 153.363 89.752 153.363 88.6784C156.358 88.6784 159.24 88.6784 162.348 88.6784C162.348 87.4917 162.348 86.5876 162.348 85.6835L162.235 85.7965Z" fill="black"/>
<path d="M165.513 54.8301C165.513 55.7907 165.513 56.5253 165.513 57.4859C163.535 57.4859 161.67 57.4859 159.749 57.4859C159.579 58.5596 159.41 59.3507 159.24 60.4244C158.506 60.4809 157.715 60.5939 156.641 60.6504C156.641 58.6161 156.641 56.8079 156.641 54.8301C159.579 54.8301 162.405 54.8301 165.513 54.8301Z" fill="black"/>
<path d="M149.916 36.1816C149.125 36.012 148.278 35.899 147.261 35.673C147.204 34.7689 147.148 33.8647 147.091 32.9041C147.091 32 147.091 31.0393 147.091 29.9092C149.182 29.9092 150.99 29.9092 153.024 29.9092C153.081 30.7003 153.137 31.4914 153.194 32.3955C152.12 32.5085 151.216 32.6216 150.312 32.7911C150.143 33.9778 149.973 35.1079 149.803 36.1816H149.916Z" fill="black"/>
<path d="M174.78 69.8604C174.78 71.9511 174.78 74.0419 174.78 76.1892L174.836 76.0762C173.65 76.0762 172.52 76.0762 171.333 76.0762L171.446 76.1892C171.616 74.2115 171.729 72.2337 171.898 70.1994C173.028 70.0864 173.932 70.0299 174.836 69.9734L174.78 69.8604Z" fill="black"/>
<path d="M149.973 63.7016C150.03 62.854 150.086 62.0629 150.143 60.9893C152.12 60.9893 153.985 60.9893 156.076 60.9893C156.076 61.8369 156.076 62.628 156.076 63.5886C153.929 63.5886 151.894 63.5886 149.917 63.5886L149.973 63.7016Z" fill="black"/>
<path d="M147.261 94.5546C147.261 93.5939 147.261 92.9158 147.261 92.0117C149.125 92.0117 150.821 92.0117 152.629 92.0117C152.742 92.2943 152.911 92.5203 152.911 92.7463C152.911 93.3114 152.855 93.82 152.798 94.5546C150.99 94.5546 149.238 94.5546 147.261 94.5546Z" fill="black"/>
<path d="M149.803 36.2389C150.877 36.1824 151.951 36.1258 153.194 36.0693C153.194 37.0865 153.194 37.8211 153.194 38.7817C152.064 38.7817 150.99 38.7817 149.916 38.7817L150.029 38.8947C149.973 37.9906 149.973 37.0865 149.916 36.2389H149.803Z" fill="black"/>
<path d="M168.564 85.6833C167.773 85.5703 166.925 85.4573 165.852 85.2878C165.795 84.4966 165.682 83.649 165.569 82.3493C166.756 82.3493 167.773 82.3493 168.734 82.3493L168.621 82.2363C168.564 83.423 168.508 84.6097 168.451 85.7963L168.564 85.6833Z" fill="black"/>
<path d="M159.805 69.7486C158.788 69.8052 157.771 69.8617 156.528 69.9747C156.471 69.014 156.415 68.2229 156.358 67.2623C157.376 67.2058 158.167 67.1493 159.014 67.0928C159.297 68.1099 159.523 68.9575 159.749 69.8617L159.805 69.7486Z" fill="black"/>
<path d="M149.86 69.8037C149.86 70.8209 149.86 71.838 149.86 72.9682C148.899 72.9682 148.108 72.9682 147.148 72.9682C147.148 72.0075 147.148 71.2164 147.148 70.3123C148.108 70.1428 149.012 70.0297 149.916 69.9167L149.86 69.8037Z" fill="black"/>
<path d="M149.916 42.3976C149.069 42.1716 148.221 41.9456 147.261 41.7195C147.261 40.9284 147.261 40.1373 147.261 39.2332C148.278 39.1202 149.125 39.0071 150.029 38.8376L149.916 38.7246C149.916 39.9678 149.86 41.211 149.86 42.4541C149.86 42.5106 149.916 42.3976 149.916 42.3976Z" fill="black"/>
<path d="M168.508 85.7966C169.412 85.7401 170.316 85.6836 171.389 85.6836C171.446 86.6442 171.502 87.3223 171.559 88.283C170.655 88.396 169.864 88.4525 168.903 88.5655C168.79 87.4919 168.677 86.5877 168.621 85.6836C168.564 85.6836 168.508 85.7966 168.508 85.7966Z" fill="black"/>
<path d="M149.86 85.7965C150.764 85.74 151.668 85.6835 152.742 85.627C152.798 86.5876 152.855 87.3222 152.968 88.3393C152.007 88.3958 151.216 88.4523 150.312 88.5089C150.199 87.4352 150.086 86.5876 149.973 85.6835L149.86 85.7965Z" fill="black"/>
<path d="M174.78 67.148C175.571 67.0915 176.419 67.035 177.549 66.9785C177.605 67.9392 177.662 68.7868 177.718 69.8604C176.588 69.8604 175.684 69.8604 174.836 69.8604L174.949 69.9734C174.949 69.0128 174.949 68.0522 174.949 67.0915L174.78 67.148Z" fill="black"/>
<path d="M149.973 69.8617C149.973 68.9575 149.973 67.9969 149.973 67.0928L149.86 67.2058C150.764 67.2058 151.668 67.2058 152.742 67.2058C152.742 68.1099 152.742 68.901 152.742 69.8052C151.668 69.8052 150.764 69.8052 149.86 69.8052L149.973 69.8617Z" fill="black"/>
<path d="M163.083 36.0127C166.021 36.0127 168.79 36.0127 171.785 36.0127C171.785 38.8946 171.785 41.7765 171.785 44.8279C169.016 44.8279 166.191 44.8279 163.083 44.8279C163.083 42.1156 163.083 39.2902 163.083 36.0127Z" fill="black"/>
</g>
</g>
<g clip-path="url(#clip2_2089_356)">
<path d="M150.915 66.5886C150.915 67.7752 150.915 68.9619 150.915 70.1486L151.028 70.0356C150.124 69.979 149.22 69.9225 148.203 69.866C147.977 70.8832 147.807 71.6743 147.638 72.5784C146.847 72.7479 145.943 72.9175 144.925 73.1435C144.925 75.0083 144.925 76.873 144.925 78.9073C147.977 78.9073 150.972 78.9073 154.193 78.9073C154.362 78.1162 154.475 77.3251 154.645 76.3644C155.436 76.3644 156.227 76.3644 157.131 76.3644C157.131 78.1727 157.131 79.9244 157.131 81.9022C155.153 82.0152 153.232 82.1283 150.915 82.2413C150.915 84.5016 150.915 86.5924 150.915 88.7397L151.028 88.6267C150.124 88.5702 149.22 88.5137 148.259 88.4571C148.033 89.5308 147.92 90.3219 147.751 91.226C146.903 91.3956 146.112 91.5086 145.321 91.6216C145.152 91.9041 144.982 92.1867 144.925 92.4127C144.869 94.56 144.812 96.7073 144.812 98.9111C144.699 104.731 141.252 108.178 135.489 108.235C134.189 108.235 132.833 108.235 131.533 108.235C91.582 108.235 51.6874 108.122 11.7363 108.348C4.50324 108.461 0.943239 103.94 0.999747 97.9505C1.22578 75.0648 1.05625 52.1225 1.05625 29.2368C1.11276 22.7949 4.39022 19.5175 10.7756 19.5175C20.1559 19.5175 29.5928 19.5175 38.9731 19.5175C39.9902 19.5175 41.0074 19.5175 42.3636 19.5175C43.2677 15.7879 44.2283 12.2279 45.0759 8.61143C46.2626 3.35619 47.9013 2 53.1566 2C66.4925 2 79.8283 2 93.1642 2C98.1934 2 100.341 3.86476 101.188 8.72444C101.81 12.2279 102.488 15.6749 103.223 19.461C104.409 19.461 105.426 19.461 106.387 19.461C116.05 19.461 125.769 19.461 135.432 19.461C141.422 19.461 144.586 22.6254 144.586 28.7283C144.586 35.2267 144.586 41.6686 144.586 48.167C144.586 49.1841 144.586 50.2013 144.586 51.4444C145.999 51.4444 147.073 51.4444 148.203 51.4444C148.146 52.4051 148.033 53.3092 147.92 54.5524C149.164 54.4959 150.068 54.4394 151.085 54.3829C151.028 53.2527 150.972 52.3486 150.915 51.501C149.785 51.501 148.938 51.501 148.146 51.501C148.146 50.5968 148.146 49.6927 148.146 48.6756C149.107 48.506 149.955 48.3365 151.085 48.1105C150.972 47.2064 150.915 46.3587 150.802 45.4546L150.746 45.5111C151.763 45.3981 152.724 45.3416 153.967 45.2286C153.967 49.3537 153.967 53.2527 153.967 57.4908C152.102 57.4908 150.181 57.4908 148.203 57.4908C147.977 58.5644 147.807 59.3556 147.638 60.3162C146.734 60.4292 145.886 60.5422 144.812 60.7118C144.812 62.6895 144.812 64.6108 144.812 66.7581C146.903 66.7581 148.881 66.7581 150.915 66.7581V66.5886ZM74.234 96.3683C92.8817 95.9162 106.952 79.7549 105.822 62.294C104.579 42.7422 88.6436 29.6324 70.109 31.2711C51.7439 32.9098 39.3121 47.0933 40.4423 66.4191C41.4594 83.88 56.8861 97.4984 74.234 96.3683ZM148.033 85.4057C147.977 84.2756 147.92 83.3149 147.864 82.1848C146.677 82.2413 145.773 82.2978 144.756 82.3543C144.812 83.541 144.869 84.3886 144.869 85.4057C145.999 85.4057 146.847 85.4057 148.033 85.4057Z" fill="#F7F7F7"/>
<path d="M94.6336 63.8201C94.6336 75.9693 84.9708 85.5192 72.9911 85.8582C61.972 86.1408 50.6139 75.1782 51.0095 63.7071C51.405 51.8969 60.9549 42.0081 72.8781 42.1211C85.1403 42.1776 94.6901 51.4449 94.6336 63.8201Z" fill="#F7F7F7"/>
<circle cx="16" cy="30" r="4" fill="black"/>
</g>
<defs>
<clipPath id="clip0_2089_356">
<rect width="178" height="106.404" fill="white" transform="translate(1 2)"/>
</clipPath>
<clipPath id="clip1_2089_356">
<rect width="40" height="73" fill="white" transform="translate(144 28)"/>
</clipPath>
<clipPath id="clip2_2089_356">
<rect width="145" height="117" fill="white"/>
</clipPath>
</defs>
</svg>
