<svg width="29" height="27" viewBox="0 0 29 27" fill="none" xmlns="http://www.w3.org/2000/svg">
<circle cx="14.5" cy="6.33398" r="4.47917" stroke="#E6F9FA" stroke-width="1.79167" stroke-linecap="round"/>
<path d="M17.6674 3.64648C18.0218 3.03272 18.5502 2.53781 19.1858 2.22436C19.8214 1.9109 20.5357 1.79297 21.2384 1.88547C21.941 1.97798 22.6005 2.27677 23.1333 2.74406C23.6662 3.21135 24.0485 3.82615 24.2319 4.51072C24.4153 5.19528 24.3916 5.91887 24.1638 6.58998C23.936 7.26108 23.5143 7.84956 22.9521 8.281C22.3898 8.71244 21.7122 8.96746 21.005 9.01381C20.2978 9.06016 19.5928 8.89577 18.979 8.54141" stroke="#E6F9FA" stroke-width="1.79167"/>
<path d="M11.3326 3.64648C10.9782 3.03272 10.4498 2.53781 9.8142 2.22436C9.17857 1.9109 8.46426 1.79297 7.76161 1.88547C7.05896 1.97798 6.39951 2.27677 5.86667 2.74406C5.33383 3.21135 4.95152 3.82615 4.7681 4.51072C4.58467 5.19528 4.60835 5.91887 4.83616 6.58998C5.06397 7.26108 5.48567 7.84956 6.04794 8.281C6.6102 8.71244 7.28777 8.96746 7.99497 9.01381C8.70217 9.06016 9.40723 8.89577 10.021 8.54141" stroke="#E6F9FA" stroke-width="1.79167"/>
<path d="M14.5002 14.3965C21.8106 14.3965 23.6977 20.3128 24.1848 23.3673C24.3407 24.3445 23.5522 25.1465 22.5627 25.1465H6.43766C5.44815 25.1465 4.65966 24.3445 4.8155 23.3673C5.30263 20.3128 7.18973 14.3965 14.5002 14.3965Z" stroke="#E6F9FA" stroke-width="1.79167" stroke-linecap="round"/>
<path d="M20.7705 12.6035L20.7705 11.7077L20.7705 11.7077L20.7705 12.6035ZM27.5732 19.6201L28.4422 19.4025L28.4422 19.4025L27.5732 19.6201ZM25.958 21.5625L25.958 22.4583L25.9581 22.4583L25.958 21.5625ZM23.7822 21.5625L22.9217 21.8115L23.1088 22.4583H23.7822V21.5625ZM16.4482 14.5498L15.7867 13.9458L14.6751 15.1632L16.3013 15.4335L16.4482 14.5498ZM20.7705 12.6035V13.4993C22.6118 13.4993 23.9051 14.3999 24.8528 15.6618C25.8193 16.9489 26.387 18.5708 26.7042 19.8377L27.5732 19.6201L28.4422 19.4025C28.0997 18.0349 27.4589 16.1485 26.2854 14.5859C25.0931 12.9981 23.3149 11.7077 20.7705 11.7077V12.6035ZM27.5732 19.6201L26.7042 19.8377C26.8007 20.2229 26.5174 20.6666 25.9579 20.6667L25.958 21.5625L25.9581 22.4583C27.5183 22.4581 28.8607 21.0736 28.4422 19.4025L27.5732 19.6201ZM25.958 21.5625V20.6667H23.7822V21.5625V22.4583H25.958V21.5625ZM23.7822 21.5625L24.6428 21.3135C23.7987 18.3962 21.7008 14.5149 16.5951 13.6661L16.4482 14.5498L16.3013 15.4335C20.4225 16.1186 22.1655 19.1977 22.9217 21.8115L23.7822 21.5625ZM16.4482 14.5498L17.1098 15.1538C18.0065 14.1718 19.1777 13.4994 20.7706 13.4993L20.7705 12.6035L20.7705 11.7077C18.5895 11.7078 16.9611 12.6595 15.7867 13.9458L16.4482 14.5498Z" fill="#E6F9FA"/>
<path d="M8.22949 12.6035L8.22954 11.7077H8.22949V12.6035ZM12.5508 14.5498L12.6978 15.4335L14.3239 15.163L13.2123 13.9457L12.5508 14.5498ZM5.21777 21.5625V22.4583H5.89116L6.07831 21.8115L5.21777 21.5625ZM3.04199 21.5625L3.04186 22.4583H3.04199V21.5625ZM1.42676 19.6201L0.557762 19.4025L0.557759 19.4025L1.42676 19.6201ZM8.22949 12.6035L8.22945 13.4993C9.82184 13.4994 10.9924 14.1718 11.8893 15.1539L12.5508 14.5498L13.2123 13.9457C12.0381 12.6599 10.4105 11.7078 8.22954 11.7077L8.22949 12.6035ZM12.5508 14.5498L12.4038 13.6661C7.29875 14.5152 5.2012 18.3965 4.35723 21.3135L5.21777 21.5625L6.07831 21.8115C6.8345 19.1978 8.57721 16.1189 12.6978 15.4335L12.5508 14.5498ZM5.21777 21.5625V20.6667H3.04199V21.5625V22.4583H5.21777V21.5625ZM3.04199 21.5625L3.04213 20.6667C2.48256 20.6666 2.1993 20.2229 2.29576 19.8377L1.42676 19.6201L0.557759 19.4025C0.139262 21.0736 1.48171 22.4581 3.04186 22.4583L3.04199 21.5625ZM1.42676 19.6201L2.29575 19.8377C2.61304 18.5709 3.1807 16.9489 4.14724 15.6618C5.09486 14.3999 6.3882 13.4993 8.22949 13.4993V12.6035V11.7077C5.68507 11.7077 3.90695 12.9981 2.71457 14.5859C1.54112 16.1485 0.900271 18.0349 0.557762 19.4025L1.42676 19.6201Z" fill="#E6F9FA"/>
</svg>
