<svg width="589" height="431" viewBox="0 0 589 431" fill="none" xmlns="http://www.w3.org/2000/svg">
<g filter="url(#filter0_d_1870_6980)">
<path d="M32 9H541C553.15 9 563 18.8497 563 31V382C563 394.15 553.15 404 541 404H32C19.8497 404 10 394.15 10 382V31C10 18.8497 19.8497 9 32 9Z" fill="#D5E6EE" stroke="#D5E6EE" stroke-width="2"/>
<rect x="464" y="8" width="100" height="106" rx="27" fill="#1F6563"/>
<path d="M529.991 43.7627C529.86 42.111 528.414 40.8783 526.763 41.0094L499.847 43.1455C498.196 43.2766 496.963 44.7218 497.094 46.3735C497.225 48.0252 498.67 49.2578 500.322 49.1267L524.247 47.2279L526.146 71.1527C526.277 72.8044 527.722 74.037 529.373 73.906C531.025 73.7749 532.258 72.3297 532.127 70.678L529.991 43.7627ZM498 78L500.283 79.9468L529.283 45.9468L527 44L524.717 42.0532L495.717 76.0532L498 78Z" fill="white"/>
<path d="M75.456 84V48.24H99.312V54H81.984V63.888H97.152V69.648H81.984V84H75.456ZM109.895 84.576C108.071 84.576 106.487 84.272 105.143 83.664C103.799 83.056 102.759 82.192 102.023 81.072C101.287 79.92 100.919 78.592 100.919 77.088C100.919 75.648 101.239 74.368 101.879 73.248C102.519 72.096 103.511 71.136 104.855 70.368C106.199 69.6 107.895 69.056 109.943 68.736L118.487 67.344V72.144L111.143 73.392C109.895 73.616 108.967 74.016 108.359 74.592C107.751 75.168 107.447 75.92 107.447 76.848C107.447 77.744 107.783 78.464 108.455 79.008C109.159 79.52 110.023 79.776 111.047 79.776C112.359 79.776 113.511 79.504 114.503 78.96C115.527 78.384 116.311 77.6 116.855 76.608C117.431 75.616 117.719 74.528 117.719 73.344V66.624C117.719 65.504 117.271 64.576 116.375 63.84C115.511 63.072 114.359 62.688 112.919 62.688C111.575 62.688 110.375 63.056 109.319 63.792C108.295 64.496 107.543 65.44 107.063 66.624L101.927 64.128C102.439 62.752 103.239 61.568 104.327 60.576C105.447 59.552 106.759 58.752 108.263 58.176C109.767 57.6 111.399 57.312 113.159 57.312C115.303 57.312 117.191 57.712 118.823 58.512C120.455 59.28 121.719 60.368 122.615 61.776C123.543 63.152 124.007 64.768 124.007 66.624V84H118.055V79.536L119.399 79.44C118.727 80.56 117.927 81.504 116.999 82.272C116.071 83.008 115.015 83.584 113.831 84C112.647 84.384 111.335 84.576 109.895 84.576ZM142.395 84.576C139.803 84.576 137.467 83.984 135.387 82.8C133.339 81.584 131.723 79.952 130.539 77.904C129.355 75.824 128.763 73.488 128.763 70.896C128.763 68.304 129.355 65.984 130.539 63.936C131.723 61.888 133.339 60.272 135.387 59.088C137.467 57.904 139.803 57.312 142.395 57.312C144.251 57.312 145.979 57.648 147.579 58.32C149.179 58.96 150.555 59.856 151.707 61.008C152.891 62.128 153.739 63.472 154.251 65.04L148.731 67.44C148.251 66.128 147.435 65.072 146.283 64.272C145.163 63.472 143.867 63.072 142.395 63.072C141.019 63.072 139.787 63.408 138.699 64.08C137.643 64.752 136.811 65.68 136.203 66.864C135.595 68.048 135.291 69.408 135.291 70.944C135.291 72.48 135.595 73.84 136.203 75.024C136.811 76.208 137.643 77.136 138.699 77.808C139.787 78.48 141.019 78.816 142.395 78.816C143.899 78.816 145.211 78.416 146.331 77.616C147.451 76.816 148.251 75.744 148.731 74.4L154.251 76.896C153.739 78.368 152.907 79.696 151.755 80.88C150.603 82.032 149.227 82.944 147.627 83.616C146.027 84.256 144.283 84.576 142.395 84.576ZM159.022 84V57.888H165.31V84H159.022ZM159.022 54.96V48.24H165.31V54.96H159.022ZM179.036 84.576C177.212 84.576 175.628 84.272 174.284 83.664C172.94 83.056 171.9 82.192 171.164 81.072C170.428 79.92 170.06 78.592 170.06 77.088C170.06 75.648 170.38 74.368 171.02 73.248C171.66 72.096 172.652 71.136 173.996 70.368C175.34 69.6 177.036 69.056 179.084 68.736L187.628 67.344V72.144L180.284 73.392C179.036 73.616 178.108 74.016 177.5 74.592C176.892 75.168 176.588 75.92 176.588 76.848C176.588 77.744 176.924 78.464 177.596 79.008C178.3 79.52 179.164 79.776 180.188 79.776C181.5 79.776 182.652 79.504 183.644 78.96C184.668 78.384 185.452 77.6 185.996 76.608C186.572 75.616 186.86 74.528 186.86 73.344V66.624C186.86 65.504 186.412 64.576 185.516 63.84C184.652 63.072 183.5 62.688 182.06 62.688C180.716 62.688 179.516 63.056 178.46 63.792C177.436 64.496 176.684 65.44 176.204 66.624L171.068 64.128C171.58 62.752 172.38 61.568 173.468 60.576C174.588 59.552 175.9 58.752 177.404 58.176C178.908 57.6 180.54 57.312 182.299 57.312C184.444 57.312 186.332 57.712 187.964 58.512C189.596 59.28 190.86 60.368 191.756 61.776C192.684 63.152 193.148 64.768 193.148 66.624V84H187.196V79.536L188.54 79.44C187.868 80.56 187.068 81.504 186.14 82.272C185.212 83.008 184.156 83.584 182.972 84C181.788 84.384 180.476 84.576 179.036 84.576ZM198.959 84V47.664H205.247V84H198.959ZM75.456 140V104.24H88.752C91.184 104.24 93.328 104.688 95.184 105.584C97.072 106.448 98.544 107.728 99.6 109.424C100.656 111.088 101.184 113.12 101.184 115.52C101.184 117.984 100.592 120.08 99.408 121.808C98.256 123.536 96.688 124.816 94.704 125.648L102.912 140H95.52L86.736 124.304L90.96 126.8H81.984V140H75.456ZM81.984 121.04H88.848C90.032 121.04 91.056 120.816 91.92 120.368C92.784 119.888 93.456 119.232 93.936 118.4C94.416 117.568 94.656 116.608 94.656 115.52C94.656 114.4 94.416 113.44 93.936 112.64C93.456 111.808 92.784 111.168 91.92 110.72C91.056 110.24 90.032 110 88.848 110H81.984V121.04ZM117.593 140.576C114.905 140.576 112.553 139.968 110.537 138.752C108.521 137.536 106.953 135.888 105.833 133.808C104.713 131.728 104.153 129.424 104.153 126.896C104.153 124.272 104.713 121.952 105.833 119.936C106.985 117.888 108.537 116.272 110.489 115.088C112.473 113.904 114.681 113.312 117.113 113.312C119.161 113.312 120.953 113.648 122.489 114.32C124.057 114.992 125.385 115.92 126.473 117.104C127.561 118.288 128.393 119.648 128.969 121.184C129.545 122.688 129.833 124.32 129.833 126.08C129.833 126.528 129.801 126.992 129.737 127.472C129.705 127.952 129.625 128.368 129.497 128.72H109.337V123.92H125.945L122.969 126.176C123.257 124.704 123.177 123.392 122.729 122.24C122.313 121.088 121.609 120.176 120.617 119.504C119.657 118.832 118.489 118.496 117.113 118.496C115.801 118.496 114.633 118.832 113.609 119.504C112.585 120.144 111.801 121.104 111.257 122.384C110.745 123.632 110.553 125.152 110.681 126.944C110.553 128.544 110.761 129.968 111.305 131.216C111.881 132.432 112.713 133.376 113.801 134.048C114.921 134.72 116.201 135.056 117.641 135.056C119.081 135.056 120.297 134.752 121.289 134.144C122.313 133.536 123.113 132.72 123.689 131.696L128.777 134.192C128.265 135.44 127.465 136.544 126.377 137.504C125.289 138.464 123.993 139.216 122.489 139.76C121.017 140.304 119.385 140.576 117.593 140.576ZM147.176 140.576C144.584 140.576 142.248 139.984 140.168 138.8C138.12 137.584 136.504 135.952 135.32 133.904C134.136 131.824 133.544 129.488 133.544 126.896C133.544 124.304 134.136 121.984 135.32 119.936C136.504 117.888 138.12 116.272 140.168 115.088C142.248 113.904 144.584 113.312 147.176 113.312C149.032 113.312 150.76 113.648 152.36 114.32C153.96 114.96 155.336 115.856 156.488 117.008C157.672 118.128 158.52 119.472 159.032 121.04L153.512 123.44C153.032 122.128 152.216 121.072 151.064 120.272C149.944 119.472 148.648 119.072 147.176 119.072C145.8 119.072 144.568 119.408 143.48 120.08C142.424 120.752 141.592 121.68 140.984 122.864C140.376 124.048 140.072 125.408 140.072 126.944C140.072 128.48 140.376 129.84 140.984 131.024C141.592 132.208 142.424 133.136 143.48 133.808C144.568 134.48 145.8 134.816 147.176 134.816C148.68 134.816 149.992 134.416 151.112 133.616C152.232 132.816 153.032 131.744 153.512 130.4L159.032 132.896C158.52 134.368 157.688 135.696 156.536 136.88C155.384 138.032 154.008 138.944 152.408 139.616C150.808 140.256 149.064 140.576 147.176 140.576ZM176.571 140.576C174.011 140.576 171.675 139.984 169.563 138.8C167.483 137.616 165.819 136 164.571 133.952C163.355 131.904 162.747 129.568 162.747 126.944C162.747 124.32 163.355 121.984 164.571 119.936C165.819 117.888 167.483 116.272 169.563 115.088C171.643 113.904 173.979 113.312 176.571 113.312C179.131 113.312 181.451 113.904 183.531 115.088C185.611 116.272 187.259 117.888 188.475 119.936C189.723 121.952 190.347 124.288 190.347 126.944C190.347 129.568 189.723 131.904 188.475 133.952C187.227 136 185.563 137.616 183.483 138.8C181.403 139.984 179.099 140.576 176.571 140.576ZM176.571 134.816C177.979 134.816 179.211 134.48 180.267 133.808C181.355 133.136 182.203 132.208 182.811 131.024C183.451 129.808 183.771 128.448 183.771 126.944C183.771 125.408 183.451 124.064 182.811 122.912C182.203 121.728 181.355 120.8 180.267 120.128C179.211 119.424 177.979 119.072 176.571 119.072C175.131 119.072 173.867 119.424 172.779 120.128C171.691 120.8 170.827 121.728 170.187 122.912C169.579 124.064 169.275 125.408 169.275 126.944C169.275 128.448 169.579 129.808 170.187 131.024C170.827 132.208 171.691 133.136 172.779 133.808C173.867 134.48 175.131 134.816 176.571 134.816ZM207.788 150.56C205.836 150.56 204.028 150.24 202.364 149.6C200.7 148.96 199.26 148.064 198.044 146.912C196.86 145.792 195.996 144.464 195.452 142.928L201.308 140.72C201.692 141.936 202.444 142.912 203.564 143.648C204.716 144.416 206.124 144.8 207.788 144.8C209.068 144.8 210.188 144.56 211.148 144.08C212.14 143.6 212.908 142.896 213.452 141.968C213.996 141.072 214.268 139.984 214.268 138.704V132.752L215.468 134.192C214.572 135.76 213.372 136.944 211.868 137.744C210.364 138.544 208.652 138.944 206.732 138.944C204.3 138.944 202.124 138.384 200.204 137.264C198.284 136.144 196.78 134.608 195.692 132.656C194.604 130.704 194.06 128.512 194.06 126.08C194.06 123.616 194.604 121.424 195.692 119.504C196.78 117.584 198.268 116.08 200.156 114.992C202.044 113.872 204.188 113.312 206.588 113.312C208.54 113.312 210.252 113.728 211.724 114.56C213.228 115.36 214.476 116.528 215.468 118.064L214.604 119.648V113.888H220.556V138.704C220.556 140.976 219.996 143.008 218.876 144.8C217.788 146.592 216.284 148 214.364 149.024C212.476 150.048 210.284 150.56 207.788 150.56ZM207.5 133.136C208.844 133.136 210.012 132.848 211.004 132.272C212.028 131.664 212.828 130.832 213.404 129.776C213.98 128.72 214.268 127.504 214.268 126.128C214.268 124.784 213.964 123.584 213.356 122.528C212.78 121.44 211.98 120.592 210.956 119.984C209.964 119.376 208.812 119.072 207.5 119.072C206.188 119.072 205.004 119.376 203.948 119.984C202.892 120.592 202.06 121.44 201.452 122.528C200.876 123.584 200.588 124.784 200.588 126.128C200.588 127.472 200.876 128.672 201.452 129.728C202.06 130.784 202.876 131.616 203.9 132.224C204.956 132.832 206.156 133.136 207.5 133.136ZM226.428 140V113.888H232.332V119.024L231.852 118.112C232.46 116.544 233.452 115.36 234.828 114.56C236.236 113.728 237.868 113.312 239.724 113.312C241.644 113.312 243.34 113.728 244.812 114.56C246.316 115.392 247.484 116.56 248.316 118.064C249.148 119.536 249.564 121.248 249.564 123.2V140H243.276V124.688C243.276 123.536 243.052 122.544 242.604 121.712C242.156 120.88 241.532 120.24 240.732 119.792C239.964 119.312 239.052 119.072 237.996 119.072C236.972 119.072 236.06 119.312 235.26 119.792C234.46 120.24 233.836 120.88 233.388 121.712C232.94 122.544 232.716 123.536 232.716 124.688V140H226.428ZM254.881 140V113.888H261.169V140H254.881ZM254.881 110.96V104.24H261.169V110.96H254.881ZM278.879 140.288C275.935 140.288 273.647 139.488 272.015 137.888C270.415 136.256 269.615 133.968 269.615 131.024V119.504H265.103V113.888H265.583C266.863 113.888 267.855 113.552 268.559 112.88C269.263 112.208 269.615 111.232 269.615 109.952V107.936H275.903V113.888H281.903V119.504H275.903V130.688C275.903 131.552 276.047 132.288 276.335 132.896C276.655 133.504 277.135 133.968 277.775 134.288C278.447 134.608 279.295 134.768 280.319 134.768C280.543 134.768 280.799 134.752 281.087 134.72C281.407 134.688 281.711 134.656 281.999 134.624V140C281.551 140.064 281.039 140.128 280.463 140.192C279.887 140.256 279.359 140.288 278.879 140.288ZM286.803 140V113.888H293.091V140H286.803ZM286.803 110.96V104.24H293.091V110.96H286.803ZM311.665 140.576C309.105 140.576 306.769 139.984 304.657 138.8C302.577 137.616 300.913 136 299.665 133.952C298.449 131.904 297.841 129.568 297.841 126.944C297.841 124.32 298.449 121.984 299.665 119.936C300.913 117.888 302.577 116.272 304.657 115.088C306.737 113.904 309.073 113.312 311.665 113.312C314.225 113.312 316.545 113.904 318.625 115.088C320.705 116.272 322.353 117.888 323.569 119.936C324.817 121.952 325.441 124.288 325.441 126.944C325.441 129.568 324.817 131.904 323.569 133.952C322.321 136 320.657 137.616 318.577 138.8C316.497 139.984 314.193 140.576 311.665 140.576ZM311.665 134.816C313.073 134.816 314.305 134.48 315.361 133.808C316.449 133.136 317.297 132.208 317.905 131.024C318.545 129.808 318.865 128.448 318.865 126.944C318.865 125.408 318.545 124.064 317.905 122.912C317.297 121.728 316.449 120.8 315.361 120.128C314.305 119.424 313.073 119.072 311.665 119.072C310.225 119.072 308.961 119.424 307.873 120.128C306.785 120.8 305.921 121.728 305.281 122.912C304.673 124.064 304.369 125.408 304.369 126.944C304.369 128.448 304.673 129.808 305.281 131.024C305.921 132.208 306.785 133.136 307.873 133.808C308.961 134.48 310.225 134.816 311.665 134.816ZM330.209 140V113.888H336.113V119.024L335.633 118.112C336.241 116.544 337.233 115.36 338.609 114.56C340.017 113.728 341.649 113.312 343.505 113.312C345.425 113.312 347.121 113.728 348.593 114.56C350.097 115.392 351.265 116.56 352.097 118.064C352.929 119.536 353.345 121.248 353.345 123.2V140H347.057V124.688C347.057 123.536 346.833 122.544 346.385 121.712C345.937 120.88 345.313 120.24 344.513 119.792C343.745 119.312 342.833 119.072 341.777 119.072C340.753 119.072 339.841 119.312 339.041 119.792C338.241 120.24 337.617 120.88 337.169 121.712C336.721 122.544 336.497 123.536 336.497 124.688V140H330.209Z" fill="#1F6563"/>
<g clip-path="url(#clip0_1870_6980)">
<path d="M393.403 267.298C393.614 266.289 393.731 265.35 393.99 264.458C395.515 259.343 399.316 256.997 404.29 256.387C412.362 255.401 419.776 257.443 426.346 262.136C430.148 264.857 433.714 267.931 437.116 271.122C440.918 274.712 442.935 281.165 440.073 286.867C439.299 288.415 439.158 290.269 438.712 292.123C439.838 292.123 440.706 291.935 441.434 292.169C442.607 292.521 443.264 293.507 443.522 294.657C444.836 300.241 444.062 305.427 440.308 309.955C439.956 310.378 439.58 310.823 439.111 311.058C437.609 311.809 437.257 313.146 436.858 314.601C435.239 320.725 432.564 327.295 427.027 333.349C427.567 333.724 428.036 334.17 428.599 334.452C433.151 336.563 437.726 338.675 442.325 340.763C446.549 342.688 450.772 344.612 455.019 346.512C455.981 346.958 456.944 347.38 457.929 347.756C458.868 348.108 459.384 348.694 459.079 349.727C458.821 350.618 457.976 350.9 456.85 350.478C456.122 350.219 455.395 349.914 454.691 349.586C448.004 346.653 441.316 343.743 434.653 340.74C431.743 339.426 428.927 337.877 426.135 336.329C425.314 335.859 424.587 335.132 423.953 334.428C423.32 333.701 423.296 332.88 424.07 332.129C429.819 326.497 432.799 319.411 434.582 311.738C434.817 310.753 435.192 310.096 436.131 309.58C439.087 307.961 440.331 305.169 440.918 302.048C441.363 299.701 441.41 297.332 440.448 294.751C439.791 295.361 439.322 295.9 438.759 296.276C438.219 296.628 437.562 297.027 436.976 296.98C436.084 296.909 435.943 296.041 435.943 295.267C435.92 291.559 436.342 287.993 437.82 284.52C439.557 280.391 438.266 276.566 435.357 273.492C431.321 269.222 426.863 265.444 421.654 262.628C416.186 259.672 410.391 258.405 404.243 259.343C399.058 260.118 396.641 263.004 396.359 268.213C396.289 269.832 395.96 270.137 394.295 270.207C389.649 270.395 386.95 272.342 386.176 276.331C385.871 277.95 385.754 279.71 385.988 281.329C386.528 285.036 387.349 288.697 388.053 292.381C388.241 293.343 388.358 294.305 388.499 295.267C388.593 296.018 388.429 296.815 387.607 296.933C387.068 297.027 386.364 296.745 385.871 296.416C385.237 296.018 384.768 295.384 384.041 294.657C383.736 295.642 383.384 296.299 383.337 297.003C383.102 299.983 383.384 302.916 384.745 305.661C385.613 307.374 386.81 308.805 388.546 309.65C389.32 310.026 389.649 310.612 389.836 311.457C391.15 317.37 393.239 322.978 396.829 327.929C397.814 329.29 398.964 330.533 400.09 331.753C401.216 332.973 401.31 333.842 400.043 334.897C398.893 335.883 397.673 336.868 396.312 337.502C391.432 339.778 386.481 341.866 381.554 344.072C377.354 345.972 373.2 347.92 369 349.844C368.437 350.102 367.851 350.36 367.264 350.548C366.443 350.806 365.739 350.548 365.41 349.75C365.058 348.906 365.41 348.202 366.232 347.826C370.549 345.832 374.866 343.814 379.207 341.89C383.923 339.801 388.687 337.854 393.379 335.766C394.764 335.156 396.007 334.264 397.368 333.49C397.228 333.208 397.181 333.02 397.063 332.88C391.948 327.272 389.062 320.561 387.232 313.287C387.115 312.794 386.903 312.161 386.504 311.903C382.539 309.298 380.873 305.403 380.474 300.898C380.31 298.974 380.498 296.98 380.826 295.079C381.272 292.639 382.375 291.911 385.003 291.911C384.58 289.94 384.182 288.016 383.783 286.092C383.079 282.831 382.586 279.569 383.173 276.214C384.064 271.286 386.88 268.4 391.831 267.485C392.37 267.485 392.863 267.391 393.403 267.298Z" fill="#1F6563"/>
<path d="M477.944 391C465.531 391.117 455.817 381.708 455.536 369.53C455.231 356.484 465.391 347.099 477.169 346.911C489.652 346.723 499.578 356.555 499.625 368.826C499.671 381.004 489.957 390.929 477.944 391ZM496.621 368.967C496.598 358.361 488.104 349.867 477.521 349.914C466.892 349.961 458.516 358.455 458.539 369.178C458.539 379.526 467.174 388.02 477.639 387.996C488.151 387.973 496.668 379.455 496.621 368.967Z" fill="black"/>
<path d="M348.047 343.814C348.047 339.896 348.047 336 348.047 332.082C348.047 331.73 347.93 331.261 348.117 331.05C348.516 330.58 349.056 329.97 349.525 329.97C349.994 329.97 350.511 330.627 350.886 331.096C351.05 331.331 350.933 331.777 350.933 332.129C350.933 339.567 350.933 346.982 350.933 354.42C350.933 358.972 352.927 362.327 357.128 364.134C358.395 364.674 359.92 364.861 361.328 364.885C368.766 364.955 376.18 364.908 383.618 364.908C384.017 364.908 384.51 364.791 384.768 364.979C385.214 365.307 385.777 365.847 385.801 366.293C385.801 366.762 385.261 367.278 384.839 367.677C384.674 367.841 384.252 367.747 383.923 367.747C376.251 367.747 368.601 367.771 360.929 367.747C353.655 367.724 348.117 362.186 348.07 354.889C348.023 351.252 348.047 347.545 348.047 343.814Z" fill="#1F6563"/>
<path d="M476.442 262.933C476.442 266.969 476.442 270.981 476.442 275.017C476.442 276.237 475.926 276.941 475.058 276.941C474.096 276.965 473.556 276.284 473.556 274.994C473.556 267.438 473.556 259.906 473.556 252.351C473.556 246.157 469.356 241.91 463.138 241.91C455.7 241.886 448.285 241.91 440.847 241.91C440.542 241.91 440.214 241.933 439.909 241.886C439.087 241.769 438.642 241.276 438.642 240.478C438.642 239.68 439.111 239.164 439.909 239.047C440.261 239 440.613 239.023 440.964 239.023C448.403 239.023 455.817 239.023 463.255 239.023C470.975 239.023 476.466 244.561 476.442 252.281C476.442 255.824 476.442 259.39 476.442 262.933Z" fill="#1F6563"/>
<path d="M372.051 239C375.969 239 379.864 238.977 383.783 239.023C384.299 239.023 384.956 239.094 385.308 239.399C385.636 239.704 385.871 240.408 385.754 240.83C385.636 241.253 385.097 241.698 384.651 241.839C384.041 242.027 383.337 241.91 382.68 241.91C375.523 241.91 368.367 241.933 361.234 241.886C359.052 241.863 356.846 242.262 355.227 243.458C353.397 244.796 351.825 246.696 351.332 249.113C351.121 250.216 350.956 251.342 350.933 252.468C350.91 259.93 350.91 267.391 350.91 274.853C350.91 275.088 350.91 275.322 350.91 275.557C350.839 276.449 350.299 276.941 349.455 276.941C348.563 276.941 348.023 276.449 348.023 275.463C348.023 272.131 348.023 268.823 348.023 265.491C348.023 260.986 348.023 256.504 348.023 251.999C348.047 244.538 353.561 239.047 361.046 239C364.706 239 368.39 239 372.051 239Z" fill="#1F6563"/>
<path d="M446.009 364.932C447.886 364.932 449.764 364.955 451.641 364.932C452.626 364.932 453.354 365.26 453.424 366.339C453.494 367.489 452.626 367.794 451.735 367.794C447.863 367.841 444.015 367.818 440.143 367.818C439.205 367.818 438.665 367.278 438.665 366.363C438.665 365.448 439.205 364.932 440.167 364.932C442.114 364.932 444.062 364.932 446.009 364.932Z" fill="#1F6563"/>
<path d="M473.556 337.197C473.556 335.32 473.579 333.443 473.556 331.565C473.556 330.58 473.955 329.97 474.964 329.9C475.856 329.829 476.442 330.51 476.442 331.589C476.466 335.414 476.466 339.238 476.442 343.063C476.442 344.189 475.902 344.799 474.987 344.799C474.096 344.799 473.58 344.166 473.58 343.039C473.556 341.092 473.556 339.144 473.556 337.197Z" fill="#1F6563"/>
<path d="M476.442 373.566C477.967 371.454 479.375 369.507 480.806 367.536C482.285 365.495 483.786 363.43 485.288 361.388C485.945 360.473 486.907 360.215 487.587 360.708C488.291 361.201 488.362 362.139 487.681 363.078C484.42 367.606 481.135 372.111 477.85 376.616C477.005 377.766 476.067 377.813 475.175 376.71C472.571 373.496 469.989 370.258 467.455 366.996C466.822 366.175 466.939 365.189 467.596 364.697C468.23 364.227 469.215 364.462 469.849 365.236C471.585 367.442 473.321 369.648 475.058 371.853C475.457 372.393 475.879 372.886 476.442 373.566Z" fill="black"/>
</g>
<path d="M72.264 189L78.672 171.12H81.456L87.864 189H85.344L83.88 184.8H76.248L74.784 189H72.264ZM76.992 182.64H83.136L79.728 172.824H80.4L76.992 182.64ZM94.2026 189.288C93.2746 189.288 92.4346 189.072 91.6826 188.64C90.9466 188.208 90.3706 187.608 89.9546 186.84C89.5546 186.056 89.3546 185.16 89.3546 184.152V176.064H91.5866V183.912C91.5866 184.552 91.7146 185.112 91.9706 185.592C92.2426 186.072 92.6106 186.448 93.0746 186.72C93.5546 186.992 94.0986 187.128 94.7066 187.128C95.3146 187.128 95.8506 186.992 96.3146 186.72C96.7946 186.448 97.1626 186.056 97.4186 185.544C97.6906 185.032 97.8266 184.424 97.8266 183.72V176.064H100.083V189H97.8986V186.48L98.2586 186.696C97.9546 187.512 97.4346 188.152 96.6986 188.616C95.9786 189.064 95.1466 189.288 94.2026 189.288ZM108.797 189.144C107.533 189.144 106.557 188.784 105.869 188.064C105.197 187.344 104.861 186.328 104.861 185.016V178.2H102.509V176.064H102.989C103.565 176.064 104.021 175.888 104.357 175.536C104.693 175.184 104.861 174.72 104.861 174.144V173.088H107.093V176.064H109.997V178.2H107.093V184.944C107.093 185.376 107.157 185.752 107.285 186.072C107.429 186.392 107.661 186.648 107.98 186.84C108.301 187.016 108.725 187.104 109.253 187.104C109.365 187.104 109.501 187.096 109.661 187.08C109.837 187.064 109.997 187.048 110.141 187.032V189C109.933 189.048 109.701 189.08 109.445 189.096C109.189 189.128 108.973 189.144 108.797 189.144ZM118.849 189.288C117.601 189.288 116.473 189 115.465 188.424C114.457 187.832 113.657 187.024 113.065 186C112.473 184.976 112.177 183.816 112.177 182.52C112.177 181.224 112.465 180.072 113.041 179.064C113.633 178.056 114.433 177.256 115.441 176.664C116.449 176.072 117.585 175.776 118.849 175.776C120.097 175.776 121.225 176.072 122.233 176.664C123.241 177.24 124.033 178.032 124.609 179.04C125.201 180.048 125.497 181.208 125.497 182.52C125.497 183.832 125.193 185 124.585 186.024C123.977 187.032 123.169 187.832 122.161 188.424C121.169 189 120.065 189.288 118.849 189.288ZM118.849 187.128C119.649 187.128 120.369 186.928 121.009 186.528C121.665 186.128 122.177 185.576 122.545 184.872C122.929 184.168 123.121 183.384 123.121 182.52C123.121 181.64 122.929 180.864 122.545 180.192C122.177 179.504 121.665 178.96 121.009 178.56C120.369 178.144 119.649 177.936 118.849 177.936C118.033 177.936 117.297 178.144 116.641 178.56C116.001 178.96 115.489 179.504 115.105 180.192C114.721 180.864 114.529 181.64 114.529 182.52C114.529 183.384 114.721 184.168 115.105 184.872C115.489 185.576 116.001 186.128 116.641 186.528C117.297 186.928 118.033 187.128 118.849 187.128ZM128.408 189V176.064H130.592V178.704L130.28 178.296C130.6 177.48 131.112 176.856 131.816 176.424C132.52 175.992 133.312 175.776 134.192 175.776C135.2 175.776 136.104 176.056 136.904 176.616C137.72 177.176 138.28 177.912 138.584 178.824L137.96 178.848C138.296 177.84 138.864 177.08 139.664 176.568C140.464 176.04 141.352 175.776 142.328 175.776C143.224 175.776 144.032 175.984 144.752 176.4C145.488 176.816 146.072 177.392 146.504 178.128C146.936 178.864 147.152 179.696 147.152 180.624V189H144.896V181.344C144.896 180.624 144.768 180.016 144.512 179.52C144.256 179.024 143.904 178.64 143.456 178.368C143.024 178.08 142.512 177.936 141.92 177.936C141.344 177.936 140.824 178.08 140.36 178.368C139.912 178.64 139.552 179.032 139.28 179.544C139.024 180.04 138.896 180.64 138.896 181.344V189H136.64V181.344C136.64 180.624 136.512 180.016 136.256 179.52C136 179.024 135.648 178.64 135.2 178.368C134.768 178.08 134.256 177.936 133.664 177.936C133.088 177.936 132.568 178.08 132.104 178.368C131.656 178.64 131.296 179.032 131.024 179.544C130.768 180.04 130.64 180.64 130.64 181.344V189H128.408ZM154.114 189.288C153.266 189.288 152.514 189.136 151.858 188.832C151.218 188.512 150.714 188.08 150.346 187.536C149.978 186.976 149.794 186.336 149.794 185.616C149.794 184.928 149.938 184.312 150.226 183.768C150.53 183.208 150.994 182.736 151.618 182.352C152.258 181.968 153.058 181.696 154.018 181.536L158.818 180.744V182.616L154.522 183.336C153.69 183.48 153.082 183.744 152.698 184.128C152.33 184.512 152.146 184.984 152.146 185.544C152.146 186.072 152.354 186.512 152.77 186.864C153.202 187.216 153.738 187.392 154.378 187.392C155.194 187.392 155.898 187.224 156.49 186.888C157.098 186.536 157.57 186.064 157.906 185.472C158.258 184.88 158.434 184.224 158.434 183.504V180.216C158.434 179.512 158.17 178.944 157.642 178.512C157.13 178.064 156.45 177.84 155.602 177.84C154.866 177.84 154.21 178.032 153.634 178.416C153.074 178.784 152.658 179.28 152.386 179.904L150.442 178.896C150.682 178.304 151.066 177.776 151.594 177.312C152.122 176.832 152.738 176.456 153.442 176.184C154.146 175.912 154.882 175.776 155.65 175.776C156.642 175.776 157.514 175.968 158.266 176.352C159.018 176.72 159.602 177.24 160.018 177.912C160.45 178.568 160.666 179.336 160.666 180.216V189H158.482V186.552L158.89 186.696C158.618 187.208 158.25 187.656 157.786 188.04C157.322 188.424 156.778 188.728 156.154 188.952C155.53 189.176 154.85 189.288 154.114 189.288ZM169.148 189.144C167.884 189.144 166.908 188.784 166.22 188.064C165.548 187.344 165.212 186.328 165.212 185.016V178.2H162.86V176.064H163.34C163.916 176.064 164.372 175.888 164.708 175.536C165.044 175.184 165.212 174.72 165.212 174.144V173.088H167.444V176.064H170.348V178.2H167.444V184.944C167.444 185.376 167.508 185.752 167.636 186.072C167.78 186.392 168.012 186.648 168.332 186.84C168.652 187.016 169.076 187.104 169.604 187.104C169.716 187.104 169.852 187.096 170.012 187.08C170.188 187.064 170.348 187.048 170.492 187.032V189C170.284 189.048 170.052 189.08 169.796 189.096C169.54 189.128 169.324 189.144 169.148 189.144ZM173.408 189V176.064H175.64V189H173.408ZM173.408 174V171.12H175.64V174H173.408ZM185.103 189.288C183.839 189.288 182.711 188.992 181.719 188.4C180.743 187.808 179.975 187 179.415 185.976C178.855 184.952 178.575 183.8 178.575 182.52C178.575 181.224 178.855 180.072 179.415 179.064C179.975 178.056 180.743 177.256 181.719 176.664C182.711 176.072 183.839 175.776 185.103 175.776C185.951 175.776 186.743 175.928 187.479 176.232C188.215 176.536 188.863 176.944 189.423 177.456C189.983 177.968 190.391 178.568 190.647 179.256L188.655 180.216C188.351 179.544 187.887 179 187.263 178.584C186.639 178.152 185.919 177.936 185.103 177.936C184.319 177.936 183.607 178.136 182.967 178.536C182.343 178.936 181.847 179.48 181.479 180.168C181.111 180.856 180.927 181.648 180.927 182.544C180.927 183.408 181.111 184.192 181.479 184.896C181.847 185.584 182.343 186.128 182.967 186.528C183.607 186.928 184.319 187.128 185.103 187.128C185.919 187.128 186.639 186.92 187.263 186.504C187.887 186.072 188.351 185.504 188.655 184.8L190.647 185.808C190.391 186.48 189.983 187.08 189.423 187.608C188.863 188.12 188.215 188.528 187.479 188.832C186.743 189.136 185.951 189.288 185.103 189.288ZM197.192 189.288C196.344 189.288 195.592 189.136 194.936 188.832C194.296 188.512 193.792 188.08 193.424 187.536C193.056 186.976 192.872 186.336 192.872 185.616C192.872 184.928 193.016 184.312 193.304 183.768C193.608 183.208 194.072 182.736 194.696 182.352C195.336 181.968 196.136 181.696 197.096 181.536L201.896 180.744V182.616L197.6 183.336C196.768 183.48 196.16 183.744 195.776 184.128C195.408 184.512 195.224 184.984 195.224 185.544C195.224 186.072 195.432 186.512 195.848 186.864C196.28 187.216 196.816 187.392 197.456 187.392C198.272 187.392 198.976 187.224 199.568 186.888C200.176 186.536 200.648 186.064 200.984 185.472C201.336 184.88 201.512 184.224 201.512 183.504V180.216C201.512 179.512 201.248 178.944 200.72 178.512C200.208 178.064 199.528 177.84 198.68 177.84C197.944 177.84 197.288 178.032 196.712 178.416C196.152 178.784 195.736 179.28 195.464 179.904L193.52 178.896C193.76 178.304 194.144 177.776 194.672 177.312C195.2 176.832 195.816 176.456 196.52 176.184C197.224 175.912 197.96 175.776 198.728 175.776C199.72 175.776 200.592 175.968 201.344 176.352C202.096 176.72 202.68 177.24 203.096 177.912C203.528 178.568 203.744 179.336 203.744 180.216V189H201.56V186.552L201.968 186.696C201.696 187.208 201.328 187.656 200.864 188.04C200.4 188.424 199.856 188.728 199.232 188.952C198.608 189.176 197.928 189.288 197.192 189.288ZM207.205 189V170.832H209.437V189H207.205ZM212.9 189V170.832H215.132V189H212.9ZM219.291 194.28C219.003 194.28 218.715 194.256 218.427 194.208C218.139 194.16 217.867 194.08 217.611 193.968V191.976C217.787 192.008 218.003 192.04 218.259 192.072C218.531 192.12 218.795 192.144 219.051 192.144C219.803 192.144 220.371 191.976 220.755 191.64C221.155 191.32 221.531 190.76 221.883 189.96L222.699 188.016L222.651 189.96L217.131 176.064H219.555L223.851 187.104H223.131L227.403 176.064H229.875L224.043 190.536C223.771 191.224 223.419 191.848 222.987 192.408C222.571 192.984 222.059 193.44 221.451 193.776C220.843 194.112 220.123 194.28 219.291 194.28ZM236.273 189V171.12H247.601V173.28H238.625V179.064H246.761V181.224H238.625V189H236.273ZM250.001 189V176.064H252.233V189H250.001ZM250.001 174V171.12H252.233V174H250.001ZM255.697 189V176.064H257.881V178.584L257.521 178.368C257.841 177.552 258.353 176.92 259.057 176.472C259.777 176.008 260.617 175.776 261.577 175.776C262.505 175.776 263.329 175.984 264.049 176.4C264.785 176.816 265.361 177.392 265.777 178.128C266.209 178.864 266.425 179.696 266.425 180.624V189H264.169V181.344C264.169 180.624 264.041 180.016 263.785 179.52C263.529 179.024 263.161 178.64 262.681 178.368C262.217 178.08 261.681 177.936 261.073 177.936C260.465 177.936 259.921 178.08 259.441 178.368C258.977 178.64 258.609 179.032 258.337 179.544C258.065 180.04 257.929 180.64 257.929 181.344V189H255.697ZM275.499 189.288C274.283 189.288 273.187 188.992 272.211 188.4C271.251 187.808 270.491 187 269.931 185.976C269.371 184.952 269.091 183.808 269.091 182.544C269.091 181.248 269.371 180.096 269.931 179.088C270.491 178.064 271.251 177.256 272.211 176.664C273.187 176.072 274.283 175.776 275.499 175.776C276.571 175.776 277.523 176.008 278.355 176.472C279.187 176.92 279.843 177.528 280.323 178.296L279.963 178.848V170.832H282.219V189H280.035V186.24L280.323 186.624C279.875 187.472 279.219 188.128 278.355 188.592C277.507 189.056 276.555 189.288 275.499 189.288ZM275.691 187.128C276.507 187.128 277.235 186.928 277.875 186.528C278.515 186.128 279.019 185.584 279.387 184.896C279.771 184.192 279.963 183.408 279.963 182.544C279.963 181.664 279.771 180.88 279.387 180.192C279.019 179.488 278.515 178.936 277.875 178.536C277.235 178.136 276.507 177.936 275.691 177.936C274.891 177.936 274.163 178.144 273.507 178.56C272.867 178.96 272.363 179.504 271.995 180.192C271.627 180.864 271.443 181.648 271.443 182.544C271.443 183.408 271.627 184.192 271.995 184.896C272.363 185.584 272.867 186.128 273.507 186.528C274.147 186.928 274.875 187.128 275.691 187.128ZM294.55 189V180.816L288.358 171.12H291.022L296.206 179.256H295.246L300.406 171.12H303.07L296.926 180.816V189H294.55ZM308.88 189.288C307.632 189.288 306.504 189 305.496 188.424C304.488 187.832 303.688 187.024 303.096 186C302.504 184.976 302.208 183.816 302.208 182.52C302.208 181.224 302.496 180.072 303.072 179.064C303.664 178.056 304.464 177.256 305.472 176.664C306.48 176.072 307.616 175.776 308.88 175.776C310.128 175.776 311.256 176.072 312.264 176.664C313.272 177.24 314.064 178.032 314.64 179.04C315.232 180.048 315.528 181.208 315.528 182.52C315.528 183.832 315.224 185 314.616 186.024C314.008 187.032 313.2 187.832 312.192 188.424C311.2 189 310.096 189.288 308.88 189.288ZM308.88 187.128C309.68 187.128 310.4 186.928 311.04 186.528C311.696 186.128 312.208 185.576 312.576 184.872C312.96 184.168 313.152 183.384 313.152 182.52C313.152 181.64 312.96 180.864 312.576 180.192C312.208 179.504 311.696 178.96 311.04 178.56C310.4 178.144 309.68 177.936 308.88 177.936C308.064 177.936 307.328 178.144 306.672 178.56C306.032 178.96 305.52 179.504 305.136 180.192C304.752 180.864 304.56 181.64 304.56 182.52C304.56 183.384 304.752 184.168 305.136 184.872C305.52 185.576 306.032 186.128 306.672 186.528C307.328 186.928 308.064 187.128 308.88 187.128ZM323.023 189.288C322.095 189.288 321.255 189.072 320.503 188.64C319.767 188.208 319.191 187.608 318.775 186.84C318.375 186.056 318.175 185.16 318.175 184.152V176.064H320.407V183.912C320.407 184.552 320.535 185.112 320.791 185.592C321.063 186.072 321.431 186.448 321.895 186.72C322.375 186.992 322.919 187.128 323.527 187.128C324.135 187.128 324.671 186.992 325.135 186.72C325.615 186.448 325.983 186.056 326.239 185.544C326.511 185.032 326.647 184.424 326.647 183.72V176.064H328.903V189H326.719V186.48L327.079 186.696C326.775 187.512 326.255 188.152 325.519 188.616C324.799 189.064 323.967 189.288 323.023 189.288ZM332.361 189V176.064H334.545V178.44L334.305 178.104C334.609 177.368 335.073 176.824 335.697 176.472C336.321 176.104 337.081 175.92 337.977 175.92H338.769V178.032H337.641C336.729 178.032 335.993 178.32 335.433 178.896C334.873 179.456 334.593 180.256 334.593 181.296V189H332.361ZM345.164 189V171.12H351.476C352.66 171.12 353.7 171.344 354.596 171.792C355.492 172.24 356.188 172.88 356.684 173.712C357.196 174.544 357.452 175.52 357.452 176.64C357.452 177.76 357.196 178.736 356.684 179.568C356.188 180.384 355.492 181.024 354.596 181.488C353.716 181.936 352.676 182.16 351.476 182.16H347.516V189H345.164ZM347.516 180H351.548C352.268 180 352.892 179.864 353.42 179.592C353.948 179.32 354.356 178.928 354.644 178.416C354.932 177.904 355.076 177.312 355.076 176.64C355.076 175.952 354.932 175.36 354.644 174.864C354.356 174.352 353.948 173.96 353.42 173.688C352.892 173.416 352.268 173.28 351.548 173.28H347.516V180ZM360.369 189V170.832H362.601V178.584L362.193 178.368C362.513 177.552 363.025 176.92 363.729 176.472C364.449 176.008 365.289 175.776 366.249 175.776C367.177 175.776 368.001 175.984 368.721 176.4C369.457 176.816 370.033 177.392 370.449 178.128C370.881 178.864 371.097 179.696 371.097 180.624V189H368.841V181.344C368.841 180.624 368.705 180.016 368.433 179.52C368.177 179.024 367.817 178.64 367.353 178.368C366.889 178.08 366.353 177.936 365.745 177.936C365.153 177.936 364.617 178.08 364.137 178.368C363.657 178.64 363.281 179.032 363.009 179.544C362.737 180.04 362.601 180.64 362.601 181.344V189H360.369ZM380.435 189.288C379.187 189.288 378.059 189 377.051 188.424C376.043 187.832 375.243 187.024 374.651 186C374.059 184.976 373.763 183.816 373.763 182.52C373.763 181.224 374.051 180.072 374.627 179.064C375.219 178.056 376.019 177.256 377.027 176.664C378.035 176.072 379.171 175.776 380.435 175.776C381.683 175.776 382.811 176.072 383.819 176.664C384.827 177.24 385.619 178.032 386.195 179.04C386.787 180.048 387.083 181.208 387.083 182.52C387.083 183.832 386.779 185 386.171 186.024C385.563 187.032 384.755 187.832 383.747 188.424C382.755 189 381.651 189.288 380.435 189.288ZM380.435 187.128C381.235 187.128 381.955 186.928 382.595 186.528C383.251 186.128 383.763 185.576 384.131 184.872C384.515 184.168 384.707 183.384 384.707 182.52C384.707 181.64 384.515 180.864 384.131 180.192C383.763 179.504 383.251 178.96 382.595 178.56C381.955 178.144 381.235 177.936 380.435 177.936C379.619 177.936 378.883 178.144 378.227 178.56C377.587 178.96 377.075 179.504 376.691 180.192C376.307 180.864 376.115 181.64 376.115 182.52C376.115 183.384 376.307 184.168 376.691 184.872C377.075 185.576 377.587 186.128 378.227 186.528C378.883 186.928 379.619 187.128 380.435 187.128ZM395.015 189.144C393.751 189.144 392.775 188.784 392.087 188.064C391.415 187.344 391.079 186.328 391.079 185.016V178.2H388.727V176.064H389.207C389.783 176.064 390.239 175.888 390.575 175.536C390.911 175.184 391.079 174.72 391.079 174.144V173.088H393.311V176.064H396.215V178.2H393.311V184.944C393.311 185.376 393.375 185.752 393.503 186.072C393.647 186.392 393.879 186.648 394.199 186.84C394.519 187.016 394.943 187.104 395.471 187.104C395.583 187.104 395.719 187.096 395.879 187.08C396.055 187.064 396.215 187.048 396.359 187.032V189C396.151 189.048 395.919 189.08 395.663 189.096C395.407 189.128 395.191 189.144 395.015 189.144ZM405.067 189.288C403.819 189.288 402.691 189 401.683 188.424C400.675 187.832 399.875 187.024 399.283 186C398.691 184.976 398.395 183.816 398.395 182.52C398.395 181.224 398.683 180.072 399.259 179.064C399.851 178.056 400.651 177.256 401.659 176.664C402.667 176.072 403.803 175.776 405.067 175.776C406.315 175.776 407.443 176.072 408.451 176.664C409.459 177.24 410.251 178.032 410.827 179.04C411.419 180.048 411.715 181.208 411.715 182.52C411.715 183.832 411.411 185 410.803 186.024C410.195 187.032 409.387 187.832 408.379 188.424C407.387 189 406.283 189.288 405.067 189.288ZM405.067 187.128C405.867 187.128 406.587 186.928 407.227 186.528C407.883 186.128 408.395 185.576 408.763 184.872C409.147 184.168 409.339 183.384 409.339 182.52C409.339 181.64 409.147 180.864 408.763 180.192C408.395 179.504 407.883 178.96 407.227 178.56C406.587 178.144 405.867 177.936 405.067 177.936C404.251 177.936 403.515 178.144 402.859 178.56C402.219 178.96 401.707 179.504 401.323 180.192C400.939 180.864 400.747 181.64 400.747 182.52C400.747 183.384 400.939 184.168 401.323 184.872C401.707 185.576 402.219 186.128 402.859 186.528C403.515 186.928 404.251 187.128 405.067 187.128ZM419.258 189.288C417.962 189.288 416.834 188.968 415.874 188.328C414.914 187.688 414.234 186.824 413.834 185.736L415.61 184.872C415.978 185.64 416.482 186.248 417.122 186.696C417.762 187.144 418.474 187.368 419.258 187.368C419.962 187.368 420.546 187.2 421.01 186.864C421.474 186.528 421.706 186.088 421.706 185.544C421.706 185.16 421.594 184.856 421.37 184.632C421.162 184.392 420.906 184.208 420.602 184.08C420.298 183.936 420.018 183.832 419.762 183.768L417.818 183.216C416.65 182.88 415.794 182.4 415.25 181.776C414.722 181.152 414.458 180.424 414.458 179.592C414.458 178.824 414.65 178.16 415.034 177.6C415.434 177.024 415.97 176.576 416.642 176.256C417.33 175.936 418.098 175.776 418.946 175.776C420.082 175.776 421.098 176.064 421.994 176.64C422.906 177.216 423.554 178.024 423.938 179.064L422.114 179.904C421.826 179.232 421.394 178.704 420.818 178.32C420.242 177.92 419.594 177.72 418.874 177.72C418.218 177.72 417.698 177.888 417.314 178.224C416.93 178.544 416.738 178.952 416.738 179.448C416.738 179.816 416.834 180.12 417.026 180.36C417.218 180.584 417.45 180.76 417.722 180.888C417.994 181 418.258 181.096 418.514 181.176L420.626 181.8C421.682 182.104 422.498 182.576 423.074 183.216C423.666 183.856 423.962 184.624 423.962 185.52C423.962 186.24 423.762 186.888 423.362 187.464C422.962 188.04 422.41 188.488 421.706 188.808C421.002 189.128 420.186 189.288 419.258 189.288ZM434.585 189L429.569 171.12H432.041L436.241 186.864H435.665L440.033 171.12H442.505L446.849 186.864H446.249L450.473 171.12H452.945L447.929 189H445.313L440.945 173.328H441.569L437.201 189H434.585ZM454.939 189V176.064H457.171V189H454.939ZM454.939 174V171.12H457.171V174H454.939ZM465.89 189.144C464.626 189.144 463.65 188.784 462.962 188.064C462.29 187.344 461.954 186.328 461.954 185.016V178.2H459.602V176.064H460.082C460.658 176.064 461.114 175.888 461.45 175.536C461.786 175.184 461.954 174.72 461.954 174.144V173.088H464.186V176.064H467.09V178.2H464.186V184.944C464.186 185.376 464.25 185.752 464.378 186.072C464.522 186.392 464.754 186.648 465.074 186.84C465.394 187.016 465.818 187.104 466.346 187.104C466.458 187.104 466.594 187.096 466.754 187.08C466.93 187.064 467.09 187.048 467.234 187.032V189C467.026 189.048 466.794 189.08 466.538 189.096C466.282 189.128 466.066 189.144 465.89 189.144ZM470.15 189V170.832H472.382V178.584L471.974 178.368C472.294 177.552 472.806 176.92 473.51 176.472C474.23 176.008 475.07 175.776 476.03 175.776C476.958 175.776 477.782 175.984 478.502 176.4C479.238 176.816 479.814 177.392 480.23 178.128C480.662 178.864 480.878 179.696 480.878 180.624V189H478.622V181.344C478.622 180.624 478.486 180.016 478.214 179.52C477.958 179.024 477.598 178.64 477.134 178.368C476.67 178.08 476.134 177.936 475.526 177.936C474.934 177.936 474.398 178.08 473.918 178.368C473.438 178.64 473.062 179.032 472.79 179.544C472.518 180.04 472.382 180.64 472.382 181.344V189H470.15ZM80.136 218.288C79 218.288 77.96 218.08 77.016 217.664C76.072 217.232 75.272 216.648 74.616 215.912C73.96 215.176 73.488 214.352 73.2 213.44L75.24 212.6C75.672 213.752 76.312 214.64 77.16 215.264C78.024 215.872 79.032 216.176 80.184 216.176C80.888 216.176 81.504 216.064 82.032 215.84C82.56 215.616 82.968 215.304 83.256 214.904C83.56 214.488 83.712 214.008 83.712 213.464C83.712 212.712 83.496 212.12 83.064 211.688C82.648 211.24 82.032 210.904 81.216 210.68L77.928 209.672C76.632 209.272 75.64 208.64 74.952 207.776C74.264 206.912 73.92 205.92 73.92 204.8C73.92 203.824 74.152 202.968 74.616 202.232C75.096 201.48 75.752 200.896 76.584 200.48C77.432 200.048 78.392 199.832 79.464 199.832C80.536 199.832 81.504 200.024 82.368 200.408C83.248 200.792 83.992 201.312 84.6 201.968C85.208 202.608 85.656 203.344 85.944 204.176L83.928 205.016C83.544 204.008 82.968 203.248 82.2 202.736C81.432 202.208 80.528 201.944 79.488 201.944C78.848 201.944 78.28 202.056 77.784 202.28C77.304 202.488 76.928 202.8 76.656 203.216C76.4 203.616 76.272 204.096 76.272 204.656C76.272 205.312 76.48 205.896 76.896 206.408C77.312 206.92 77.944 207.312 78.792 207.584L81.792 208.472C83.2 208.904 84.264 209.52 84.984 210.32C85.704 211.12 86.064 212.112 86.064 213.296C86.064 214.272 85.808 215.136 85.296 215.888C84.8 216.64 84.104 217.232 83.208 217.664C82.328 218.08 81.304 218.288 80.136 218.288ZM89.2436 218V205.064H91.4276V207.704L91.1156 207.296C91.4356 206.48 91.9476 205.856 92.6516 205.424C93.3556 204.992 94.1476 204.776 95.0276 204.776C96.0356 204.776 96.9396 205.056 97.7396 205.616C98.5556 206.176 99.1156 206.912 99.4196 207.824L98.7956 207.848C99.1316 206.84 99.6996 206.08 100.5 205.568C101.3 205.04 102.188 204.776 103.164 204.776C104.06 204.776 104.868 204.984 105.588 205.4C106.324 205.816 106.908 206.392 107.34 207.128C107.772 207.864 107.988 208.696 107.988 209.624V218H105.732V210.344C105.732 209.624 105.604 209.016 105.348 208.52C105.092 208.024 104.74 207.64 104.292 207.368C103.86 207.08 103.348 206.936 102.756 206.936C102.18 206.936 101.66 207.08 101.196 207.368C100.748 207.64 100.388 208.032 100.116 208.544C99.8596 209.04 99.7316 209.64 99.7316 210.344V218H97.4756V210.344C97.4756 209.624 97.3476 209.016 97.0916 208.52C96.8356 208.024 96.4836 207.64 96.0356 207.368C95.6036 207.08 95.0916 206.936 94.4996 206.936C93.9236 206.936 93.4036 207.08 92.9396 207.368C92.4916 207.64 92.1316 208.032 91.8596 208.544C91.6036 209.04 91.4756 209.64 91.4756 210.344V218H89.2436ZM114.95 218.288C114.102 218.288 113.35 218.136 112.694 217.832C112.054 217.512 111.55 217.08 111.182 216.536C110.814 215.976 110.63 215.336 110.63 214.616C110.63 213.928 110.774 213.312 111.062 212.768C111.366 212.208 111.83 211.736 112.454 211.352C113.094 210.968 113.894 210.696 114.854 210.536L119.654 209.744V211.616L115.358 212.336C114.526 212.48 113.918 212.744 113.534 213.128C113.166 213.512 112.982 213.984 112.982 214.544C112.982 215.072 113.19 215.512 113.606 215.864C114.038 216.216 114.574 216.392 115.214 216.392C116.03 216.392 116.734 216.224 117.326 215.888C117.934 215.536 118.406 215.064 118.742 214.472C119.094 213.88 119.27 213.224 119.27 212.504V209.216C119.27 208.512 119.006 207.944 118.478 207.512C117.966 207.064 117.286 206.84 116.438 206.84C115.702 206.84 115.046 207.032 114.47 207.416C113.91 207.784 113.494 208.28 113.222 208.904L111.278 207.896C111.518 207.304 111.902 206.776 112.43 206.312C112.958 205.832 113.574 205.456 114.278 205.184C114.982 204.912 115.718 204.776 116.486 204.776C117.478 204.776 118.35 204.968 119.102 205.352C119.854 205.72 120.438 206.24 120.854 206.912C121.286 207.568 121.502 208.336 121.502 209.216V218H119.318V215.552L119.726 215.696C119.454 216.208 119.086 216.656 118.622 217.04C118.158 217.424 117.614 217.728 116.99 217.952C116.366 218.176 115.686 218.288 114.95 218.288ZM124.962 218V205.064H127.146V207.44L126.906 207.104C127.21 206.368 127.674 205.824 128.298 205.472C128.922 205.104 129.682 204.92 130.578 204.92H131.37V207.032H130.242C129.33 207.032 128.594 207.32 128.034 207.896C127.474 208.456 127.194 209.256 127.194 210.296V218H124.962ZM138.726 218.144C137.462 218.144 136.486 217.784 135.798 217.064C135.126 216.344 134.79 215.328 134.79 214.016V207.2H132.438V205.064H132.918C133.494 205.064 133.95 204.888 134.286 204.536C134.622 204.184 134.79 203.72 134.79 203.144V202.088H137.022V205.064H139.926V207.2H137.022V213.944C137.022 214.376 137.086 214.752 137.214 215.072C137.358 215.392 137.59 215.648 137.91 215.84C138.23 216.016 138.654 216.104 139.182 216.104C139.294 216.104 139.43 216.096 139.59 216.08C139.766 216.064 139.926 216.048 140.07 216.032V218C139.862 218.048 139.63 218.08 139.374 218.096C139.118 218.128 138.902 218.144 138.726 218.144ZM147.398 218V200.12H158.726V202.28H149.75V208.064H157.886V210.224H149.75V218H147.398ZM164.262 218.288C163.414 218.288 162.662 218.136 162.006 217.832C161.366 217.512 160.862 217.08 160.494 216.536C160.126 215.976 159.942 215.336 159.942 214.616C159.942 213.928 160.086 213.312 160.374 212.768C160.678 212.208 161.142 211.736 161.766 211.352C162.406 210.968 163.206 210.696 164.166 210.536L168.966 209.744V211.616L164.67 212.336C163.838 212.48 163.23 212.744 162.846 213.128C162.478 213.512 162.294 213.984 162.294 214.544C162.294 215.072 162.502 215.512 162.918 215.864C163.35 216.216 163.886 216.392 164.526 216.392C165.342 216.392 166.046 216.224 166.638 215.888C167.246 215.536 167.718 215.064 168.054 214.472C168.406 213.88 168.582 213.224 168.582 212.504V209.216C168.582 208.512 168.318 207.944 167.79 207.512C167.278 207.064 166.598 206.84 165.75 206.84C165.014 206.84 164.358 207.032 163.782 207.416C163.222 207.784 162.806 208.28 162.534 208.904L160.59 207.896C160.83 207.304 161.214 206.776 161.742 206.312C162.27 205.832 162.886 205.456 163.59 205.184C164.294 204.912 165.03 204.776 165.798 204.776C166.79 204.776 167.662 204.968 168.414 205.352C169.166 205.72 169.75 206.24 170.166 206.912C170.598 207.568 170.814 208.336 170.814 209.216V218H168.63V215.552L169.038 215.696C168.766 216.208 168.398 216.656 167.934 217.04C167.47 217.424 166.926 217.728 166.302 217.952C165.678 218.176 164.998 218.288 164.262 218.288ZM180.275 218.288C179.011 218.288 177.883 217.992 176.891 217.4C175.915 216.808 175.147 216 174.587 214.976C174.027 213.952 173.747 212.8 173.747 211.52C173.747 210.224 174.027 209.072 174.587 208.064C175.147 207.056 175.915 206.256 176.891 205.664C177.883 205.072 179.011 204.776 180.275 204.776C181.123 204.776 181.915 204.928 182.651 205.232C183.387 205.536 184.035 205.944 184.595 206.456C185.155 206.968 185.563 207.568 185.819 208.256L183.827 209.216C183.523 208.544 183.059 208 182.435 207.584C181.811 207.152 181.091 206.936 180.275 206.936C179.491 206.936 178.779 207.136 178.139 207.536C177.515 207.936 177.019 208.48 176.651 209.168C176.283 209.856 176.099 210.648 176.099 211.544C176.099 212.408 176.283 213.192 176.651 213.896C177.019 214.584 177.515 215.128 178.139 215.528C178.779 215.928 179.491 216.128 180.275 216.128C181.091 216.128 181.811 215.92 182.435 215.504C183.059 215.072 183.523 214.504 183.827 213.8L185.819 214.808C185.563 215.48 185.155 216.08 184.595 216.608C184.035 217.12 183.387 217.528 182.651 217.832C181.915 218.136 181.123 218.288 180.275 218.288ZM188.736 218V205.064H190.968V218H188.736ZM188.736 203V200.12H190.968V203H188.736ZM198.223 218.288C197.375 218.288 196.623 218.136 195.967 217.832C195.327 217.512 194.823 217.08 194.455 216.536C194.087 215.976 193.903 215.336 193.903 214.616C193.903 213.928 194.047 213.312 194.335 212.768C194.639 212.208 195.103 211.736 195.727 211.352C196.367 210.968 197.167 210.696 198.127 210.536L202.927 209.744V211.616L198.631 212.336C197.799 212.48 197.191 212.744 196.807 213.128C196.439 213.512 196.255 213.984 196.255 214.544C196.255 215.072 196.463 215.512 196.879 215.864C197.311 216.216 197.847 216.392 198.487 216.392C199.303 216.392 200.007 216.224 200.599 215.888C201.207 215.536 201.679 215.064 202.015 214.472C202.367 213.88 202.543 213.224 202.543 212.504V209.216C202.543 208.512 202.279 207.944 201.751 207.512C201.239 207.064 200.559 206.84 199.711 206.84C198.975 206.84 198.319 207.032 197.743 207.416C197.183 207.784 196.767 208.28 196.495 208.904L194.551 207.896C194.791 207.304 195.175 206.776 195.703 206.312C196.231 205.832 196.847 205.456 197.551 205.184C198.255 204.912 198.991 204.776 199.759 204.776C200.751 204.776 201.623 204.968 202.375 205.352C203.127 205.72 203.711 206.24 204.127 206.912C204.559 207.568 204.775 208.336 204.775 209.216V218H202.591V215.552L202.999 215.696C202.727 216.208 202.359 216.656 201.895 217.04C201.431 217.424 200.887 217.728 200.263 217.952C199.639 218.176 198.959 218.288 198.223 218.288ZM208.236 218V199.832H210.468V218H208.236ZM218.344 218V200.12H224.656C225.84 200.12 226.88 200.344 227.776 200.792C228.672 201.24 229.368 201.88 229.864 202.712C230.376 203.544 230.632 204.52 230.632 205.64C230.632 206.904 230.312 207.976 229.672 208.856C229.032 209.736 228.168 210.368 227.08 210.752L231.232 218H228.496L224.128 210.248L225.688 211.16H220.696V218H218.344ZM220.696 209H224.728C225.432 209 226.048 208.864 226.576 208.592C227.104 208.32 227.512 207.928 227.8 207.416C228.104 206.904 228.256 206.312 228.256 205.64C228.256 204.952 228.104 204.36 227.8 203.864C227.512 203.352 227.104 202.96 226.576 202.688C226.048 202.416 225.432 202.28 224.728 202.28H220.696V209ZM238.868 218.288C237.62 218.288 236.508 217.992 235.532 217.4C234.556 216.808 233.788 216 233.228 214.976C232.668 213.936 232.388 212.776 232.388 211.496C232.388 210.2 232.66 209.048 233.204 208.04C233.764 207.032 234.516 206.24 235.46 205.664C236.42 205.072 237.492 204.776 238.676 204.776C239.636 204.776 240.484 204.952 241.22 205.304C241.972 205.64 242.604 206.104 243.116 206.696C243.644 207.272 244.044 207.936 244.316 208.688C244.604 209.424 244.747 210.192 244.747 210.992C244.747 211.168 244.732 211.368 244.7 211.592C244.684 211.8 244.66 212 244.628 212.192H234.02V210.272H243.332L242.276 211.136C242.42 210.304 242.34 209.56 242.036 208.904C241.732 208.248 241.284 207.728 240.692 207.344C240.1 206.96 239.428 206.768 238.676 206.768C237.924 206.768 237.236 206.96 236.612 207.344C235.988 207.728 235.5 208.28 235.148 209C234.812 209.704 234.676 210.544 234.74 211.52C234.676 212.464 234.82 213.296 235.172 214.016C235.54 214.72 236.052 215.272 236.708 215.672C237.38 216.056 238.108 216.248 238.892 216.248C239.756 216.248 240.484 216.048 241.076 215.648C241.668 215.248 242.148 214.736 242.516 214.112L244.388 215.072C244.132 215.664 243.732 216.208 243.188 216.704C242.66 217.184 242.028 217.568 241.292 217.856C240.572 218.144 239.764 218.288 238.868 218.288ZM253.658 218.288C252.394 218.288 251.266 217.992 250.274 217.4C249.298 216.808 248.53 216 247.97 214.976C247.41 213.952 247.13 212.8 247.13 211.52C247.13 210.224 247.41 209.072 247.97 208.064C248.53 207.056 249.298 206.256 250.274 205.664C251.266 205.072 252.394 204.776 253.658 204.776C254.506 204.776 255.298 204.928 256.034 205.232C256.77 205.536 257.418 205.944 257.978 206.456C258.538 206.968 258.946 207.568 259.202 208.256L257.21 209.216C256.906 208.544 256.442 208 255.818 207.584C255.194 207.152 254.474 206.936 253.658 206.936C252.874 206.936 252.162 207.136 251.522 207.536C250.898 207.936 250.402 208.48 250.034 209.168C249.666 209.856 249.482 210.648 249.482 211.544C249.482 212.408 249.666 213.192 250.034 213.896C250.402 214.584 250.898 215.128 251.522 215.528C252.162 215.928 252.874 216.128 253.658 216.128C254.474 216.128 255.194 215.92 255.818 215.504C256.442 215.072 256.906 214.504 257.21 213.8L259.202 214.808C258.946 215.48 258.538 216.08 257.978 216.608C257.418 217.12 256.77 217.528 256.034 217.832C255.298 218.136 254.506 218.288 253.658 218.288ZM268.263 218.288C267.015 218.288 265.887 218 264.879 217.424C263.871 216.832 263.071 216.024 262.479 215C261.887 213.976 261.591 212.816 261.591 211.52C261.591 210.224 261.879 209.072 262.455 208.064C263.047 207.056 263.847 206.256 264.855 205.664C265.863 205.072 266.999 204.776 268.263 204.776C269.511 204.776 270.639 205.072 271.647 205.664C272.655 206.24 273.447 207.032 274.023 208.04C274.615 209.048 274.911 210.208 274.911 211.52C274.911 212.832 274.607 214 273.999 215.024C273.391 216.032 272.583 216.832 271.575 217.424C270.583 218 269.479 218.288 268.263 218.288ZM268.263 216.128C269.063 216.128 269.783 215.928 270.423 215.528C271.079 215.128 271.591 214.576 271.959 213.872C272.343 213.168 272.535 212.384 272.535 211.52C272.535 210.64 272.343 209.864 271.959 209.192C271.591 208.504 271.079 207.96 270.423 207.56C269.783 207.144 269.063 206.936 268.263 206.936C267.447 206.936 266.711 207.144 266.055 207.56C265.415 207.96 264.903 208.504 264.519 209.192C264.135 209.864 263.943 210.64 263.943 211.52C263.943 212.384 264.135 213.168 264.519 213.872C264.903 214.576 265.415 215.128 266.055 215.528C266.711 215.928 267.447 216.128 268.263 216.128ZM283.99 223.28C283.078 223.28 282.23 223.136 281.446 222.848C280.678 222.56 280.014 222.16 279.454 221.648C278.91 221.152 278.494 220.568 278.206 219.896L280.294 218.936C280.518 219.544 280.942 220.056 281.566 220.472C282.206 220.904 283.006 221.12 283.966 221.12C284.702 221.12 285.366 220.976 285.958 220.688C286.566 220.416 287.046 220 287.398 219.44C287.75 218.896 287.926 218.232 287.926 217.448V214.544L288.334 214.976C287.886 215.856 287.238 216.528 286.39 216.992C285.558 217.456 284.638 217.688 283.63 217.688C282.414 217.688 281.326 217.408 280.366 216.848C279.406 216.272 278.654 215.496 278.11 214.52C277.566 213.528 277.294 212.432 277.294 211.232C277.294 210.016 277.566 208.92 278.11 207.944C278.654 206.968 279.398 206.2 280.342 205.64C281.302 205.064 282.39 204.776 283.606 204.776C284.614 204.776 285.526 205.008 286.342 205.472C287.174 205.92 287.838 206.544 288.334 207.344L287.998 207.944V205.064H290.182V217.448C290.182 218.568 289.918 219.568 289.39 220.448C288.862 221.328 288.126 222.016 287.182 222.512C286.254 223.024 285.19 223.28 283.99 223.28ZM283.822 215.528C284.59 215.528 285.278 215.336 285.886 214.952C286.51 214.568 287.006 214.056 287.374 213.416C287.742 212.76 287.926 212.032 287.926 211.232C287.926 210.448 287.742 209.728 287.374 209.072C287.006 208.416 286.51 207.896 285.886 207.512C285.278 207.128 284.59 206.936 283.822 206.936C283.038 206.936 282.326 207.128 281.686 207.512C281.046 207.896 280.542 208.416 280.174 209.072C279.822 209.712 279.646 210.432 279.646 211.232C279.646 212.032 279.822 212.76 280.174 213.416C280.542 214.056 281.038 214.568 281.662 214.952C282.302 215.336 283.022 215.528 283.822 215.528ZM293.642 218V205.064H295.826V207.584L295.466 207.368C295.786 206.552 296.298 205.92 297.002 205.472C297.722 205.008 298.562 204.776 299.522 204.776C300.45 204.776 301.274 204.984 301.994 205.4C302.73 205.816 303.306 206.392 303.722 207.128C304.154 207.864 304.37 208.696 304.37 209.624V218H302.114V210.344C302.114 209.624 301.986 209.016 301.73 208.52C301.474 208.024 301.106 207.64 300.626 207.368C300.162 207.08 299.626 206.936 299.018 206.936C298.41 206.936 297.866 207.08 297.386 207.368C296.922 207.64 296.554 208.032 296.282 208.544C296.01 209.04 295.874 209.64 295.874 210.344V218H293.642ZM307.564 218V205.064H309.796V218H307.564ZM307.564 203V200.12H309.796V203H307.564ZM318.515 218.144C317.251 218.144 316.275 217.784 315.587 217.064C314.915 216.344 314.579 215.328 314.579 214.016V207.2H312.227V205.064H312.707C313.283 205.064 313.739 204.888 314.075 204.536C314.411 204.184 314.579 203.72 314.579 203.144V202.088H316.811V205.064H319.715V207.2H316.811V213.944C316.811 214.376 316.875 214.752 317.003 215.072C317.147 215.392 317.379 215.648 317.699 215.84C318.019 216.016 318.443 216.104 318.971 216.104C319.083 216.104 319.219 216.096 319.379 216.08C319.555 216.064 319.715 216.048 319.859 216.032V218C319.651 218.048 319.419 218.08 319.163 218.096C318.907 218.128 318.691 218.144 318.515 218.144ZM322.775 218V205.064H325.007V218H322.775ZM322.775 203V200.12H325.007V203H322.775ZM334.614 218.288C333.366 218.288 332.238 218 331.23 217.424C330.222 216.832 329.422 216.024 328.83 215C328.238 213.976 327.942 212.816 327.942 211.52C327.942 210.224 328.23 209.072 328.806 208.064C329.398 207.056 330.198 206.256 331.206 205.664C332.214 205.072 333.35 204.776 334.614 204.776C335.862 204.776 336.99 205.072 337.998 205.664C339.006 206.24 339.798 207.032 340.374 208.04C340.966 209.048 341.262 210.208 341.262 211.52C341.262 212.832 340.958 214 340.35 215.024C339.742 216.032 338.934 216.832 337.926 217.424C336.934 218 335.83 218.288 334.614 218.288ZM334.614 216.128C335.414 216.128 336.134 215.928 336.774 215.528C337.43 215.128 337.942 214.576 338.31 213.872C338.694 213.168 338.886 212.384 338.886 211.52C338.886 210.64 338.694 209.864 338.31 209.192C337.942 208.504 337.43 207.96 336.774 207.56C336.134 207.144 335.414 206.936 334.614 206.936C333.798 206.936 333.062 207.144 332.406 207.56C331.766 207.96 331.254 208.504 330.87 209.192C330.486 209.864 330.294 210.64 330.294 211.52C330.294 212.384 330.486 213.168 330.87 213.872C331.254 214.576 331.766 215.128 332.406 215.528C333.062 215.928 333.798 216.128 334.614 216.128ZM344.173 218V205.064H346.357V207.584L345.997 207.368C346.317 206.552 346.829 205.92 347.533 205.472C348.253 205.008 349.093 204.776 350.053 204.776C350.981 204.776 351.805 204.984 352.525 205.4C353.261 205.816 353.837 206.392 354.253 207.128C354.685 207.864 354.901 208.696 354.901 209.624V218H352.645V210.344C352.645 209.624 352.517 209.016 352.261 208.52C352.005 208.024 351.637 207.64 351.157 207.368C350.693 207.08 350.157 206.936 349.549 206.936C348.941 206.936 348.397 207.08 347.917 207.368C347.453 207.64 347.085 208.032 346.813 208.544C346.541 209.04 346.405 209.64 346.405 210.344V218H344.173ZM358.263 212.552V210.512H376.743V212.552H358.263ZM380.601 218V200.12H382.569L392.841 214.568L391.953 214.664V200.12H394.329V218H392.361L382.137 203.456L382.953 203.36V218H380.601ZM404.2 218.288C402.952 218.288 401.824 218 400.816 217.424C399.808 216.832 399.008 216.024 398.416 215C397.824 213.976 397.528 212.816 397.528 211.52C397.528 210.224 397.816 209.072 398.392 208.064C398.984 207.056 399.784 206.256 400.792 205.664C401.8 205.072 402.936 204.776 404.2 204.776C405.448 204.776 406.576 205.072 407.584 205.664C408.592 206.24 409.384 207.032 409.96 208.04C410.552 209.048 410.848 210.208 410.848 211.52C410.848 212.832 410.544 214 409.936 215.024C409.328 216.032 408.52 216.832 407.512 217.424C406.52 218 405.416 218.288 404.2 218.288ZM404.2 216.128C405 216.128 405.72 215.928 406.36 215.528C407.016 215.128 407.528 214.576 407.896 213.872C408.28 213.168 408.472 212.384 408.472 211.52C408.472 210.64 408.28 209.864 407.896 209.192C407.528 208.504 407.016 207.96 406.36 207.56C405.72 207.144 405 206.936 404.2 206.936C403.384 206.936 402.648 207.144 401.992 207.56C401.352 207.96 400.84 208.504 400.456 209.192C400.072 209.864 399.88 210.64 399.88 211.52C399.88 212.384 400.072 213.168 400.456 213.872C400.84 214.576 401.352 215.128 401.992 215.528C402.648 215.928 403.384 216.128 404.2 216.128ZM73.992 247V229.12H85.632V231.28H76.344V236.944H85.152V239.104H76.344V244.84H85.632V247H73.992ZM88.2827 247V234.064H90.4667V236.584L90.1067 236.368C90.4267 235.552 90.9387 234.92 91.6427 234.472C92.3627 234.008 93.2027 233.776 94.1627 233.776C95.0907 233.776 95.9147 233.984 96.6347 234.4C97.3707 234.816 97.9467 235.392 98.3627 236.128C98.7947 236.864 99.0107 237.696 99.0107 238.624V247H96.7547V239.344C96.7547 238.624 96.6267 238.016 96.3707 237.52C96.1147 237.024 95.7467 236.64 95.2667 236.368C94.8027 236.08 94.2667 235.936 93.6587 235.936C93.0507 235.936 92.5067 236.08 92.0267 236.368C91.5627 236.64 91.1947 237.032 90.9227 237.544C90.6507 238.04 90.5147 238.64 90.5147 239.344V247H88.2827ZM108.085 247.288C106.869 247.288 105.773 246.992 104.797 246.4C103.837 245.808 103.077 245 102.517 243.976C101.957 242.952 101.677 241.808 101.677 240.544C101.677 239.248 101.957 238.096 102.517 237.088C103.077 236.064 103.837 235.256 104.797 234.664C105.773 234.072 106.869 233.776 108.085 233.776C109.157 233.776 110.109 234.008 110.941 234.472C111.773 234.92 112.429 235.528 112.909 236.296L112.549 236.848V228.832H114.805V247H112.621V244.24L112.909 244.624C112.461 245.472 111.805 246.128 110.941 246.592C110.093 247.056 109.141 247.288 108.085 247.288ZM108.277 245.128C109.093 245.128 109.821 244.928 110.461 244.528C111.101 244.128 111.605 243.584 111.973 242.896C112.357 242.192 112.549 241.408 112.549 240.544C112.549 239.664 112.357 238.88 111.973 238.192C111.605 237.488 111.101 236.936 110.461 236.536C109.821 236.136 109.093 235.936 108.277 235.936C107.477 235.936 106.749 236.144 106.093 236.56C105.453 236.96 104.949 237.504 104.581 238.192C104.213 238.864 104.029 239.648 104.029 240.544C104.029 241.408 104.213 242.192 104.581 242.896C104.949 243.584 105.453 244.128 106.093 244.528C106.733 244.928 107.461 245.128 108.277 245.128ZM118.259 247V228.832H120.491V247H118.259ZM129.907 247.288C128.659 247.288 127.547 246.992 126.571 246.4C125.595 245.808 124.827 245 124.267 243.976C123.707 242.936 123.427 241.776 123.427 240.496C123.427 239.2 123.699 238.048 124.243 237.04C124.803 236.032 125.555 235.24 126.499 234.664C127.459 234.072 128.531 233.776 129.715 233.776C130.675 233.776 131.523 233.952 132.259 234.304C133.011 234.64 133.643 235.104 134.155 235.696C134.683 236.272 135.083 236.936 135.355 237.688C135.643 238.424 135.787 239.192 135.787 239.992C135.787 240.168 135.771 240.368 135.739 240.592C135.723 240.8 135.699 241 135.667 241.192H125.059V239.272H134.371L133.315 240.136C133.459 239.304 133.379 238.56 133.075 237.904C132.771 237.248 132.323 236.728 131.731 236.344C131.139 235.96 130.467 235.768 129.715 235.768C128.963 235.768 128.275 235.96 127.651 236.344C127.027 236.728 126.539 237.28 126.187 238C125.851 238.704 125.715 239.544 125.779 240.52C125.715 241.464 125.859 242.296 126.211 243.016C126.579 243.72 127.091 244.272 127.747 244.672C128.419 245.056 129.147 245.248 129.931 245.248C130.795 245.248 131.523 245.048 132.115 244.648C132.707 244.248 133.187 243.736 133.555 243.112L135.427 244.072C135.171 244.664 134.771 245.208 134.227 245.704C133.699 246.184 133.067 246.568 132.331 246.856C131.611 247.144 130.803 247.288 129.907 247.288ZM143.329 247.288C142.033 247.288 140.905 246.968 139.945 246.328C138.985 245.688 138.305 244.824 137.905 243.736L139.681 242.872C140.049 243.64 140.553 244.248 141.193 244.696C141.833 245.144 142.545 245.368 143.329 245.368C144.033 245.368 144.617 245.2 145.081 244.864C145.545 244.528 145.777 244.088 145.777 243.544C145.777 243.16 145.665 242.856 145.441 242.632C145.233 242.392 144.977 242.208 144.673 242.08C144.369 241.936 144.089 241.832 143.833 241.768L141.889 241.216C140.721 240.88 139.865 240.4 139.321 239.776C138.793 239.152 138.529 238.424 138.529 237.592C138.529 236.824 138.721 236.16 139.105 235.6C139.505 235.024 140.041 234.576 140.713 234.256C141.401 233.936 142.169 233.776 143.017 233.776C144.153 233.776 145.169 234.064 146.065 234.64C146.977 235.216 147.625 236.024 148.009 237.064L146.185 237.904C145.897 237.232 145.465 236.704 144.889 236.32C144.313 235.92 143.665 235.72 142.945 235.72C142.289 235.72 141.769 235.888 141.385 236.224C141.001 236.544 140.809 236.952 140.809 237.448C140.809 237.816 140.905 238.12 141.097 238.36C141.289 238.584 141.521 238.76 141.793 238.888C142.065 239 142.329 239.096 142.585 239.176L144.697 239.8C145.753 240.104 146.569 240.576 147.145 241.216C147.737 241.856 148.033 242.624 148.033 243.52C148.033 244.24 147.833 244.888 147.433 245.464C147.033 246.04 146.481 246.488 145.777 246.808C145.073 247.128 144.257 247.288 143.329 247.288ZM155.587 247.288C154.291 247.288 153.163 246.968 152.203 246.328C151.243 245.688 150.563 244.824 150.163 243.736L151.939 242.872C152.307 243.64 152.811 244.248 153.451 244.696C154.091 245.144 154.803 245.368 155.587 245.368C156.291 245.368 156.875 245.2 157.339 244.864C157.803 244.528 158.035 244.088 158.035 243.544C158.035 243.16 157.923 242.856 157.699 242.632C157.491 242.392 157.235 242.208 156.931 242.08C156.627 241.936 156.347 241.832 156.091 241.768L154.147 241.216C152.979 240.88 152.123 240.4 151.579 239.776C151.051 239.152 150.787 238.424 150.787 237.592C150.787 236.824 150.979 236.16 151.363 235.6C151.763 235.024 152.299 234.576 152.971 234.256C153.659 233.936 154.427 233.776 155.275 233.776C156.411 233.776 157.427 234.064 158.323 234.64C159.235 235.216 159.883 236.024 160.267 237.064L158.443 237.904C158.155 237.232 157.723 236.704 157.147 236.32C156.571 235.92 155.923 235.72 155.203 235.72C154.547 235.72 154.027 235.888 153.643 236.224C153.259 236.544 153.067 236.952 153.067 237.448C153.067 237.816 153.163 238.12 153.355 238.36C153.547 238.584 153.779 238.76 154.051 238.888C154.323 239 154.587 239.096 154.843 239.176L156.955 239.8C158.011 240.104 158.827 240.576 159.403 241.216C159.995 241.856 160.291 242.624 160.291 243.52C160.291 244.24 160.091 244.888 159.691 245.464C159.291 246.04 158.739 246.488 158.035 246.808C157.331 247.128 156.515 247.288 155.587 247.288ZM173.769 247.288C172.633 247.288 171.593 247.08 170.649 246.664C169.705 246.232 168.905 245.648 168.249 244.912C167.593 244.176 167.121 243.352 166.833 242.44L168.873 241.6C169.305 242.752 169.945 243.64 170.793 244.264C171.657 244.872 172.665 245.176 173.817 245.176C174.521 245.176 175.137 245.064 175.665 244.84C176.193 244.616 176.601 244.304 176.889 243.904C177.193 243.488 177.345 243.008 177.345 242.464C177.345 241.712 177.129 241.12 176.697 240.688C176.281 240.24 175.665 239.904 174.849 239.68L171.561 238.672C170.265 238.272 169.273 237.64 168.585 236.776C167.897 235.912 167.553 234.92 167.553 233.8C167.553 232.824 167.785 231.968 168.249 231.232C168.729 230.48 169.385 229.896 170.217 229.48C171.065 229.048 172.025 228.832 173.097 228.832C174.169 228.832 175.137 229.024 176.001 229.408C176.881 229.792 177.625 230.312 178.233 230.968C178.841 231.608 179.289 232.344 179.577 233.176L177.561 234.016C177.177 233.008 176.601 232.248 175.833 231.736C175.065 231.208 174.161 230.944 173.121 230.944C172.481 230.944 171.913 231.056 171.417 231.28C170.937 231.488 170.561 231.8 170.289 232.216C170.033 232.616 169.905 233.096 169.905 233.656C169.905 234.312 170.113 234.896 170.529 235.408C170.945 235.92 171.577 236.312 172.425 236.584L175.425 237.472C176.833 237.904 177.897 238.52 178.617 239.32C179.337 240.12 179.697 241.112 179.697 242.296C179.697 243.272 179.441 244.136 178.929 244.888C178.433 245.64 177.737 246.232 176.841 246.664C175.961 247.08 174.937 247.288 173.769 247.288ZM188.876 247.288C187.612 247.288 186.484 246.992 185.492 246.4C184.516 245.808 183.748 245 183.188 243.976C182.628 242.952 182.348 241.8 182.348 240.52C182.348 239.224 182.628 238.072 183.188 237.064C183.748 236.056 184.516 235.256 185.492 234.664C186.484 234.072 187.612 233.776 188.876 233.776C189.724 233.776 190.516 233.928 191.252 234.232C191.988 234.536 192.636 234.944 193.196 235.456C193.756 235.968 194.164 236.568 194.42 237.256L192.428 238.216C192.124 237.544 191.66 237 191.036 236.584C190.412 236.152 189.692 235.936 188.876 235.936C188.092 235.936 187.38 236.136 186.74 236.536C186.116 236.936 185.62 237.48 185.252 238.168C184.884 238.856 184.7 239.648 184.7 240.544C184.7 241.408 184.884 242.192 185.252 242.896C185.62 243.584 186.116 244.128 186.74 244.528C187.38 244.928 188.092 245.128 188.876 245.128C189.692 245.128 190.412 244.92 191.036 244.504C191.66 244.072 192.124 243.504 192.428 242.8L194.42 243.808C194.164 244.48 193.756 245.08 193.196 245.608C192.636 246.12 191.988 246.528 191.252 246.832C190.516 247.136 189.724 247.288 188.876 247.288ZM197.337 247V234.064H199.521V236.44L199.281 236.104C199.585 235.368 200.049 234.824 200.673 234.472C201.297 234.104 202.057 233.92 202.953 233.92H203.745V236.032H202.617C201.705 236.032 200.969 236.32 200.409 236.896C199.849 237.456 199.569 238.256 199.569 239.296V247H197.337ZM211.872 247.288C210.624 247.288 209.496 247 208.488 246.424C207.48 245.832 206.68 245.024 206.088 244C205.496 242.976 205.2 241.816 205.2 240.52C205.2 239.224 205.488 238.072 206.064 237.064C206.656 236.056 207.456 235.256 208.464 234.664C209.472 234.072 210.608 233.776 211.872 233.776C213.12 233.776 214.248 234.072 215.256 234.664C216.264 235.24 217.056 236.032 217.632 237.04C218.224 238.048 218.52 239.208 218.52 240.52C218.52 241.832 218.216 243 217.608 244.024C217 245.032 216.192 245.832 215.184 246.424C214.192 247 213.088 247.288 211.872 247.288ZM211.872 245.128C212.672 245.128 213.392 244.928 214.032 244.528C214.688 244.128 215.2 243.576 215.568 242.872C215.952 242.168 216.144 241.384 216.144 240.52C216.144 239.64 215.952 238.864 215.568 238.192C215.2 237.504 214.688 236.96 214.032 236.56C213.392 236.144 212.672 235.936 211.872 235.936C211.056 235.936 210.32 236.144 209.664 236.56C209.024 236.96 208.512 237.504 208.128 238.192C207.744 238.864 207.552 239.64 207.552 240.52C207.552 241.384 207.744 242.168 208.128 242.872C208.512 243.576 209.024 244.128 209.664 244.528C210.32 244.928 211.056 245.128 211.872 245.128ZM221.431 247V228.832H223.663V247H221.431ZM227.126 247V228.832H229.358V247H227.126ZM232.822 247V234.064H235.054V247H232.822ZM232.822 232V229.12H235.054V232H232.822ZM238.517 247V234.064H240.701V236.584L240.341 236.368C240.661 235.552 241.173 234.92 241.877 234.472C242.597 234.008 243.437 233.776 244.397 233.776C245.325 233.776 246.149 233.984 246.869 234.4C247.605 234.816 248.181 235.392 248.597 236.128C249.029 236.864 249.245 237.696 249.245 238.624V247H246.989V239.344C246.989 238.624 246.861 238.016 246.605 237.52C246.349 237.024 245.981 236.64 245.501 236.368C245.037 236.08 244.501 235.936 243.893 235.936C243.285 235.936 242.741 236.08 242.261 236.368C241.797 236.64 241.429 237.032 241.157 237.544C240.885 238.04 240.749 238.64 240.749 239.344V247H238.517ZM258.607 252.28C257.695 252.28 256.847 252.136 256.063 251.848C255.295 251.56 254.631 251.16 254.071 250.648C253.527 250.152 253.111 249.568 252.823 248.896L254.911 247.936C255.135 248.544 255.559 249.056 256.183 249.472C256.823 249.904 257.623 250.12 258.583 250.12C259.319 250.12 259.983 249.976 260.575 249.688C261.183 249.416 261.663 249 262.015 248.44C262.367 247.896 262.543 247.232 262.543 246.448V243.544L262.951 243.976C262.503 244.856 261.855 245.528 261.007 245.992C260.175 246.456 259.255 246.688 258.247 246.688C257.031 246.688 255.943 246.408 254.983 245.848C254.023 245.272 253.271 244.496 252.727 243.52C252.183 242.528 251.911 241.432 251.911 240.232C251.911 239.016 252.183 237.92 252.727 236.944C253.271 235.968 254.015 235.2 254.959 234.64C255.919 234.064 257.007 233.776 258.223 233.776C259.231 233.776 260.143 234.008 260.959 234.472C261.791 234.92 262.455 235.544 262.951 236.344L262.615 236.944V234.064H264.799V246.448C264.799 247.568 264.535 248.568 264.007 249.448C263.479 250.328 262.743 251.016 261.799 251.512C260.871 252.024 259.807 252.28 258.607 252.28ZM258.439 244.528C259.207 244.528 259.895 244.336 260.503 243.952C261.127 243.568 261.623 243.056 261.991 242.416C262.359 241.76 262.543 241.032 262.543 240.232C262.543 239.448 262.359 238.728 261.991 238.072C261.623 237.416 261.127 236.896 260.503 236.512C259.895 236.128 259.207 235.936 258.439 235.936C257.655 235.936 256.943 236.128 256.303 236.512C255.663 236.896 255.159 237.416 254.791 238.072C254.439 238.712 254.263 239.432 254.263 240.232C254.263 241.032 254.439 241.76 254.791 242.416C255.159 243.056 255.655 243.568 256.279 243.952C256.919 244.336 257.639 244.528 258.439 244.528ZM269.171 247V244.12H271.499V247H269.171Z" fill="black"/>
<path d="M223.289 299.537C223.175 302.135 220.985 304.141 218.388 304.027C215.79 303.913 213.884 301.728 213.998 299.13C214.112 296.533 216.301 294.526 218.899 294.64C221.496 294.754 223.398 297.04 223.289 299.537ZM221.89 299.476C221.969 297.678 220.632 296.218 218.833 296.139C217.035 296.06 215.575 297.397 215.496 299.196C215.417 300.994 216.755 302.454 218.553 302.533C220.251 302.607 221.811 301.274 221.89 299.476Z" fill="#6DA3A2"/>
<path d="M73.5968 360.043C73.4829 362.64 71.293 364.646 68.6955 364.532C66.098 364.418 64.0919 362.229 64.2058 359.631C64.3196 357.034 66.5095 355.027 69.107 355.141C71.7001 355.355 73.7062 357.545 73.5968 360.043ZM72.1981 359.981C72.2769 358.183 70.9395 356.723 69.1412 356.644C67.343 356.565 65.883 357.903 65.8042 359.701C65.7254 361.499 67.0628 362.959 68.8611 363.038C70.5595 363.113 72.1193 361.78 72.1981 359.981Z" fill="#1F6563"/>
<path d="M187.949 349.938C187.549 349.921 187.236 350.207 187.219 350.607L187.079 353.804C187.061 354.204 187.348 354.516 187.747 354.534C188.147 354.551 188.46 354.265 188.477 353.865L188.613 350.768C188.73 350.373 188.348 349.956 187.949 349.938Z" fill="#269C99"/>
<path d="M188.194 344.344C187.794 344.326 187.481 344.613 187.464 345.012L187.319 348.309C187.302 348.709 187.588 349.022 187.988 349.039C188.388 349.057 188.7 348.77 188.718 348.37L188.862 345.074C188.98 344.678 188.593 344.361 188.194 344.344Z" fill="#269C99"/>
<path d="M192.597 348.941L189.7 348.814C189.3 348.797 188.987 349.083 188.97 349.483C188.952 349.883 189.239 350.195 189.638 350.213L192.535 350.34C192.935 350.357 193.248 350.071 193.265 349.671C193.279 349.372 192.996 348.959 192.597 348.941Z" fill="#269C99"/>
<path d="M186.403 348.67L183.505 348.543C183.106 348.525 182.793 348.812 182.776 349.212C182.758 349.611 183.045 349.924 183.444 349.942L186.341 350.068C186.741 350.086 187.054 349.799 187.071 349.4C187.085 349.1 186.802 348.687 186.403 348.67Z" fill="#269C99"/>
<path d="M143.246 342.174C142.846 342.157 142.533 342.443 142.516 342.843L142.376 346.04C142.358 346.439 142.645 346.752 143.044 346.77C143.444 346.787 143.757 346.501 143.774 346.101L143.914 342.904C143.932 342.505 143.645 342.192 143.246 342.174Z" fill="#1F6563"/>
<path d="M143.491 336.579C143.091 336.562 142.778 336.849 142.761 337.248L142.621 340.445C142.603 340.845 142.89 341.158 143.289 341.175C143.689 341.193 144.002 340.906 144.019 340.506L144.159 337.309C144.177 336.91 143.89 336.597 143.491 336.579Z" fill="#1F6563"/>
<path d="M147.794 341.173L144.897 341.046C144.497 341.028 144.184 341.315 144.167 341.714C144.149 342.114 144.436 342.427 144.835 342.444L147.733 342.571C148.132 342.589 148.445 342.302 148.463 341.903C148.48 341.503 148.193 341.19 147.794 341.173Z" fill="#1F6563"/>
<path d="M141.7 340.906L138.802 340.779C138.403 340.761 138.09 341.048 138.073 341.447C138.055 341.847 138.342 342.16 138.741 342.177L141.638 342.304C142.038 342.322 142.351 342.035 142.368 341.636C142.386 341.236 142.099 340.923 141.7 340.906Z" fill="#1F6563"/>
</g>
<defs>
<filter id="filter0_d_1870_6980" x="0.4" y="0.4" width="588.2" height="430.2" filterUnits="userSpaceOnUse" color-interpolation-filters="sRGB">
<feFlood flood-opacity="0" result="BackgroundImageFix"/>
<feColorMatrix in="SourceAlpha" type="matrix" values="0 0 0 0 0 0 0 0 0 0 0 0 0 0 0 0 0 0 127 0" result="hardAlpha"/>
<feOffset dx="8" dy="9"/>
<feGaussianBlur stdDeviation="8.3"/>
<feComposite in2="hardAlpha" operator="out"/>
<feColorMatrix type="matrix" values="0 0 0 0 0 0 0 0 0 0 0 0 0 0 0 0 0 0 0.25 0"/>
<feBlend mode="normal" in2="BackgroundImageFix" result="effect1_dropShadow_1870_6980"/>
<feBlend mode="normal" in="SourceGraphic" in2="effect1_dropShadow_1870_6980" result="shape"/>
</filter>
<clipPath id="clip0_1870_6980">
<rect width="151.625" height="152" fill="white" transform="translate(348 239)"/>
</clipPath>
</defs>
</svg>
