<svg width="2206" height="712" viewBox="0 0 2206 712" fill="none" xmlns="http://www.w3.org/2000/svg">
<rect y="312" width="2206" height="400" rx="38" fill="#D5E6EE"/>
<path d="M415.073 148.785C415.073 148.785 444.821 194.95 458.614 203.431C464.57 207.203 470.753 208.945 475.685 209.528C477.155 209.724 481.25 209.891 481.567 209.78C499.219 209.47 520.363 206.346 547.328 198.355L544.915 185.903C544.915 185.903 529.141 187.685 510.131 187.05C503.199 186.81 486.923 185.931 481.037 186.212C479.573 185.482 478.215 184.538 476.858 183.594C452.423 166.595 438.825 135.71 438.825 135.71C430.401 137.941 420.169 142.752 415.073 148.785Z" fill="#FCBB8C"/>
<path d="M544.292 185.056C544.292 185.056 548.993 176.148 554.158 174.169C559.323 172.189 574.205 164.337 576.911 167.293C579.509 170.463 577.189 183.504 563.655 193.367C554.882 199.441 547.012 198.465 547.012 198.465L544.292 185.056Z" fill="#FCBB8C"/>
<path d="M576.626 175.724L553.887 193.054C553.041 193.704 551.674 193.826 550.735 193.09L539.034 185.651C538.615 185.443 538.513 185.124 538.411 184.805L538.011 182.463L541.591 181.568L575.078 172.542L576.868 172.095L577.268 174.437L577.161 174.652C577.263 174.97 577.049 175.4 576.626 175.724Z" fill="#1A100E"/>
<path d="M575.078 172.541L541.591 181.567L561.791 166.187C562.637 165.538 564.004 165.415 564.943 166.151L575.078 172.541Z" fill="#1F2232"/>
<path d="M550.545 190.852L538.844 183.413C538.007 182.996 538.016 181.929 538.862 181.279L561.601 163.95C562.447 163.3 563.814 163.178 564.753 163.914L576.455 171.352C577.292 171.769 577.282 172.836 576.436 173.486L553.697 190.815C552.642 191.361 551.275 191.483 550.545 190.852Z" fill="#3C3C48"/>
<path d="M552.465 187.522L543.376 181.653C542.539 181.236 542.549 180.169 543.395 179.52L561.057 166.089C561.903 165.439 563.27 165.317 564.209 166.053L573.298 171.921C574.134 172.339 574.125 173.405 573.279 174.055L555.617 187.486C554.771 188.135 553.195 188.154 552.465 187.522Z" fill="#616077"/>
<path d="M554.409 169.473C554.409 169.473 557.133 170.295 557.217 172.747C557.193 175.414 554.683 174.163 553.009 173.329C551.336 172.495 549.755 173.046 549.439 173.157C548.486 174.021 549.379 168.037 554.409 169.473Z" fill="#FCBB8C"/>
<path d="M565.729 184.49C565.729 184.49 571.15 177.281 575.069 173.609C577.612 171.126 578.416 175.277 576.608 177.858C574.483 180.549 570.759 185.925 565.729 184.49Z" fill="#FCBB8C"/>
<path d="M354.86 127.604C351.344 145.138 346.094 179.768 340.179 207.357C337.147 241.74 329.266 265.938 329.345 280.978C329.345 280.978 385.356 291.213 407.091 280.615L410.825 250.065C410.449 233.002 412.699 215.909 417.674 199.637C417.781 199.423 417.888 199.208 417.888 199.208C418.628 198.773 419.474 198.123 420.111 197.369C423.5 194.237 427.01 189.29 429.046 184.679C430.223 182.319 431.083 180.069 431.311 178.04C433.078 168.206 434.984 154.423 435.426 151.965L439.717 141.782C441.219 138.244 439.89 134.099 436.756 132.002L410.415 116.732L364.357 117.961C358.89 118.451 355.895 122.439 354.86 127.604Z" fill="#9DC3C6"/>
<path d="M398.38 267.702C381.197 262.353 368.91 249.801 361.639 240.284C353.746 229.922 349.938 220.792 350.045 220.577C349.734 220.154 350.055 219.511 350.58 219.505C351.003 219.18 351.631 219.493 351.626 220.026C351.626 220.026 355.433 229.156 363.118 239.414C370.179 248.826 382.155 260.955 398.919 266.096C399.338 266.304 399.649 266.727 399.435 267.156C399.221 267.586 398.798 267.91 398.38 267.702Z" fill="#1F6563"/>
<path d="M378.519 268.25C363.535 263.729 351.36 250.429 350.839 249.902C350.528 249.479 350.532 248.946 350.955 248.621C351.378 248.296 351.904 248.29 352.215 248.713C352.424 248.817 366.785 264.545 382.833 267.454C383.359 267.448 383.563 268.085 383.559 268.619C383.554 269.152 382.922 269.373 382.396 269.379C381.034 268.968 379.565 268.772 378.519 268.25Z" fill="#1F6563"/>
<path d="M390.206 145.232C389.787 145.024 389.685 144.705 389.583 144.386C389.587 143.853 390.01 143.528 390.536 143.522C412.893 145.824 423.502 133.968 423.609 133.754C424.032 133.429 424.558 133.423 424.976 133.631C425.288 134.054 425.283 134.588 425.069 135.017C424.437 135.238 413.614 147.523 390.206 145.232Z" fill="#1F6563"/>
<path d="M393.007 197.255C392.793 197.684 393.104 198.107 393.523 198.316C393.523 198.316 393.523 198.316 393.732 198.42C403.685 201.505 411.565 201.414 417.67 200.171C417.777 199.956 417.883 199.742 417.883 199.742C418.623 199.306 419.469 198.657 420.106 197.903C414.313 199.569 405.48 200.525 394.164 197.028C393.643 196.501 393.011 196.721 393.007 197.255Z" fill="#1F6563"/>
<path d="M510.408 371.48L511.286 391.204C511.286 391.204 517.451 395.08 527.34 393.579L526.489 370.655L510.408 371.48Z" fill="#FCBB8C"/>
<path d="M524.002 390.845C524.002 390.845 527.614 386.216 530.45 386.29C533.179 386.579 554.146 403.724 561.277 405.135C568.409 406.547 566.995 412.003 565.605 414.792C564.215 417.582 507.52 413.435 507.52 413.435C507.52 413.435 506.409 396.274 508.451 391.13C510.282 385.882 518.423 392.082 524.002 390.845Z" fill="#1F6563"/>
<path d="M535.56 402.764C535.243 402.875 535.034 402.77 534.825 402.666C534.407 402.458 534.202 401.82 534.523 401.176C534.63 400.962 536.871 396.989 539.93 395.567C544.044 393.6 547.071 395.911 547.071 395.911C547.489 396.12 547.587 396.972 547.164 397.297C546.95 397.726 546.108 397.843 545.797 397.419C545.797 397.419 543.5 395.739 540.65 397.265C538.224 398.467 536.196 402.01 536.196 402.01C535.983 402.439 535.876 402.654 535.56 402.764Z" fill="white"/>
<path d="M532.537 399.92C532.221 400.03 532.012 399.926 531.803 399.821C531.384 399.613 531.18 398.975 531.5 398.331C531.607 398.117 533.848 394.144 536.907 392.722C541.022 390.755 544.048 393.067 544.048 393.067C544.467 393.275 544.564 394.127 544.141 394.452C543.927 394.881 543.086 394.998 542.774 394.575C542.774 394.575 540.478 392.894 537.628 394.421C535.201 395.622 533.174 399.165 533.174 399.165C532.96 399.595 532.853 399.809 532.537 399.92Z" fill="white"/>
<path d="M539.529 405.279C539.213 405.39 539.003 405.285 538.794 405.181C538.376 404.973 538.171 404.335 538.492 403.691C538.599 403.477 540.84 399.504 543.899 398.082C548.014 396.115 551.04 398.427 551.04 398.427C551.458 398.635 551.556 399.487 551.133 399.812C550.919 400.241 550.078 400.358 549.766 399.935C549.766 399.935 547.47 398.254 544.62 399.781C542.193 400.982 540.166 404.525 540.166 404.525C540.161 405.059 539.845 405.169 539.529 405.279Z" fill="white"/>
<path d="M398.062 291.92C398.062 291.92 484.355 227.243 508.524 250.539C524.777 266.139 528.144 373.623 528.144 373.623C525.299 374.616 514.569 376.233 509.553 373.197C509.553 373.197 485.221 320.356 489.137 281.056C489.137 281.056 434.616 328.62 391.78 313.433C388.428 312.298 385.937 296.86 398.062 291.92Z" fill="#1A100E"/>
<path d="M548.427 408.911L562.281 422.512C562.281 422.512 569.436 421.256 575.81 413.183L560.087 397.043L548.427 408.911Z" fill="#FCBB8C"/>
<path d="M571.501 413.445C571.501 413.445 571.027 407.584 573.249 405.745C575.471 403.906 602.487 402.101 608.824 398.295C615.267 394.274 617.745 399.259 618.559 402.343C619.372 405.427 574.094 441.256 574.094 441.256C574.094 441.256 561.904 429.556 559.743 424.461C557.897 419.256 567.888 418.074 571.501 413.445Z" fill="#1F6563"/>
<path d="M588.093 414.214C587.986 414.429 587.67 414.539 587.354 414.65C586.828 414.656 586.201 414.343 586.205 413.81C586.103 413.491 585.406 409.125 586.694 406.017C588.307 401.732 592.198 401.26 592.408 401.364C592.933 401.358 593.561 401.671 593.556 402.204C593.551 402.738 593.23 403.382 592.705 403.388C592.705 403.388 589.971 403.632 588.684 406.741C587.61 409.42 588.521 413.356 588.521 413.356C588.098 413.681 588.2 414 588.093 414.214Z" fill="white"/>
<path d="M583.997 414.048C583.89 414.263 583.574 414.373 583.258 414.484C582.732 414.49 582.105 414.177 582.109 413.644C582.007 413.325 581.31 408.959 582.598 405.851C584.211 401.566 588.102 401.094 588.312 401.198C588.837 401.192 589.465 401.505 589.46 402.038C589.455 402.572 589.134 403.216 588.609 403.222C588.609 403.222 585.875 403.466 584.588 406.575C583.514 409.254 584.425 413.19 584.425 413.19C584.002 413.515 584.104 413.834 583.997 414.048Z" fill="white"/>
<path d="M592.621 412.988C592.514 413.202 592.198 413.313 591.882 413.423C591.357 413.429 590.729 413.116 590.734 412.583C590.841 412.368 589.934 407.899 591.222 404.79C592.836 400.505 596.727 400.034 596.936 400.138C597.461 400.132 598.089 400.444 598.084 400.978C598.08 401.511 597.759 402.155 597.234 402.161C597.234 402.161 594.5 402.406 593.212 405.514C592.138 408.193 593.049 412.13 593.049 412.13C592.835 412.559 592.728 412.773 592.621 412.988Z" fill="white"/>
<path d="M564.159 399.875C562.341 403.523 560.849 405.994 557.883 408.801C557.353 409.341 556.823 409.88 556.084 410.315C555.131 411.18 553.861 412.154 552.592 413.129C552.592 413.129 496.033 369.406 463.212 326.263C463.212 326.263 386.823 339.624 350.05 327.994C346.698 326.859 343.351 325.191 340.636 323.302C339.487 322.462 338.339 321.622 337.191 320.782C324.681 309.726 320.748 290.89 329.391 275.644C329.391 275.644 436.733 278.78 470.024 292.157C503.525 305.638 564.159 399.875 564.159 399.875Z" fill="#3C3C48"/>
<path d="M557.882 408.801C557.352 409.341 556.822 409.88 556.083 410.315C519.254 380.979 480.166 333.641 468.628 319.587C466.964 317.686 464.346 316.649 461.924 317.317C423.272 328.323 360.477 324.887 340.635 323.302C339.487 322.462 338.338 321.622 337.19 320.782C351.258 321.9 419.924 326.655 461.208 315.086C464.579 314.087 468.14 315.326 470.218 317.969C481.859 332.341 521.262 379.569 557.882 408.801Z" fill="#1A100E"/>
<path d="M419.055 41.7508C419.055 41.7508 405.242 47.4569 393.401 68.074C383.8 84.7185 373.929 108.193 389.634 114.412C405.231 120.846 427.564 137.869 442.669 128.521C457.565 119.069 419.055 41.7508 419.055 41.7508Z" fill="#3C3C48"/>
<path d="M449.068 93.6744C449.068 93.6744 455.93 89.8619 456.924 96.2506C457.71 102.535 446.575 114.397 440.755 107.211L449.068 93.6744Z" fill="#FB927E"/>
<path d="M444.357 103.649C444.566 103.753 445.091 103.747 445.198 103.533C448.383 99.7624 453.632 100.235 453.739 100.021C454.264 100.015 454.371 99.8001 454.585 99.371C454.59 98.8376 454.38 98.7333 453.962 98.5248C453.753 98.4205 447.872 98.1683 444.157 102.478C443.734 102.803 443.729 103.336 444.357 103.649C444.148 103.545 444.148 103.545 444.357 103.649Z" fill="#E6765D"/>
<path d="M449.61 103.589C449.82 103.693 449.82 103.693 450.136 103.583C450.452 103.473 450.875 103.148 450.773 102.829C450.773 102.829 450.577 101.124 449.225 99.6466C448.913 99.2235 448.597 99.3338 448.174 99.6587C447.751 99.9836 447.853 100.302 448.165 100.726C449.099 101.995 449.299 103.166 449.299 103.166C449.299 103.166 449.401 103.485 449.61 103.589Z" fill="#E6765D"/>
<path d="M404.743 104.531L398.109 118.368C398.109 118.368 398.871 127.32 404.096 130.46C409.322 133.599 417.239 129.241 417.239 129.241L424.195 114.761L404.743 104.531Z" fill="#FCBB8C"/>
<path d="M404.743 104.531L401.642 110.754C403.376 116.707 409.22 121.227 419.383 124.417L423.772 115.086L404.743 104.531Z" fill="#FB927E"/>
<path d="M407.428 61.9391C405.173 67.5119 402.276 74.3722 400.858 80.362C400.426 81.7537 400.202 83.2497 399.877 84.4268C397.78 95.9713 396.44 117.001 420.164 119.181C430.662 120.126 439.453 111.918 446.153 102.667C450.621 96.3224 454.359 89.3458 456.609 84.3063C458.966 79.0523 458.492 73.191 455.382 68.4266C446.982 55.9364 433.249 52.5746 423.379 51.9416C416.447 51.7015 410.003 55.7225 407.428 61.9391Z" fill="#FCBB8C"/>
<path d="M436.399 88.6996C435.651 90.2016 435.953 91.6915 436.79 92.1085C437.626 92.5256 439.105 91.6552 439.853 90.1532C440.602 88.6512 440.3 87.1613 439.463 86.7442C438.626 86.3272 437.148 87.1976 436.399 88.6996Z" fill="#3C3C48"/>
<path d="M415.999 78.8007C415.251 80.3027 415.553 81.7926 416.39 82.2096C417.227 82.6266 418.705 81.7562 419.454 80.2542C420.202 78.7522 419.9 77.2623 419.063 76.8453C417.91 76.5386 416.748 77.2987 415.999 78.8007Z" fill="#3C3C48"/>
<path d="M444.647 82.6304C443.397 81.4715 440.998 79.4724 438.069 78.0128C437.232 77.5957 436.493 78.0309 436.065 78.8892C435.954 79.6372 436.158 80.2749 436.786 80.5876C438.985 81.4157 443.899 84.1324 445.874 86.4564C446.088 86.0273 446.093 85.4939 445.888 84.8562C446 84.1082 445.377 83.262 444.647 82.6304Z" fill="#3C3C48"/>
<path d="M417.548 69.9297C419.227 70.2303 422.267 70.942 425.303 72.187C426.14 72.6041 426.446 73.5606 425.809 74.3146C425.489 74.9583 424.647 75.0747 424.02 74.7619C421.928 73.7193 416.8 71.4317 413.755 71.2534C413.968 70.8243 414.392 70.4994 415.024 70.2788C415.763 69.8436 416.814 69.8315 417.548 69.9297Z" fill="#3C3C48"/>
<path d="M420.891 96.2388C421.309 96.4473 421.937 96.7601 422.569 96.5395C423.094 96.5334 423.726 96.3128 424.261 95.24C425.647 92.9839 428.762 85.1611 428.766 84.6277C428.98 84.1986 428.669 83.7755 428.46 83.6712C428.041 83.4627 427.618 83.7876 427.511 84.0022C427.511 84.0022 424.498 92.1438 423.113 94.3998C422.899 94.829 422.583 94.9393 422.583 94.9393C421.741 95.0557 420.7 94.001 420.179 93.4736C419.868 93.0505 419.552 93.1608 419.129 93.4857C418.706 93.8106 418.808 94.1294 419.119 94.5525C419.012 94.7671 419.845 95.7175 420.891 96.2388Z" fill="#FB927E"/>
<path d="M427.017 104.381C425.315 106.748 421.605 110.524 416.059 108.028C410.62 105.317 411.187 100.51 411.95 97.4081L427.017 104.381Z" fill="white"/>
<path d="M414.451 111.78C415.916 112.51 417.808 112.381 417.808 112.381C418.124 112.271 418.547 111.946 418.445 111.627C418.342 111.308 418.031 110.885 417.715 110.995C417.715 110.995 416.348 111.118 415.093 110.492C413.838 109.867 412.903 108.597 412.903 108.597C412.801 108.279 412.275 108.285 411.959 108.395C411.643 108.505 411.639 109.039 411.741 109.358C411.741 109.358 412.778 110.946 414.451 111.78Z" fill="#FB927E"/>
<path d="M405.86 72.9448C405.86 72.9448 404.457 65.2807 398.966 68.4375C393.685 71.6984 391.443 87.7247 400.476 87.9407L405.86 72.9448Z" fill="#FCBB8C"/>
<path d="M395.66 86.0762C395.232 86.9345 395.539 87.891 396.376 88.308C397.212 88.7251 398.161 88.3941 398.589 87.5359C399.016 86.6776 398.709 85.7211 397.873 85.304C397.036 84.887 396.087 85.2179 395.66 86.0762Z" fill="white"/>
<path d="M401.15 82.9203C400.941 82.816 400.629 82.3929 400.736 82.1783C401.62 77.2613 398.082 73.3553 398.082 73.3553C397.771 72.9322 397.877 72.7177 398.091 72.2885C398.514 71.9636 398.724 72.0679 399.142 72.2764C399.351 72.3807 403.2 76.7098 402.205 82.3748C401.992 82.8039 401.568 83.1288 401.15 82.9203Z" fill="#FB927E"/>
<path d="M397.719 78.7997C397.51 78.6955 397.51 78.6955 397.301 78.5912C397.198 78.2724 397.203 77.739 397.519 77.6286C397.519 77.6286 398.998 76.7582 400.783 76.8443C401.308 76.8383 401.41 77.1571 401.513 77.476C401.615 77.7948 401.192 78.1197 400.876 78.23C399.3 78.2481 398.244 78.7937 398.244 78.7937C398.244 78.7937 397.928 78.904 397.719 78.7997Z" fill="#FB927E"/>
<path d="M405.345 59.8282C405.233 60.5761 405.647 61.3181 406.168 61.8454C405.419 63.3474 404.773 65.1683 403.917 66.8848C400.049 76.7431 401.704 79.7107 403.299 77.559C404.466 76.2655 408.748 67.1492 409.929 64.2555C412.132 64.5501 413.913 65.1696 413.913 65.1696L420.603 56.9856L416.949 66.4146C419.552 69.0514 428.046 70.8736 428.046 70.8736L434.838 63.0084L432.128 72.6399C435.763 77.3982 442.685 78.7051 442.685 78.7051L448.646 69.8895L447.288 80.9988C447.288 80.9988 455.721 89.7552 457.855 85.9972C458.924 83.8515 460.352 76.7948 461.24 71.3444C462.342 65.4648 461.031 59.1864 457.605 54.5324C448.265 41.3063 432.635 38.6063 426.643 39.1021C414.025 40.3142 405.345 59.8282 405.345 59.8282Z" fill="#3C3C48"/>
<path d="M461.733 63.0199C461.733 63.0199 465.284 77.3794 459.226 97.3965C453.168 117.414 446.756 129.755 436.24 130.942C421.307 132.608 429.072 121.745 431.099 118.201C433.126 114.658 447.882 109.154 454.777 77.5005C457.074 67.127 461.733 63.0199 461.733 63.0199Z" fill="#3C3C48"/>
<path d="M356.244 123.498C356.244 123.498 345.69 148.122 334.113 170.946C332.306 174.782 330.178 178.842 328.126 182.615C319.781 199.205 312.001 215.634 307.849 225.316C298.689 246.918 287.734 288.936 284.297 302.792L298.139 305.723C303.091 290.105 326.642 243.944 330.463 228.651L333.847 221.842L346.373 197.418L365.988 159.152C365.911 159.44 372.53 127.054 356.244 123.498Z" fill="#FCBB8C"/>
<path d="M299.534 301.475C294.309 299.523 279.978 296.468 273.743 297.327C265.077 298.485 258.515 304.48 252.921 304.89C247.328 305.3 251.631 310.7 263.154 310.581C273.377 310.435 281.492 310.364 281.291 313.075C281.089 315.787 270.962 311.659 266.787 314.581C262.535 317.79 271 319.344 276.392 321.645C279.66 323.096 282.503 323.21 288.494 322.288C292.621 321.503 294.275 318.242 296.13 312.27L299.534 301.475Z" fill="#FCBB8C"/>
<path d="M1786.37 659.048L1786.87 679.945L1770.95 679.447L1769.21 658.053L1786.37 659.048Z" fill="#FCBB8C"/>
<path d="M1780.16 676.214C1780.16 676.214 1772.19 674.473 1769.96 674.473C1767.72 674.473 1753.79 691.389 1748.81 692.384C1739.85 694.374 1740.35 708.305 1745.83 708.803C1761.5 710.295 1788.12 702.832 1788.12 702.832C1788.12 702.832 1790.11 684.921 1788.86 679.448C1787.62 673.975 1784.38 677.707 1780.16 676.214Z" fill="#1F6563"/>
<path d="M1767.47 691.637C1767.72 691.637 1767.97 691.637 1768.21 691.388C1768.71 691.139 1768.71 690.393 1768.46 689.895C1768.46 689.646 1765.48 685.915 1762.24 684.671C1757.77 682.93 1754.78 685.666 1754.53 685.915C1754.03 686.412 1754.03 686.91 1754.53 687.407C1755.03 687.905 1755.53 687.905 1756.02 687.407C1756.02 687.407 1758.26 685.417 1761.5 686.661C1764.23 687.656 1766.72 691.139 1766.72 691.139C1766.97 691.637 1767.22 691.637 1767.47 691.637Z" fill="white"/>
<path d="M1770.45 688.404C1770.7 688.404 1770.95 688.404 1771.2 688.155C1771.7 687.906 1771.7 687.16 1771.45 686.662C1771.45 686.414 1768.46 682.682 1765.23 681.438C1760.75 679.697 1757.77 682.433 1757.52 682.682C1757.02 683.18 1757.02 683.677 1757.52 684.175C1758.01 684.672 1758.51 684.672 1759.01 684.175C1759.01 684.175 1761.25 682.184 1764.48 683.428C1767.22 684.423 1769.71 687.906 1769.71 687.906C1769.96 688.155 1770.2 688.404 1770.45 688.404Z" fill="white"/>
<path d="M1763.49 694.622C1763.74 694.622 1763.98 694.622 1764.23 694.374C1764.73 694.125 1764.73 693.379 1764.48 692.881C1764.48 692.632 1761.5 688.901 1758.26 687.657C1753.79 685.916 1750.8 688.652 1750.55 688.901C1750.05 689.398 1750.05 689.896 1750.55 690.393C1751.05 690.891 1751.55 690.891 1752.04 690.393C1752.04 690.393 1754.28 688.403 1757.52 689.647C1760.25 690.642 1762.74 694.125 1762.74 694.125C1762.99 694.374 1763.24 694.622 1763.49 694.622Z" fill="white"/>
<path d="M1728.16 412.271C1728.16 412.271 1728.41 416.997 1728.91 424.958C1729.16 426.948 1729.16 429.436 1729.41 431.923C1731.4 458.293 1735.13 506.056 1739.36 540.138C1745.33 587.653 1764.48 666.015 1764.48 666.015L1784.88 665.517H1786.87H1791.6C1791.6 665.517 1788.61 616.012 1784.63 573.224C1782.15 544.367 1780.9 477.448 1780.4 435.157C1780.16 413.266 1780.16 398.091 1780.16 398.091L1728.16 412.271Z" fill="#3C3C48"/>
<path d="M1728.16 412.27C1728.16 412.27 1728.41 416.997 1728.91 424.958C1729.16 426.948 1729.16 429.435 1729.41 431.923C1738.86 433.665 1764.73 435.157 1780.4 435.406C1780.16 413.514 1780.16 398.339 1780.16 398.339L1728.16 412.27Z" fill="#1A100E"/>
<path d="M1768.96 424.709C1768.96 426.45 1769.71 580.189 1784.88 665.02H1786.87C1771.45 580.438 1770.7 426.45 1770.7 424.709H1768.96Z" fill="#1A100E"/>
<path d="M1664.98 661.785L1665.47 680.194L1682.14 679.448L1682.64 660.044L1664.98 661.785Z" fill="#FCBB8C"/>
<path d="M1669.7 679.199C1669.7 679.199 1666.22 674.472 1663.23 674.721C1660.5 674.97 1638.61 692.383 1631.14 693.876C1623.68 695.369 1625.17 700.842 1626.67 703.578C1628.16 706.315 1686.37 702.085 1686.37 702.085C1686.37 702.085 1687.86 684.672 1685.87 679.448C1683.88 674.223 1675.67 680.443 1669.7 679.199Z" fill="#1F6563"/>
<path d="M1657.76 691.389C1658.01 691.389 1658.26 691.389 1658.51 691.389C1659.01 691.141 1659.25 690.394 1659.01 689.897C1659.01 689.648 1656.52 685.668 1653.53 684.175C1649.55 682.185 1646.32 684.424 1646.07 684.673C1645.57 684.921 1645.57 685.668 1645.82 686.165C1646.07 686.663 1646.82 686.663 1647.31 686.414C1647.31 686.414 1649.55 684.673 1652.54 686.165C1655.02 687.409 1657.01 690.892 1657.26 690.892C1657.26 691.141 1657.51 691.389 1657.76 691.389Z" fill="white"/>
<path d="M1660.75 688.403C1661 688.403 1661.24 688.403 1661.49 688.403C1661.99 688.154 1662.24 687.408 1661.99 686.911C1661.99 686.662 1659.5 682.681 1656.52 681.189C1652.29 679.199 1649.3 681.438 1649.05 681.686C1648.56 681.935 1648.56 682.681 1648.81 683.179C1649.05 683.677 1649.8 683.677 1650.3 683.428C1650.3 683.428 1652.54 681.686 1655.52 683.179C1658.01 684.423 1660 687.906 1660.25 687.906C1660.25 688.403 1660.5 688.403 1660.75 688.403Z" fill="white"/>
<path d="M1653.53 693.877C1653.78 693.877 1654.03 693.877 1654.28 693.877C1654.78 693.628 1655.02 692.882 1654.78 692.384C1654.78 692.135 1652.29 688.155 1649.3 686.662C1645.07 684.672 1642.09 686.911 1641.84 687.16C1641.34 687.409 1641.34 688.155 1641.59 688.653C1641.84 689.15 1642.59 689.15 1643.08 688.901C1643.08 688.901 1645.32 687.16 1648.31 688.653C1650.8 689.896 1652.79 693.379 1653.03 693.379C1653.03 693.628 1653.28 693.877 1653.53 693.877Z" fill="white"/>
<path d="M1661.74 666.511L1678.66 665.268H1680.65L1684.88 665.019C1684.88 665.019 1696.07 566.009 1699.55 539.639C1702.54 516.753 1715.97 465.257 1724.93 433.415C1727.42 424.459 1729.41 416.748 1730.9 412.021C1731.89 408.289 1732.64 406.051 1732.64 406.051L1675.92 400.08C1675.92 400.08 1675.67 401.324 1675.42 403.563C1674.93 408.041 1673.68 416.996 1672.44 427.942C1668.71 458.043 1662.99 504.563 1660.75 528.445C1654.78 589.642 1661.74 666.511 1661.74 666.511Z" fill="#3C3C48"/>
<path d="M1672.44 427.942L1724.93 433.415C1727.42 424.46 1729.41 416.748 1730.9 412.021L1675.42 403.563C1674.93 408.29 1673.68 416.997 1672.44 427.942Z" fill="#1A100E"/>
<path d="M1678.91 665.517H1680.9C1682.14 634.918 1685.62 558.297 1692.09 525.957C1700.05 485.159 1718.21 425.704 1718.46 425.206L1716.47 424.708C1716.22 425.206 1698.06 484.911 1690.1 525.709C1683.63 558.049 1679.9 634.918 1678.91 665.517Z" fill="#1A100E"/>
<path d="M1680.4 278.432C1672.94 303.558 1653.28 321.469 1653.28 321.469C1642.09 326.693 1612.49 337.639 1602.29 335.649C1602.78 328.683 1602.29 323.708 1601.04 315.001C1615.22 314.503 1640.35 298.831 1640.35 298.831C1662.49 257.784 1665.97 211.513 1665.97 211.513C1680.65 226.688 1680.4 278.432 1680.4 278.432Z" fill="#286361" fill-opacity="0.53"/>
<path d="M1788.61 371.97C1788.61 372.716 1788.61 373.462 1788.86 374.457C1789.61 388.886 1790.35 399.832 1790.6 405.305C1776.92 409.783 1763.24 413.265 1749.56 415.007C1748.81 415.007 1748.31 415.255 1747.57 415.255C1747.32 415.255 1746.82 415.256 1746.57 415.504C1745.83 415.504 1745.08 415.753 1744.33 415.753C1743.59 415.753 1742.59 416.002 1741.85 416.002C1732.39 416.997 1722.94 417.494 1713.49 417.246C1711.5 417.246 1709.75 417.246 1707.76 416.997C1707.51 416.997 1707.51 416.997 1707.51 416.997C1707.02 416.997 1706.52 416.997 1706.02 416.997C1705.77 416.997 1705.52 416.997 1705.03 416.997C1694.08 416.251 1682.89 414.758 1671.69 412.519C1671.44 410.031 1671.19 406.3 1670.95 401.822C1670.95 401.076 1670.95 400.081 1670.7 399.086C1670.2 392.369 1669.95 384.159 1669.45 374.955C1669.45 374.209 1669.45 373.462 1669.2 372.467C1668.96 366.248 1668.46 359.531 1668.21 352.815C1668.21 352.068 1668.21 351.322 1668.21 350.327C1667.96 343.113 1667.46 335.898 1667.21 328.435C1666.97 323.957 1666.72 319.231 1666.72 314.504C1666.47 309.778 1666.47 305.051 1666.22 300.573C1666.22 299.578 1666.22 298.583 1666.22 297.588C1664.73 253.556 1663.98 213.006 1666.97 208.28C1668.96 205.046 1673.43 201.066 1679.16 197.085C1679.9 196.588 1680.4 196.09 1681.15 195.593C1683.38 193.851 1703.04 185.891 1705.52 184.398L1726.42 181.662C1726.67 181.662 1747.07 187.383 1747.32 187.383C1748.31 187.881 1749.06 188.378 1750.05 188.627C1757.77 192.607 1765.48 196.588 1769.96 200.319C1770.7 200.817 1771.2 201.314 1771.7 201.812C1772.19 202.309 1772.44 202.558 1772.69 203.056C1772.94 203.305 1773.19 204.051 1773.44 204.797C1776.67 214.002 1780.16 250.322 1783.14 289.876C1783.39 292.612 1783.64 295.598 1783.89 298.334C1783.89 299.578 1784.14 300.822 1784.14 302.066C1784.14 302.812 1784.38 303.807 1784.38 304.553C1784.38 305.051 1784.38 305.3 1784.38 305.797C1784.63 308.036 1784.63 310.026 1784.88 312.265C1784.88 313.758 1785.13 315.499 1785.13 316.992C1786.62 336.893 1787.87 356.297 1788.61 371.97Z" fill="#71ACAB"/>
<path d="M1713.98 215.992C1725.18 215.246 1734.88 202.807 1735.38 202.31C1735.63 202.061 1735.63 201.564 1735.13 201.315C1734.88 201.066 1734.38 201.066 1734.13 201.564C1734.13 201.812 1723.93 214.748 1712.99 214.748C1712.49 214.748 1712.24 214.997 1712.24 215.495C1712.24 215.992 1712.49 216.241 1712.99 216.241C1713.49 216.241 1713.73 216.241 1713.98 215.992Z" fill="#286361" fill-opacity="0.53"/>
<path d="M1731.89 349.581C1732.39 349.581 1732.64 349.332 1732.64 348.835C1732.64 348.337 1732.39 348.088 1731.89 348.088C1702.79 346.596 1687.61 297.091 1687.61 296.593C1687.36 296.096 1687.12 295.847 1686.62 296.096C1686.12 296.344 1685.87 296.593 1686.12 297.091C1686.62 299.081 1701.54 348.088 1731.89 349.581Z" fill="#286361" fill-opacity="0.53"/>
<path d="M1719.46 335.151C1719.7 335.151 1719.95 334.903 1720.2 334.654C1720.45 334.156 1720.2 333.908 1719.95 333.659C1704.03 325.201 1700.8 311.27 1700.8 311.021C1700.8 310.523 1700.3 310.275 1699.8 310.523C1699.31 310.523 1699.06 311.021 1699.31 311.518C1699.55 312.016 1702.54 326.196 1719.21 335.151C1719.21 335.151 1719.21 335.151 1719.46 335.151Z" fill="#286361" fill-opacity="0.53"/>
<path d="M1742.84 135.639C1742.84 135.639 1746.57 133.152 1744.33 124.445C1742.09 115.738 1747.32 113.001 1743.84 108.275C1740.35 103.548 1737.12 103.3 1734.63 97.3291C1732.39 91.3586 1719.21 87.1295 1711 90.8611C1703.04 94.3438 1690.35 88.6222 1686.12 95.0901C1678.41 106.782 1683.38 111.011 1680.4 113.499C1676.42 117.231 1678.41 141.361 1686.12 142.107C1693.83 143.103 1742.84 135.639 1742.84 135.639Z" fill="#3C3C48"/>
<path d="M1688.11 139.62C1688.11 139.62 1682.89 133.401 1679.4 139.122C1676.17 144.844 1682.14 160.516 1691.1 156.039L1688.11 139.62Z" fill="#FB927E"/>
<path d="M1688.61 151.063C1688.36 151.063 1687.86 150.814 1687.86 150.566C1686.12 145.839 1680.9 144.098 1680.9 144.098C1680.4 143.849 1680.15 143.6 1680.4 143.102C1680.65 142.605 1680.9 142.356 1681.39 142.605C1681.64 142.605 1687.36 144.595 1689.35 150.068C1689.35 150.566 1689.35 151.063 1688.61 151.063Z" fill="#E6765D"/>
<path d="M1683.38 148.825C1683.14 148.825 1683.14 148.825 1682.89 148.825C1682.64 148.576 1682.39 148.078 1682.64 147.83C1682.64 147.83 1683.38 146.337 1685.37 145.342C1685.62 145.093 1686.12 145.342 1686.37 145.591C1686.62 145.839 1686.37 146.337 1686.12 146.586C1684.63 147.332 1684.13 148.327 1684.13 148.576C1683.88 148.825 1683.63 148.825 1683.38 148.825Z" fill="#E6765D"/>
<path d="M1739.11 136.634C1739.11 136.634 1743.59 129.669 1747.57 134.893C1751.55 140.117 1747.32 156.536 1738.11 153.053L1739.11 136.634Z" fill="#FB927E"/>
<path d="M1739.85 148.077C1740.1 148.077 1740.6 147.828 1740.6 147.58C1741.6 142.604 1746.82 140.117 1746.82 140.117C1747.32 139.868 1747.32 139.37 1747.32 139.122C1747.07 138.624 1746.57 138.624 1746.32 138.624C1746.07 138.624 1740.6 141.36 1739.36 147.082C1738.86 147.58 1739.11 147.828 1739.85 148.077C1739.61 148.077 1739.61 148.077 1739.85 148.077Z" fill="#E6765D"/>
<path d="M1744.83 145.342C1745.08 145.342 1745.08 145.342 1745.33 145.093C1745.58 144.845 1745.83 144.347 1745.58 144.098C1745.58 144.098 1744.58 142.606 1742.59 141.859C1742.09 141.611 1741.85 141.859 1741.6 142.357C1741.35 142.854 1741.6 143.103 1742.09 143.352C1743.59 143.849 1744.33 144.845 1744.33 144.845C1744.33 145.093 1744.58 145.342 1744.83 145.342Z" fill="#E6765D"/>
<path d="M1727.42 167.481L1728.41 183.402C1728.41 183.402 1724.18 191.86 1717.71 192.855C1711.25 193.85 1705.03 186.636 1705.03 186.636L1704.03 169.969L1727.42 167.481Z" fill="#FCBB8C"/>
<path d="M1727.42 167.481L1727.91 174.695C1723.93 179.671 1716.22 181.412 1704.78 180.417L1704.28 170.217L1727.42 167.481Z" fill="#FB927E"/>
<path d="M1741.84 125.44C1741.84 131.659 1741.84 139.62 1741.1 145.839C1740.85 147.331 1740.6 148.824 1740.35 150.068C1740.1 150.814 1740.1 151.56 1739.85 152.556C1736.87 164.745 1728.91 182.408 1706.52 175.94C1697.07 173.203 1691.59 163.75 1688.36 153.551C1688.11 153.053 1688.11 152.307 1687.86 151.809C1687.86 151.312 1687.61 151.063 1687.61 150.565L1687.36 150.068V149.819C1685.37 141.859 1684.63 133.898 1684.38 127.927C1684.13 121.957 1687.12 116.484 1692.09 113.25C1705.52 104.294 1720.45 106.533 1730.15 109.519C1737.12 111.757 1741.84 118.225 1741.84 125.44Z" fill="#FCBB8C"/>
<path d="M1726.17 137.879C1726.17 139.62 1725.43 141.113 1724.43 141.113C1723.44 141.113 1722.44 139.869 1722.19 138.128C1722.19 136.386 1722.94 134.894 1723.93 134.894C1725.18 134.894 1726.17 136.137 1726.17 137.879Z" fill="#3C3C48"/>
<path d="M1702.29 139.37C1702.29 141.111 1701.54 142.604 1700.55 142.604C1699.55 142.604 1698.56 141.36 1698.31 139.619C1698.31 137.877 1699.06 136.385 1700.05 136.385C1701.3 136.385 1702.29 137.629 1702.29 139.37Z" fill="#3C3C48"/>
<path d="M1731.89 127.927C1731.89 127.927 1723.93 124.195 1717.47 126.683L1717.96 130.166C1717.96 130.166 1727.17 129.917 1731.65 131.907C1732.39 130.663 1732.39 129.17 1731.89 127.927Z" fill="#3C3C48"/>
<path d="M1693.09 129.918C1693.09 129.918 1700.8 125.689 1707.51 127.679L1707.27 131.162C1707.27 131.162 1698.06 131.411 1693.58 133.898C1692.84 132.654 1692.59 131.411 1693.09 129.918Z" fill="#3C3C48"/>
<path d="M1714.48 152.555C1715.72 152.555 1716.97 151.808 1717.22 151.808C1717.71 151.56 1717.71 151.062 1717.47 150.813C1717.22 150.316 1716.72 150.316 1716.47 150.565C1715.72 150.813 1714.23 151.311 1713.49 151.062C1713.24 151.062 1713.24 150.813 1712.99 150.316C1712.49 147.579 1712.74 138.624 1712.74 138.624C1712.74 138.126 1712.49 137.877 1711.99 137.877C1711.5 137.877 1711.25 138.126 1711.25 138.624C1711.25 139.121 1711 147.828 1711.5 150.565C1711.74 151.56 1712.24 152.057 1712.74 152.306C1713.24 152.555 1713.98 152.555 1714.48 152.555Z" fill="#FB927E"/>
<path d="M1705.28 158.774C1706.02 161.76 1708.26 166.984 1714.73 166.486C1721.2 165.989 1722.69 161.013 1723.19 157.779L1705.28 158.774Z" fill="white"/>
<path d="M1741.84 125.441C1741.84 131.66 1741.84 139.62 1741.1 145.84H1737.62C1737.62 145.84 1738.11 140.615 1738.36 137.133C1738.61 133.65 1738.86 127.182 1735.87 126.684C1732.89 126.187 1734.13 118.724 1729.9 115.739C1725.68 112.505 1716.47 112.256 1710.75 116.236C1705.03 120.216 1698.06 116.734 1695.33 117.48C1692.59 118.226 1689.11 122.207 1690.35 125.689C1691.59 129.172 1688.61 131.411 1688.11 135.143C1687.61 138.874 1690.6 148.576 1690.6 148.576L1687.36 149.322C1685.37 141.362 1684.63 133.401 1684.38 127.431C1684.13 121.46 1687.12 115.987 1692.09 112.753C1705.52 104.295 1720.45 106.534 1730.15 109.519C1737.12 111.758 1741.84 118.226 1741.84 125.441Z" fill="#3C3C48"/>
<path d="M1746.57 248.083L1764.23 229.923H1623.43L1605.52 248.332L1746.57 248.083Z" fill="#3C3C48"/>
<path d="M1744.08 258.282L1737.37 200.568C1737.12 199.324 1736.12 198.329 1734.63 198.578L1653.78 208.031C1652.54 208.28 1651.54 209.275 1651.79 210.768L1658.51 268.233C1658.76 269.477 1659.75 270.472 1661.24 270.223L1742.09 261.019C1743.34 260.77 1744.33 259.526 1744.08 258.282Z" fill="#E3E5E8"/>
<path d="M1654.28 212.011L1660.75 266.491C1661 267.486 1661.74 268.232 1662.74 267.984L1740.35 258.779C1740.85 258.779 1741.35 258.282 1741.84 258.033C1742.09 257.784 1742.09 257.287 1742.09 256.789L1735.63 202.309C1735.63 201.314 1734.63 200.567 1733.64 200.567L1656.02 209.772C1654.78 210.021 1654.03 211.016 1654.28 212.011Z" fill="#F9C94D"/>
<path d="M1672.69 236.142C1673.68 243.854 1680.4 249.327 1688.11 248.332C1695.82 247.337 1701.3 240.62 1700.3 232.908C1699.31 225.196 1692.59 219.723 1684.88 220.718C1677.41 221.713 1671.94 228.679 1672.69 236.142Z" fill="#286361" fill-opacity="0.53"/>
<path d="M1659.01 252.809L1660.5 266.492C1660.75 267.487 1661.49 268.233 1662.49 267.984L1703.78 263.009L1672.69 222.211L1662.24 245.844L1659.01 252.809Z" fill="#1A100E"/>
<path d="M1676.67 266.491L1740.1 259.027C1740.6 259.027 1741.1 258.53 1741.6 258.281L1722.69 234.648L1703.29 210.02L1690.1 238.131L1676.67 266.491Z" fill="#3C3C48"/>
<path d="M1715.72 225.692L1706.27 234.897L1694.58 228.18L1703.29 210.02L1715.72 225.692Z" fill="white"/>
<path d="M1683.38 236.142L1675.17 244.351L1665.47 238.381L1672.69 222.211L1683.38 236.142Z" fill="white"/>
<path d="M1652.04 279.427L1679.65 227.186C1680.15 226.191 1679.9 225.196 1678.91 224.698L1606.02 186.139C1605.02 185.641 1604.03 185.89 1603.53 186.885L1575.92 239.127C1575.42 240.122 1575.67 241.117 1576.66 241.614L1649.55 279.925C1650.55 280.671 1651.54 280.422 1652.04 279.427Z" fill="#E3E5E8"/>
<path d="M1604.28 189.872L1578.65 238.382C1578.16 239.377 1578.65 240.372 1579.4 240.869L1648.56 277.19C1649.05 277.438 1649.55 277.438 1650.05 277.19C1650.55 276.941 1650.8 276.692 1651.04 276.443L1676.42 227.933C1676.92 226.938 1676.67 225.943 1675.67 225.446L1606.76 189.126C1605.77 188.628 1604.77 189.126 1604.28 189.872Z" fill="#F9C94D"/>
<path d="M1606.02 220.469C1602.53 227.186 1605.02 235.644 1611.74 239.127C1618.46 242.61 1626.91 240.122 1630.4 233.405C1633.88 226.689 1631.39 218.231 1624.67 214.748C1617.96 211.016 1609.5 213.753 1606.02 220.469Z" fill="#286361" fill-opacity="0.53"/>
<path d="M1585.12 226.44L1578.65 238.63C1578.16 239.625 1578.65 240.62 1579.4 241.118L1616.22 260.522L1613.73 208.778L1591.84 222.211L1585.12 226.44Z" fill="#1A100E"/>
<path d="M1592.09 247.585L1648.56 277.188C1649.05 277.437 1649.55 277.437 1650.05 277.188L1647.81 246.838L1645.57 215.742L1618.7 231.663L1592.09 247.585Z" fill="#3C3C48"/>
<path d="M1647.31 236.142L1634.13 238.381L1628.41 226.192L1645.82 215.992L1647.31 236.142Z" fill="white"/>
<path d="M1614.72 226.44L1603.53 228.431L1598.8 217.982L1613.73 208.778L1614.72 226.44Z" fill="white"/>
<path d="M1746.57 248.082H1606.51V378.437H1746.57V248.082Z" fill="#1A100E"/>
<path d="M1717.71 378.437H1577.66V247.833L1717.71 248.082V378.437Z" fill="#3C3C48"/>
<path d="M1577.66 247.834L1559 229.425H1699.8L1717.71 248.082L1577.66 247.834Z" fill="#1A100E"/>
<path d="M1710.75 362.019L1707.27 363.512C1704.28 364.756 1701.3 364.009 1698.81 361.77C1697.81 360.775 1696.07 359.034 1695.08 358.536C1692.59 357.044 1686.87 355.302 1685.13 356.049C1683.38 356.546 1685.13 359.531 1686.62 360.278C1688.36 361.024 1690.85 362.019 1692.59 363.512C1694.33 365.004 1687.12 372.467 1683.88 374.955C1680.65 377.443 1673.43 378.189 1674.18 381.423C1674.93 384.657 1679.65 383.164 1679.65 383.164C1679.65 383.164 1679.4 386.398 1684.38 386.896C1684.38 386.896 1684.88 389.881 1687.86 390.13C1687.86 390.13 1688.86 393.613 1692.34 393.115C1695.57 392.866 1706.02 391.623 1719.46 372.965L1710.75 362.019Z" fill="#FCBB8C"/>
<path d="M1709.75 360.028C1709.75 360.028 1758.26 322.713 1773.94 302.811C1773.94 302.811 1771.95 278.432 1769.46 258.779C1768.21 246.092 1767.97 233.405 1769.21 220.718C1769.96 213.503 1770.95 206.787 1772.69 202.558C1772.69 202.558 1786.37 207.035 1793.84 253.058C1798.07 278.183 1799.31 297.836 1799.81 308.284C1800.06 313.508 1798.32 318.484 1795.08 322.464C1784.63 334.903 1758.76 362.018 1721.45 373.959C1721.2 373.959 1711.74 365.999 1709.75 360.028Z" fill="#1F6563"/>
<path d="M1573.68 309.281C1573.68 309.281 1582.88 311.271 1585.37 315.002C1587.86 318.485 1575.17 317.739 1575.17 317.739C1575.17 317.739 1590.59 318.734 1590.84 322.465C1591.34 326.197 1576.41 325.451 1576.41 325.451C1576.41 325.451 1586.61 327.69 1587.36 330.675C1587.86 333.411 1576.91 333.411 1576.91 333.411C1576.91 333.411 1584.87 336.148 1585.62 338.138C1586.36 340.128 1577.16 341.372 1572.43 340.128C1567.71 339.133 1570.69 333.163 1570.69 333.163C1570.69 333.163 1568.95 327.69 1570.94 325.699C1570.94 325.699 1568.7 320.724 1570.19 317.988C1569.95 317.988 1567.71 310.027 1573.68 309.281Z" fill="#FCBB8C"/>
<path d="M951.034 43.6776C961.672 47.3202 972.309 51.1285 983.107 54.4399C1006.16 61.5596 1029.36 68.3482 1052.57 75.3023C1054.83 75.9646 1057.09 76.7925 1060.47 77.9515C1049.19 117.689 1037.91 157.262 1026.46 197C998.096 188.721 970.697 180.608 943.137 172.494C935.723 170.011 928.47 167.527 921.056 165.209C909.774 161.732 909.452 160.739 912.998 149.314C922.668 117.027 932.016 84.7401 941.525 52.2875C941.686 51.4596 941.847 50.6317 942.009 49.8039C942.492 44.1743 945.393 41.6907 951.034 43.6776ZM1026.62 145.506C1027.27 145.009 1028.24 144.512 1028.4 143.85C1033.88 126.134 1039.2 108.252 1044.19 90.3696C1044.68 88.8794 1042.26 85.0712 1040.65 84.4089C1013.57 75.9646 986.492 67.6859 959.254 59.5727C954.419 58.0826 951.195 59.7383 949.906 65.2023C947.811 73.481 945.071 81.4286 942.814 89.7073C939.107 103.45 935.562 117.193 932.016 130.935C929.759 137.393 927.342 143.685 925.569 150.308C925.247 151.632 927.342 154.778 928.792 155.275C934.756 157.593 941.042 159.249 947.166 161.07C970.536 168.19 993.906 175.144 1019.37 182.76C1021.95 169.845 1024.21 157.758 1026.62 145.506Z" fill="#1F6563"/>
<g clip-path="url(#clip0_2003_284)">
<path d="M1237.12 131.677C1237.12 157.953 1215.72 179.347 1189.45 179.347C1181.07 179.347 1172.94 177.021 1166.19 173.301V112.376C1166.19 106.098 1171.31 100.982 1177.59 100.982H1226.42C1232.93 109.353 1237.12 120.05 1237.12 131.677Z" fill="#6DA3A2" fill-opacity="0.53"/>
<path d="M1180.61 170.045C1206.94 170.045 1228.28 148.703 1228.28 122.375C1228.28 96.0481 1206.94 74.7056 1180.61 74.7056C1154.28 74.7056 1132.94 96.0481 1132.94 122.375C1132.94 148.703 1154.28 170.045 1180.61 170.045Z" fill="#3C3C48"/>
<path d="M1185.26 142.373V102.377C1185.26 99.8194 1183.17 97.7266 1180.61 97.7266C1178.05 97.7266 1175.96 99.8194 1175.96 102.377V142.373C1175.96 144.931 1178.05 147.024 1180.61 147.024C1183.17 147.024 1185.26 144.931 1185.26 142.373Z" fill="white"/>
<path d="M1200.61 117.724H1160.61C1158.05 117.724 1155.96 119.817 1155.96 122.375C1155.96 124.933 1158.05 127.026 1160.61 127.026H1200.61C1203.17 127.026 1205.26 124.933 1205.26 122.375C1205.26 119.817 1203.17 117.724 1200.61 117.724Z" fill="white"/>
</g>
<path d="M931.13 130.471C934.874 116.346 938.618 102.221 942.532 88.0965C944.915 79.7577 947.808 71.4189 950.02 62.9099C951.552 57.294 954.785 55.5922 959.891 57.1238C988.481 65.4626 1017.24 73.9716 1045.83 82.6507C1047.7 83.1613 1050.09 87.0754 1049.58 88.7772C1044.3 107.157 1038.51 125.366 1032.9 143.745C1032.73 144.426 1031.71 144.766 1031.03 145.447C1025.41 134.896 1019.79 124.175 1013.84 113.113C1006.01 116.857 998.692 119.92 991.714 123.664C986.949 126.217 983.546 125.536 981.674 120.601C979.291 114.645 975.377 114.815 970.102 116.857C957.168 121.622 944.064 125.876 931.13 130.471ZM967.208 102.051C968.23 102.051 969.251 102.051 970.442 101.881C971.974 98.8178 975.037 95.5844 974.867 92.6913C974.696 90.1386 970.612 88.0965 968.23 85.714C966.017 88.4368 962.443 90.9895 962.103 94.0528C961.763 96.6055 965.337 99.4985 967.208 102.051Z" fill="#D5E6EE"/>
<defs>
<clipPath id="clip0_2003_284">
<rect width="104.176" height="104.641" fill="white" transform="translate(1132.94 74.7056)"/>
</clipPath>
</defs>
</svg>
