<svg width="20" height="20" viewBox="0 0 20 20" fill="none" xmlns="http://www.w3.org/2000/svg">
<path d="M1.96 1C1.42981 1 1 1.56406 1 2.25986V17.7401C1 18.4359 1.42981 19 1.96 19C7.60148 19 10.097 19 18.04 19C18.5702 19 19 18.4359 19 17.7401V2.25986C19 1.56406 18.5702 1 18.04 1H1.96Z" stroke="#1F6563"/>
<path d="M14.9354 10.1448C14.9354 12.7904 12.7907 14.9351 10.1451 14.9351C7.4995 14.9351 5.3548 12.7904 5.3548 10.1448C5.3548 7.49919 7.4995 5.35449 10.1451 5.35449C12.7907 5.35449 14.9354 7.49919 14.9354 10.1448Z" stroke="#1F6563"/>
<path d="M16.6774 4.48425C16.6774 4.96527 16.2874 5.35522 15.8064 5.35522C15.3254 5.35522 14.9354 4.96527 14.9354 4.48425C14.9354 4.00323 15.3254 3.61328 15.8064 3.61328C16.2874 3.61328 16.6774 4.00323 16.6774 4.48425Z" stroke="#1F6563"/>
</svg>
