<svg width="74" height="71" viewBox="0 0 74 71" fill="none" xmlns="http://www.w3.org/2000/svg">
<circle cx="35.5" cy="23.667" r="7.39583" stroke="#1F6563" stroke-width="2.95833" stroke-linecap="round"/>
<path d="M40.7303 19.2295C41.3154 18.2161 42.1879 17.3989 43.2375 16.8813C44.287 16.3638 45.4664 16.169 46.6266 16.3218C47.7868 16.4745 48.8757 16.9679 49.7555 17.7394C50.6353 18.511 51.2665 19.5261 51.5694 20.6565C51.8723 21.7868 51.8332 22.9816 51.457 24.0897C51.0808 25.1978 50.3846 26.1695 49.4562 26.8818C48.5278 27.5942 47.409 28.0153 46.2413 28.0918C45.0736 28.1684 43.9094 27.8969 42.896 27.3118" stroke="#1F6563" stroke-width="2.95833"/>
<path d="M30.2697 19.2295C29.6846 18.2161 28.8121 17.3989 27.7625 16.8813C26.713 16.3638 25.5336 16.169 24.3734 16.3218C23.2132 16.4745 22.1243 16.9679 21.2445 17.7394C20.3647 18.511 19.7335 19.5261 19.4306 20.6565C19.1277 21.7868 19.1668 22.9816 19.543 24.0897C19.9192 25.1978 20.6154 26.1695 21.5438 26.8818C22.4722 27.5942 23.591 28.0153 24.7587 28.0918C25.9264 28.1684 27.0906 27.8969 28.104 27.3118" stroke="#1F6563" stroke-width="2.95833"/>
<path d="M35.4998 36.9795C47.5705 36.9795 50.6865 46.7484 51.4908 51.7918C51.7481 53.4053 50.4462 54.7295 48.8123 54.7295H22.1873C20.5535 54.7295 19.2516 53.4053 19.5089 51.7918C20.3132 46.7484 23.4291 36.9795 35.4998 36.9795Z" stroke="#1F6563" stroke-width="2.95833" stroke-linecap="round"/>
<path d="M45.8545 34.0205L45.8545 32.5413H45.8545V34.0205ZM57.0859 45.6064L58.5208 45.2472L58.5208 45.2471L57.0859 45.6064ZM54.4189 48.8125V50.2917H54.4192L54.4189 48.8125ZM50.8262 48.8125L49.4053 49.2236L49.7143 50.2917H50.8262V48.8125ZM38.7178 37.2334L37.6255 36.2359L35.7899 38.246L38.4751 38.6925L38.7178 37.2334ZM45.8545 34.0205L45.8544 35.4997C48.8947 35.4998 51.03 36.9869 52.5944 39.0705C54.1901 41.1957 55.1272 43.8739 55.6511 45.9658L57.0859 45.6064L58.5208 45.2471C57.9553 42.9891 56.8975 39.8744 54.9601 37.2942C52.9916 34.6724 50.0558 32.5415 45.8545 32.5413L45.8545 34.0205ZM57.0859 45.6064L55.6511 45.9657C55.8101 46.6011 55.3433 47.3332 54.4187 47.3333L54.4189 48.8125L54.4192 50.2917C56.9945 50.2913 59.2118 48.007 58.5208 45.2472L57.0859 45.6064ZM54.4189 48.8125V47.3333H50.8262V48.8125V50.2917H54.4189V48.8125ZM50.8262 48.8125L52.2471 48.4014C50.8534 43.5848 47.39 37.176 38.9604 35.7743L38.7178 37.2334L38.4751 38.6925C45.2791 39.8239 48.1566 44.9079 49.4053 49.2236L50.8262 48.8125ZM38.7178 37.2334L39.81 38.2309C41.2906 36.6096 43.2245 35.4997 45.8545 35.4997V34.0205V32.5413C42.2535 32.5413 39.5648 34.1123 37.6255 36.2359L38.7178 37.2334Z" fill="#1F6563"/>
<path d="M25.145 34.0205V32.5413H25.145L25.145 34.0205ZM32.2808 37.2334L32.5235 38.6925L35.2087 38.2458L33.373 36.2359L32.2808 37.2334ZM20.1733 48.8125V50.2917H21.2852L21.5942 49.2236L20.1733 48.8125ZM16.5806 48.8125L16.5803 50.2917H16.5806V48.8125ZM13.9136 45.6064L12.4787 45.2471L12.4787 45.2472L13.9136 45.6064ZM25.145 34.0205V35.4997C27.7745 35.4997 29.7078 36.6097 31.1886 38.2309L32.2808 37.2334L33.373 36.2359C31.4339 34.1128 28.7459 32.5413 25.145 32.5413V34.0205ZM32.2808 37.2334L32.038 35.7743C23.6092 37.1764 20.146 43.585 18.7525 48.4014L20.1733 48.8125L21.5942 49.2236C22.8429 44.9081 25.7202 39.8242 32.5235 38.6925L32.2808 37.2334ZM20.1733 48.8125V47.3333H16.5806V48.8125V50.2917H20.1733V48.8125ZM16.5806 48.8125L16.5808 47.3333C15.6563 47.3332 15.1894 46.601 15.3485 45.9657L13.9136 45.6064L12.4787 45.2472C11.7877 48.007 14.005 50.2913 16.5803 50.2917L16.5806 48.8125ZM13.9136 45.6064L15.3484 45.9658C15.8723 43.8739 16.8094 41.1958 18.4051 39.0705C19.9696 36.9869 22.1049 35.4998 25.1451 35.4997L25.145 34.0205L25.145 32.5413C20.9437 32.5415 18.008 34.6724 16.0394 37.2942C14.1021 39.8744 13.0442 42.9891 12.4787 45.2471L13.9136 45.6064Z" fill="#1F6563"/>
<path d="M67 10.5V22.5" stroke="#1F6563" stroke-width="2" stroke-linecap="round"/>
<path d="M61 16.2363L72.9977 16.0001" stroke="#1F6563" stroke-width="2" stroke-linecap="round"/>
</svg>
