<svg xmlns="http://www.w3.org/2000/svg" viewBox="0 0 539 380" preserveAspectRatio="xMidYMid meet"><path fill="#0372a9" d="m267.895-.193 3.602-.049c5.439-.044 10.878-.086 16.317-.108a911 911 0 0 0 8.589-.082c3.474-.05 6.947-.074 10.421-.08a456 456 0 0 0 5.845-.08c8.619.02 15.811 1.273 22.232 7.41 7.837 8.904 8.235 23.91 10.224 35.244q.594 3.365 1.193 6.728.536 3.015 1.065 6.03c.547 3.185.547 3.185 1.617 6.18.069 2.228.085 4.458.062 6.687l-.027 3.575L349 74h3l-.125 2.625c1.544 4.631 3.895 5.866 8.07 8.183C365.258 86.881 370.329 86.88 376 87V74h14l-.051 3.238a626 626 0 0 0-.016 12.021q.005 2.589-.039 5.178c-.362 12.283-.362 12.283 5.61 22.633A186 186 0 0 0 400 121l1 2 1-11h13v-11h-13V74h26v14h-12v12h13v13h-13v12h12v51h-2l.621 1.95c2.192 7.35 3.026 14.4 3.379 22.05h10v-25h38v14h-25v12h-12v13h-10l.105 2.578c.177 7.917-.35 15.462-1.543 23.297l-.407 2.684c-1.012 6.298-1.012 6.298-2.155 7.441-2.02.072-4.042.084-6.063.062l-3.347-.027L415 250v2h-4v6h14l-1 5h3v-12h13v24h12v-36h-13v-14h14v13h11v-13h13v-25h24v-11h-12v-14h26v25h13v14h-13v11h13v14h-13v24h13v64h-14v-25h-11v12h-14v-12h-11v24h26v14h-40v-13h-37v13h-25v-14h24v-11h-12v-13l-4.375.375-2.461.211c-2.367.243-2.367.243-4.164 2.414-.462 2.432-.462 2.432-.625 5.125l-.227 2.758L402 315l-3.25.25c-4.268.854-5.272 1.247-7.75 4.75-.629 3.243-.696 6.452-.75 9.75l-.09 2.691q-.105 3.28-.16 6.56c-.868-.019-.868-.019-1.753-.036-12.63-.14-20.527.346-30.247 9.035-2.303 1.23-4.546 2.093-7 3-1.584 1.584-1.22 3.277-1.316 5.473l-.127 2.724-.12 2.865-.13 2.877q-.16 3.53-.307 7.061c-39.815.091-79.629.162-119.444.204l-14.107.016-2.837.003c-15.15.017-30.3.05-45.45.085q-23.326.057-46.651.068-14.388.008-28.776.056-9.871.03-19.744.022c-3.795-.003-7.589.001-11.384.023-4.121.023-8.242.015-12.364.004l-3.605.035c-11.54-.082-20.176-3.029-28.536-11.07-4.858-5.653-7.222-12.54-7.233-19.955l-.012-2.74.003-2.997-.009-3.194a4709 4709 0 0 1-.012-10.63l-.015-7.609q-.019-10.349-.024-20.697-.005-6.465-.012-12.929-.019-17.907-.026-35.814v-2.315l-.001-2.32-.001-4.655-.001-2.333q-.008-18.695-.045-37.39-.035-19.206-.037-38.41 0-10.78-.025-21.557-.024-10.143-.01-20.285.002-3.719-.013-7.438c-.013-3.39-.007-6.78.003-10.17l-.024-2.957c.071-9.954 2.235-18.816 9.392-26.05 7.422-6.084 14.285-8.297 23.937-8.126.684.01 1.368.018 2.073.027 1.663.023 3.327.06 4.99.098l.516-3.035c2.992-16.792 2.992-16.792 10.046-21.715 21.577-12.192 61.585-8.727 84.497-2.406C149.258 35.556 154.746 37.37 158 42c1.976 4.238 3.53 8.564 5 13l2 6h70l5-30c4.554-21.252 4.554-21.252 13.625-27.563 4.783-2.962 8.673-3.56 14.27-3.63M403 126l3 5c1.084 2.306 2.029 4.643 3 7h6v-12zm75 100v12h11v-12zm25 0v12h11v-12zm-13 13v24h12v-24zm-25 12v12h12v-12zm38 13v12h11v-12zm-84 12c-3.631 6.334-3.631 6.334-4.391 12.5l.039 2.246.102 2.254.055 2.348c.046 1.884.118 3.768.195 5.652h12v13h37v-12h-13v-13h-12v-13zm59 0v12h11v-12zm-13 13v12h12v-12zm25 0v12h12v-12z"/><path fill="#2a2928" d="M489 175h26v25h13v14h-13v11h13v14h-13v24h13v64h-14v-25h-11v12h-14v-12h-11v24h26v14h-40v-13h-37v13h-25v-14h24v-11h-12v-13l-10 1c1.349-3.602 2.957-6.829 4.938-10.125l1.527-2.57C412 288 412 288 415 285v16h12v13h37v-12h-13v-13h-12v-13h-20c2-9 2-9 4-13h4v-12h13v24h12v-36h-13v-14h14v13h11v-13h13v-25h24v-11h-12zm-11 51v12h11v-12zm25 0v12h11v-12zm-13 13v24h12v-24zm-25 12v12h12v-12zm38 13v12h11v-12zm-25 12v12h11v-12zm-13 13v12h12v-12zm25 0v12h12v-12z"/><path fill="#fcfdfd" d="M412 141c5.062 9.94 9.559 19.853 12.938 30.5l.853 2.672c2.584 8.441 4.603 16.962 4.209 25.828h10v-25h38v14h-25v12h-12v13h-10l.105 2.578c.177 7.917-.35 15.462-1.543 23.297l-.407 2.685c-1.012 6.297-1.012 6.297-2.155 7.44-1.62.096-3.243.122-4.866.12l-3.191.004-3.531-.01h-3.695q-5.03-.002-10.06-.013c-3.5-.006-7.001-.006-10.502-.008q-9.95-.005-19.9-.021-11.325-.016-22.65-.022-23.303-.016-46.605-.05c5.017-6.055 10.453-11.601 16.013-17.158l3.007-3.018q4.057-4.068 8.119-8.131 2.538-2.538 5.075-5.08 8.85-8.864 17.708-17.72 8.26-8.26 16.506-16.532 7.088-7.107 14.186-14.204a6155 6155 0 0 0 8.468-8.481 3310 3310 0 0 1 7.949-7.951q1.462-1.461 2.919-2.927a993 993 0 0 1 3.978-3.973l2.25-2.252C410 141 410 141 412 141"/><path fill="#fbfcfc" d="M318 67c6.141 1.365 11.384 2.712 17.062 5.125l2.179.911C346.002 76.762 355.066 80.711 363 86c3.198.46 3.198.46 6.688.625L376 87V74h14l-.051 3.238a626 626 0 0 0-.016 12.021q.005 2.589-.039 5.179c-.387 12.153-.387 12.153 5.418 22.417A186 186 0 0 0 400 121c1.4 1.777 2.772 3.579 4.062 5.438l1.723 2.433C407 131 407 131 407 134c-1.46 1.538-1.46 1.538-3.485 3.179-4.493 3.768-8.621 7.8-12.751 11.959l-2.363 2.368a3993 3993 0 0 0-5.032 5.05q-3.974 3.992-7.954 7.978a26859 26859 0 0 0-16.853 16.904 30281 30281 0 0 1-19.604 19.66q-3.929 3.94-7.853 7.884l-4.775 4.785-2.218 2.234-2.008 2.009-1.754 1.76C319 221 319 221 318 221z"/><path fill="#fcfdfd" d="M270 258h155c-.732 3.658-1.411 6.286-2.812 9.625a186 186 0 0 0-4.126 11c-1.785 4.946-4.087 9.061-7.062 13.375a2621 2621 0 0 0-3.188 4.75l-1.48 2.172c-2.474 3.859-3.593 6.721-3.957 11.328l-.227 2.703L402 315l-3.25.25c-4.268.854-5.272 1.247-7.75 4.75-.629 3.244-.696 6.453-.75 9.75l-.09 2.691q-.105 3.28-.16 6.559l-1.753-.035c-12.754-.142-20.612.167-30.247 9.035h-2c-1.34-1.363-1.34-1.363-2.938-3.312-3.831-4.52-7.981-8.644-12.218-12.782-2.053-2.047-3.948-4.177-5.824-6.386-4.318-4.953-8.958-9.572-13.621-14.196q-2.389-2.37-4.771-4.747A9623 9623 0 0 0 306.5 296.5q-5.88-5.844-11.752-11.696-2.329-2.318-4.664-4.632C282.959 273.084 276.432 265.719 270 258"/><path fill="#fbfcfd" d="M193.893 85.23c2.578.942 3.875 2.164 5.815 4.104l2.184 2.162 2.365 2.388c1.244 1.24 1.244 1.24 2.514 2.503q4.115 4.109 8.213 8.234 2.85 2.851 5.7 5.698a7476 7476 0 0 1 11.933 11.962q6.9 6.928 13.818 13.836 6.648 6.642 13.285 13.297 2.828 2.834 5.66 5.663 3.947 3.949 7.88 7.91c.79.785 1.578 1.571 2.39 2.381l2.15 2.171 1.883 1.89C281 171 281 171 281 173H127c6.31-25.24 19.623-47.009 37.623-65.572a231 231 0 0 0 3.611-3.854c18.19-19.249 18.19-19.249 25.66-18.345"/><path fill="#fcfcfd" d="m127.06 180.877 2.768.003 3.166-.004 3.503.011 3.665-.001q4.99.002 9.979.013 5.209.007 10.418.008 9.87.005 19.74.021 11.235.015 22.47.022 23.115.016 46.23.05c-1.502 3.516-3.53 5.777-6.225 8.467l-2.686 2.694-2.953 2.932q-1.553 1.552-3.105 3.105-4.212 4.211-8.435 8.41-4.41 4.395-8.812 8.797-8.34 8.33-16.692 16.648a30871 30871 0 0 0-19.001 18.958A57480 57480 0 0 1 142 290c-3-1-3-1-4.613-3.781a195 195 0 0 1-1.7-3.719l-.916-2.028C120.969 249.323 116.826 215.529 124 182c1-1 1-1 3.06-1.123"/><path fill="#fcfdfd" d="m276.125 60.625 2.147-.024C289.333 60.506 298.905 62.042 310 64v125c-4.084-3.501-7.941-6.816-11.714-10.58l-2.63-2.617-2.814-2.816-3.018-3.007a8891 8891 0 0 1-8.131-8.119l-5.08-5.075q-8.864-8.85-17.72-17.708a15133 15133 0 0 0-16.532-16.506q-7.107-7.088-14.204-14.186a6155 6155 0 0 0-8.481-8.468 3310 3310 0 0 1-7.951-7.949q-1.461-1.462-2.927-2.919a993 993 0 0 1-3.973-3.978l-2.252-2.25C201 81 201 81 201 79c24.885-11.855 47.513-18.201 75.125-18.375"/><path fill="#fafcfc" d="M241 242c3.617 1.808 4.683 2.509 7.066 5.438 4.192 4.946 8.75 9.492 13.35 14.053q2.338 2.32 4.67 4.646Q271.04 271.072 276 276q5.756 5.719 11.504 11.448a2785 2785 0 0 0 4.564 4.532c4.553 4.53 8.955 9.118 13.134 13.995 3.774 4.25 7.859 8.207 11.888 12.213l2.862 2.857q3.728 3.722 7.462 7.437 3.823 3.81 7.643 7.623Q342.524 343.557 350 351c-11.197 8.556-26.266 12.42-39.824 15.496-1.944.45-3.874.958-5.801 1.473-9.429 2.233-18.805 2.318-28.437 2.343l-2.045.012c-24.109.068-24.109.068-32.893-4.324z"/><path fill="#fdfdfd" d="M233 211v153c-6.097-1.355-11.086-2.605-16.625-5.125l-2.068-.928c-17.762-8.096-32.89-18.012-46.926-31.617a189 189 0 0 0-3.584-3.342C156.367 316.027 149.5 307.155 145 298a90845 90845 0 0 1 33.978-34.03q7.89-7.897 15.776-15.8 6.87-6.885 13.746-13.764a7153 7153 0 0 0 7.282-7.294q4.056-4.066 8.118-8.126l2.454-2.465 2.223-2.218 1.941-1.944C232 211 232 211 233 211"/><path fill="#292827" d="m440 74 44.438-.062 14.052-.028c5.645-.005 5.645-.005 8.284-.005q2.777-.003 5.552-.011 4.196-.01 8.391-.008l2.515-.01c5.654.01 5.654.01 6.768 1.124.1 2.703.136 5.38.129 8.084l.006 2.567q.004 4.22-.002 8.443l.003 5.84q.002 6.128-.006 12.257-.006 7.874.004 15.749.005 6.032 0 12.064-.001 2.904.002 5.809.003 4.051-.007 8.103l.007 2.45c-.022 5.52-.022 5.52-1.136 6.634-2.769.095-5.514.126-8.283.114h-2.674q-4.305-.003-8.609-.016l-5.299-.003c-6.566-.006-13.132-.02-19.697-.033L440 163zm14 13v63h62V87z"/><path fill="#2a2928" d="M465 99h40v39h-40z"/><path fill="#2a2927" d="M402 74h26v14h-12v12h13v13h-13v12h12v51h-3l-.547-1.737c-4.722-14.942-4.722-14.942-11.387-29.083C412 143 412 143 412 140l-3-1v-1h6v-12h-13v-14h13v-11h-13z"/><path fill="#2b2a29" d="M440 175h38v14h-25v12h-12v13c-7.715.098-7.715.098-10 0-1-1-1-1-1.098-3.941l.036-3.621.027-3.629L430 200h10z"/><path fill="#0875ab" d="M349 352v20q-13.014.035-26.028.052-6.045.007-12.089.023-5.845.016-11.691.02-2.218.003-4.436.011c-8.302.029-16.5-.143-24.756-1.106v-1l3.793-.008c21.556-.352 43.436-4.181 63.207-12.992l3.363-1.488q2.86-1.288 5.696-2.629C348 352 348 352 349 352"/><path fill="#2d2c2b" d="M416 125h12v51h-3l-.547-1.737c-4.722-14.942-4.722-14.942-11.387-29.083C412 143 412 143 412 140l-3-1v-1h6l-.035-2.59-.027-3.348-.036-3.339C415 126 415 126 416 125"/><path fill="#2b2a29" d="M376 74h14v36l-7-6a2044 2044 0 0 0-3.57-3.035l-3.555-3.027-1.801-1.526A148 148 0 0 1 364 87h12z"/><path fill="#2c2b2a" d="M390 321v18h-20a471 471 0 0 1 12.25-11.812l1.93-1.811 1.836-1.709 1.665-1.554C389 321 389 321 390 321"/><path fill="#2d2d2c" d="M401 306h1v9h-7c1.527-3.436 3.55-6.155 6-9"/><path fill="#2a2928" d="M349 74h3v6l-3-1z"/></svg>