<svg width="97" height="108" viewBox="0 0 97 108" fill="none" xmlns="http://www.w3.org/2000/svg">
<path d="M47 107.75C41.35 107.75 35.95 106.1 31.9 103.05L10.4 86.9997C4.69997 82.7497 0.249969 73.8997 0.249969 66.7997V29.5997C0.249969 21.8997 5.89997 13.6997 13.15 10.9997L38.1 1.64971C43.05 -0.200293 50.85 -0.200293 55.8 1.64971L80.8 10.9997C88.05 13.6997 93.7 21.8997 93.7 29.5997V46.7497C93.7 48.7997 92 50.4997 89.95 50.4997C87.9 50.4997 86.2 48.7997 86.2 46.7497V29.5997C86.2 25.0497 82.45 19.6497 78.15 17.9997L53.2 8.64971C49.9 7.39971 44.05 7.39971 40.75 8.64971L15.8 18.0497C11.5 19.6497 7.74997 25.0497 7.74997 29.6497V66.7997C7.74997 71.5497 11.1 78.1997 14.85 80.9997L36.35 97.0497C39.1 99.0997 42.95 100.25 46.95 100.25C49 100.25 50.7 101.95 50.7 104C50.7 106.05 49.05 107.75 47 107.75Z" fill="white"/>
<path d="M67 97.75C53.9 97.75 43.25 87.1 43.25 74C43.25 60.9 53.9 50.25 67 50.25C80.1 50.25 90.75 60.9 90.75 74C90.75 87.1 80.1 97.75 67 97.75ZM67 57.8C58.05 57.8 50.75 65.1 50.75 74.05C50.75 83 58.05 90.3 67 90.3C75.95 90.3 83.25 83 83.25 74.05C83.25 65.1 75.95 57.8 67 57.8Z" fill="white"/>
<path d="M92 104.001C91.65 104.001 91.35 103.951 91 103.901C90.7 103.851 90.4 103.751 90.1 103.601C89.8 103.501 89.5 103.351 89.2 103.151C88.95 102.951 88.7 102.751 88.45 102.551C87.55 101.601 87 100.301 87 99.001C87 98.351 87.15 97.701 87.4 97.101C87.65 96.501 88 95.951 88.45 95.451C90.3 93.601 93.7 93.601 95.55 95.451C96 95.951 96.35 96.501 96.6 97.101C96.85 97.701 97 98.351 97 99.001C97 100.301 96.45 101.601 95.55 102.551C94.6 103.451 93.3 104.001 92 104.001Z" fill="white"/>
</svg>
