<svg width="35" height="35" viewBox="0 0 35 35" fill="none" xmlns="http://www.w3.org/2000/svg">
<path d="M20.7935 14.583L17.5005 29.6328L14.2085 14.583H20.7935ZM4.54834 14.4727C4.71983 14.5435 4.90785 14.583 5.10498 14.583H11.2231L13.7212 26.0068L5.34131 15.7646C4.86792 15.1861 4.6316 14.8959 4.55908 14.5449C4.55415 14.521 4.55167 14.4968 4.54834 14.4727ZM30.4419 14.5449C30.3694 14.8959 30.1331 15.1861 29.6597 15.7646L21.2788 26.0059L23.7788 14.583H29.897C30.0935 14.5829 30.2806 14.5432 30.4517 14.4727C30.4483 14.4967 30.4468 14.521 30.4419 14.5449ZM23.3091 4.375C25.4265 4.375 26.4855 4.37489 27.2651 4.96289C28.0448 5.55101 28.3357 6.56936 28.9175 8.60547L29.7925 11.666H23.8159L22.4487 4.375H23.3091ZM12.5532 4.375L11.186 11.666H5.2085L6.0835 8.60547C6.66524 6.56936 6.95616 5.55101 7.73584 4.96289C8.51551 4.37489 9.57445 4.375 11.6919 4.375H12.5532ZM19.48 4.375L20.8472 11.666H14.1538L15.521 4.375H19.48Z" fill="#E6F9FA"/>
</svg>
