<svg width="23" height="23" viewBox="0 0 23 23" fill="none" xmlns="http://www.w3.org/2000/svg">
<g clip-path="url(#clip0_2413_2170)">
<path d="M20.1953 15.6016C20.6543 15.6016 21.1133 16.0605 21.1133 16.5195V20.1914C21.1133 20.6504 20.6543 21.1094 20.1953 21.1094H15.6055C15.1465 21.1094 14.6875 20.6504 14.6875 20.1914V16.5195C14.6875 16.0605 15.1465 15.6016 15.6055 15.6016V14.2246C15.6055 12.9395 16.6152 11.9297 17.9004 11.9297C19.1855 11.9297 20.1953 12.9395 20.1953 14.2246V15.6016ZM19.2773 15.6016V14.2246C19.2773 13.4902 18.6348 12.8477 17.9004 12.8477C17.166 12.8477 16.5234 13.4902 16.5234 14.2246V15.6016H19.2773ZM16.0645 10.0937V9.63476C16.0645 6.84414 13.8062 4.58594 11.0156 4.58594C8.7207 4.58594 6.76543 6.1373 6.15957 8.25781H5.50781C3.4791 8.25781 1.83594 9.90098 1.83594 11.9297C1.83594 13.9584 3.4791 15.6016 5.50781 15.6016H13.0076C12.9066 15.8861 12.8516 16.1982 12.8516 16.5195V17.4375H5.50781C2.46934 17.4375 0 14.9682 0 11.9297C0 9.08398 2.14805 6.75234 4.91113 6.45859C6.05859 4.25547 8.36269 2.75 11.0156 2.75C14.357 2.75 17.1385 5.13672 17.7719 8.29453C20.1494 8.45976 22.0312 10.4242 22.0312 12.8477L21.9762 13.5545C21.6549 11.59 19.9566 10.0937 17.9004 10.0937H16.0645Z" fill="#E6F9FA"/>
</g>
<defs>
<clipPath id="clip0_2413_2170">
<rect width="22.0312" height="22.0312" fill="white"/>
</clipPath>
</defs>
</svg>
