<svg width="24" height="23" viewBox="0 0 24 23" fill="none" xmlns="http://www.w3.org/2000/svg">
<path d="M14.8223 9.50098L12 22.4023L9.17773 9.50098H14.8223ZM23.0928 9.46777C23.0305 9.7685 22.8275 10.0169 22.4219 10.5127L15.2383 19.291L17.3809 9.50098H22.625C22.7938 9.50098 22.9546 9.46594 23.1016 9.40527C23.0987 9.42601 23.097 9.4472 23.0928 9.46777ZM0.898438 9.40527C1.0454 9.46603 1.20609 9.50094 1.375 9.50098H6.61914L8.75977 19.2891L1.5791 10.5127C1.17348 10.0169 0.970445 9.76849 0.908203 9.46777C0.903945 9.44716 0.901306 9.42605 0.898438 9.40527ZM16.9785 0.75C18.7937 0.75 19.7018 0.749876 20.3701 1.25391C21.0384 1.75799 21.2875 2.63088 21.7861 4.37598L22.5361 7.00098H17.4121L16.2402 0.75H16.9785ZM7.75977 0.75L6.58789 7.00098H1.46387L2.21387 4.37598C2.71251 2.63073 2.96256 1.75801 3.63086 1.25391C4.29912 0.749984 5.20671 0.75 7.02148 0.75H7.75977ZM13.6973 0.75L14.8691 7.00098H9.13086L10.3027 0.75H13.6973Z" fill="#E6F9FA"/>
</svg>
