<svg width="22" height="22" viewBox="0 0 22 22" fill="none" xmlns="http://www.w3.org/2000/svg">
<path d="M10.5428 10.0833L16.3911 15.0058L15.5845 15.1708L14.9978 15.2808C14.4203 15.4 14.0903 16.0417 14.347 16.5642L14.5945 17.0958L15.8411 19.7908L14.5395 20.3958L13.2928 17.71L13.0545 17.1783C12.807 16.6375 12.1195 16.4725 11.6611 16.8483L11.1936 17.215L10.5428 17.7375V10.0833ZM9.86447 7.96583C9.67971 7.96583 9.50251 8.03923 9.37185 8.16988C9.2412 8.30053 9.16781 8.47773 9.16781 8.6625V19.1583C9.16781 19.5433 9.47947 19.855 9.86447 19.855C10.0386 19.855 10.1853 19.8 10.3045 19.7083L12.0553 18.2875L13.577 21.6058C13.6961 21.8533 13.9436 22 14.2095 22C14.3103 22 14.4111 22 14.512 21.9267L17.042 20.7533C17.3903 20.5883 17.5553 20.1667 17.372 19.8275L15.8411 16.5L18.0503 16.0875C18.197 16.0417 18.3345 15.9775 18.4445 15.8492C18.692 15.5558 18.6553 15.125 18.3345 14.8592L10.3228 8.12167L10.3136 8.13083C10.1945 8.03 10.0386 7.96583 9.86447 7.96583ZM13.7511 9.16667V7.33333H18.3345V9.16667H13.7511ZM12.6786 4.36333L15.2728 1.76917L16.5653 3.06167L13.9711 5.65583L12.6786 4.36333ZM9.16781 0H11.0011V4.58333H9.16781V0ZM3.60364 13.4383L6.19781 10.8442L7.49031 12.1367L4.89614 14.7308L3.60364 13.4383ZM3.60364 3.06167L4.89614 1.76917L7.49031 4.36333L6.19781 5.65583L3.60364 3.06167ZM6.41781 9.16667H1.83447V7.33333H6.41781V9.16667Z" fill="#E6F9FA"/>
</svg>
