<svg width="111" height="99" viewBox="0 0 111 99" fill="none" xmlns="http://www.w3.org/2000/svg">
<path d="M28.2087 0.375C33.5652 0.375 36.2436 0.374993 38.5485 1.52734C40.8535 2.67985 42.4613 4.82285 45.6755 9.1084L55.4997 22.208H92.6169C98.7306 22.208 101.788 22.2086 104.123 23.3984C106.177 24.445 107.847 26.1149 108.893 28.1689C110.083 30.5041 110.084 33.561 110.084 39.6748V81.1582C110.084 87.272 110.083 90.3289 108.893 92.6641C107.847 94.7182 106.177 96.3889 104.123 97.4355C101.788 98.6253 98.7305 98.625 92.6169 98.625H18.3835C12.2699 98.625 9.21275 98.6252 6.8776 97.4355C4.8235 96.3889 3.15274 94.7182 2.10612 92.6641C0.916489 90.3289 0.916667 87.2717 0.916667 81.1582V22.208C0.916667 11.9159 0.916551 6.76965 4.11393 3.57227C7.31132 0.374884 12.4576 0.375 22.7497 0.375H28.2087ZM36.5583 57.8496L39.1247 60.417L41.6911 62.9834L51.8698 52.8047V82.25H59.1296V52.8047L69.3083 62.9834L71.8747 60.417L74.4411 57.8496L55.4997 38.9082L36.5583 57.8496Z" fill="#1F6563"/>
</svg>
