<svg width="142" height="29" viewBox="0 0 142 29" fill="none" xmlns="http://www.w3.org/2000/svg">
<path d="M13.6978 13.5542L16.2027 9.68136L23.5053 10.0531L13.6978 13.5542Z" fill="#F4DD71"/>
<path d="M13.6812 13.4509L17.7883 14.9804L19.5342 22.7398L13.6812 13.4509Z" fill="#F4DD71"/>
<path d="M13.7485 13.4712L13.6918 18.2088L7.47833 22.4296L13.7485 13.4712Z" fill="#F4DD71"/>
<path d="M13.7443 13.6724L9.59533 15.0606L4.01661 9.88973L13.7443 13.6724Z" fill="#F4DD71"/>
<path d="M13.7015 13.6218L11.1749 9.76975L13.8871 2.34871L13.7015 13.6218Z" fill="#F4DD71"/>
<path d="M17.9283 14.9665L13.7803 13.494L23.4637 10.0996L17.9283 14.9665Z" fill="url(#paint0_linear_2457_2085)"/>
<path d="M13.6592 18.2815L13.7733 13.5188L19.495 22.7048L13.6592 18.2815Z" fill="url(#paint1_linear_2457_2085)"/>
<path d="M9.53663 14.9469L13.7186 13.5869L7.4972 22.3772L9.53663 14.9469Z" fill="url(#paint2_linear_2457_2085)"/>
<path d="M11.1706 9.74531L13.634 13.6778L4.06784 9.8945L11.1706 9.74531Z" fill="url(#paint3_linear_2457_2085)"/>
<path d="M16.2917 9.70621L13.6623 13.5084L13.8999 2.40225L16.2917 9.70621Z" fill="url(#paint4_linear_2457_2085)"/>
<path d="M71.3735 13.5542L73.8785 9.68136L81.1811 10.0531L71.3735 13.5542Z" fill="#F4DD71"/>
<path d="M71.357 13.4509L75.4641 14.9804L77.21 22.7398L71.357 13.4509Z" fill="#F4DD71"/>
<path d="M71.4242 13.4712L71.3676 18.2088L65.1541 22.4296L71.4242 13.4712Z" fill="#F4DD71"/>
<path d="M71.4201 13.6724L67.2711 15.0606L61.6924 9.88973L71.4201 13.6724Z" fill="#F4DD71"/>
<path d="M71.3773 13.6218L68.8506 9.76975L71.5629 2.34871L71.3773 13.6218Z" fill="#F4DD71"/>
<path d="M75.6041 14.9665L71.4561 13.494L81.1395 10.0996L75.6041 14.9665Z" fill="url(#paint5_linear_2457_2085)"/>
<path d="M71.335 18.2815L71.4491 13.5188L77.1708 22.7048L71.335 18.2815Z" fill="url(#paint6_linear_2457_2085)"/>
<path d="M67.2124 14.9469L71.3943 13.5869L65.173 22.3772L67.2124 14.9469Z" fill="url(#paint7_linear_2457_2085)"/>
<path d="M68.8459 9.74531L71.3093 13.6778L61.7431 9.8945L68.8459 9.74531Z" fill="url(#paint8_linear_2457_2085)"/>
<path d="M73.9675 9.70621L71.338 13.5084L71.5757 2.40225L73.9675 9.70621Z" fill="url(#paint9_linear_2457_2085)"/>
<path d="M42.5356 13.5542L45.0406 9.68136L52.3432 10.0531L42.5356 13.5542Z" fill="#F4DD71"/>
<path d="M42.5191 13.4509L46.6262 14.9804L48.3721 22.7398L42.5191 13.4509Z" fill="#F4DD71"/>
<path d="M42.5864 13.4712L42.5297 18.2088L36.3162 22.4296L42.5864 13.4712Z" fill="#F4DD71"/>
<path d="M42.5822 13.6724L38.4332 15.0606L32.8545 9.88973L42.5822 13.6724Z" fill="#F4DD71"/>
<path d="M42.5394 13.6218L40.0127 9.76975L42.725 2.34871L42.5394 13.6218Z" fill="#F4DD71"/>
<path d="M46.7662 14.9665L42.6182 13.494L52.3016 10.0996L46.7662 14.9665Z" fill="url(#paint10_linear_2457_2085)"/>
<path d="M42.4971 18.2815L42.6112 13.5188L48.3329 22.7048L42.4971 18.2815Z" fill="url(#paint11_linear_2457_2085)"/>
<path d="M38.3745 14.9469L42.5564 13.5869L36.3351 22.3772L38.3745 14.9469Z" fill="url(#paint12_linear_2457_2085)"/>
<path d="M40.0085 9.74531L42.4719 13.6778L32.9057 9.8945L40.0085 9.74531Z" fill="url(#paint13_linear_2457_2085)"/>
<path d="M45.1296 9.70621L42.5001 13.5084L42.7378 2.40225L45.1296 9.70621Z" fill="url(#paint14_linear_2457_2085)"/>
<path d="M100.211 13.5542L102.716 9.68136L110.018 10.0531L100.211 13.5542Z" fill="#F4DD71"/>
<path d="M100.194 13.4509L104.301 14.9804L106.047 22.7398L100.194 13.4509Z" fill="#F4DD71"/>
<path d="M100.262 13.4712L100.205 18.2088L93.9915 22.4296L100.262 13.4712Z" fill="#F4DD71"/>
<path d="M100.257 13.6724L96.1085 15.0606L90.5298 9.88973L100.257 13.6724Z" fill="#F4DD71"/>
<path d="M100.215 13.6218L97.688 9.76975L100.4 2.34871L100.215 13.6218Z" fill="#F4DD71"/>
<path d="M104.441 14.9665L100.293 13.494L109.977 10.0996L104.441 14.9665Z" fill="url(#paint15_linear_2457_2085)"/>
<path d="M100.172 18.2815L100.287 13.5188L106.008 22.7048L100.172 18.2815Z" fill="url(#paint16_linear_2457_2085)"/>
<path d="M96.0498 14.9469L100.232 13.5869L94.0104 22.3772L96.0498 14.9469Z" fill="url(#paint17_linear_2457_2085)"/>
<path d="M97.6833 9.74531L100.147 13.6778L90.5805 9.8945L97.6833 9.74531Z" fill="url(#paint18_linear_2457_2085)"/>
<path d="M102.805 9.70621L100.175 13.5084L100.413 2.40225L102.805 9.70621Z" fill="url(#paint19_linear_2457_2085)"/>
<path d="M129.048 13.5542L131.553 9.68136L138.856 10.0531L129.048 13.5542Z" fill="#F4DD71"/>
<path d="M129.032 13.4509L133.139 14.9804L134.885 22.7398L129.032 13.4509Z" fill="#F4DD71"/>
<path d="M129.099 13.4712L129.042 18.2088L122.829 22.4296L129.099 13.4712Z" fill="#F4DD71"/>
<path d="M129.095 13.6724L124.946 15.0606L119.367 9.88973L129.095 13.6724Z" fill="#F4DD71"/>
<path d="M129.052 13.6218L126.525 9.76975L129.238 2.34871L129.052 13.6218Z" fill="#F4DD71"/>
<path d="M133.279 14.9665L129.131 13.494L138.814 10.0996L133.279 14.9665Z" fill="url(#paint20_linear_2457_2085)"/>
<path d="M129.01 18.2815L129.124 13.5188L134.846 22.7048L129.01 18.2815Z" fill="url(#paint21_linear_2457_2085)"/>
<path d="M124.887 14.9469L129.069 13.5869L122.848 22.3772L124.887 14.9469Z" fill="url(#paint22_linear_2457_2085)"/>
<path d="M126.521 9.74531L128.984 13.6778L119.418 9.8945L126.521 9.74531Z" fill="url(#paint23_linear_2457_2085)"/>
<path d="M131.642 9.70621L129.013 13.5084L129.25 2.40225L131.642 9.70621Z" fill="url(#paint24_linear_2457_2085)"/>
<defs>
<linearGradient id="paint0_linear_2457_2085" x1="21.1204" y1="10.0996" x2="15.7288" y2="14.4807" gradientUnits="userSpaceOnUse">
<stop stop-color="#FFE87D"/>
<stop offset="1" stop-color="#C1A036"/>
</linearGradient>
<linearGradient id="paint1_linear_2457_2085" x1="18.8304" y1="20.2495" x2="12.8798" y2="16.8603" gradientUnits="userSpaceOnUse">
<stop stop-color="#FFE87D"/>
<stop offset="1" stop-color="#C1A036"/>
</linearGradient>
<linearGradient id="paint2_linear_2457_2085" x1="9.42851" y1="20.9252" x2="11.3101" y2="13.9053" gradientUnits="userSpaceOnUse">
<stop stop-color="#FFE87D"/>
<stop offset="1" stop-color="#C1A036"/>
</linearGradient>
<linearGradient id="paint3_linear_2457_2085" x1="5.92404" y1="11.459" x2="12.6054" y2="11.0319" gradientUnits="userSpaceOnUse">
<stop stop-color="#FFE87D"/>
<stop offset="1" stop-color="#C1A036"/>
</linearGradient>
<linearGradient id="paint4_linear_2457_2085" x1="13.1329" y1="4.82174" x2="16.1103" y2="11.3838" gradientUnits="userSpaceOnUse">
<stop stop-color="#FFE87D"/>
<stop offset="1" stop-color="#C1A036"/>
</linearGradient>
<linearGradient id="paint5_linear_2457_2085" x1="78.7961" y1="10.0996" x2="73.4046" y2="14.4807" gradientUnits="userSpaceOnUse">
<stop stop-color="#FFE87D"/>
<stop offset="1" stop-color="#C1A036"/>
</linearGradient>
<linearGradient id="paint6_linear_2457_2085" x1="76.5062" y1="20.2495" x2="70.5556" y2="16.8603" gradientUnits="userSpaceOnUse">
<stop stop-color="#FFE87D"/>
<stop offset="1" stop-color="#C1A036"/>
</linearGradient>
<linearGradient id="paint7_linear_2457_2085" x1="67.1043" y1="20.9252" x2="68.9859" y2="13.9053" gradientUnits="userSpaceOnUse">
<stop stop-color="#FFE87D"/>
<stop offset="1" stop-color="#C1A036"/>
</linearGradient>
<linearGradient id="paint8_linear_2457_2085" x1="63.5993" y1="11.459" x2="70.2807" y2="11.0319" gradientUnits="userSpaceOnUse">
<stop stop-color="#FFE87D"/>
<stop offset="1" stop-color="#C1A036"/>
</linearGradient>
<linearGradient id="paint9_linear_2457_2085" x1="70.8087" y1="4.82174" x2="73.7861" y2="11.3838" gradientUnits="userSpaceOnUse">
<stop stop-color="#FFE87D"/>
<stop offset="1" stop-color="#C1A036"/>
</linearGradient>
<linearGradient id="paint10_linear_2457_2085" x1="49.9583" y1="10.0996" x2="44.5667" y2="14.4807" gradientUnits="userSpaceOnUse">
<stop stop-color="#FFE87D"/>
<stop offset="1" stop-color="#C1A036"/>
</linearGradient>
<linearGradient id="paint11_linear_2457_2085" x1="47.6683" y1="20.2495" x2="41.7177" y2="16.8603" gradientUnits="userSpaceOnUse">
<stop stop-color="#FFE87D"/>
<stop offset="1" stop-color="#C1A036"/>
</linearGradient>
<linearGradient id="paint12_linear_2457_2085" x1="38.2664" y1="20.9252" x2="40.148" y2="13.9053" gradientUnits="userSpaceOnUse">
<stop stop-color="#FFE87D"/>
<stop offset="1" stop-color="#C1A036"/>
</linearGradient>
<linearGradient id="paint13_linear_2457_2085" x1="34.7619" y1="11.459" x2="41.4433" y2="11.0319" gradientUnits="userSpaceOnUse">
<stop stop-color="#FFE87D"/>
<stop offset="1" stop-color="#C1A036"/>
</linearGradient>
<linearGradient id="paint14_linear_2457_2085" x1="41.9708" y1="4.82174" x2="44.9482" y2="11.3838" gradientUnits="userSpaceOnUse">
<stop stop-color="#FFE87D"/>
<stop offset="1" stop-color="#C1A036"/>
</linearGradient>
<linearGradient id="paint15_linear_2457_2085" x1="107.634" y1="10.0996" x2="102.242" y2="14.4807" gradientUnits="userSpaceOnUse">
<stop stop-color="#FFE87D"/>
<stop offset="1" stop-color="#C1A036"/>
</linearGradient>
<linearGradient id="paint16_linear_2457_2085" x1="105.344" y1="20.2495" x2="99.393" y2="16.8603" gradientUnits="userSpaceOnUse">
<stop stop-color="#FFE87D"/>
<stop offset="1" stop-color="#C1A036"/>
</linearGradient>
<linearGradient id="paint17_linear_2457_2085" x1="95.9417" y1="20.9252" x2="97.8233" y2="13.9053" gradientUnits="userSpaceOnUse">
<stop stop-color="#FFE87D"/>
<stop offset="1" stop-color="#C1A036"/>
</linearGradient>
<linearGradient id="paint18_linear_2457_2085" x1="92.4367" y1="11.459" x2="99.1181" y2="11.0319" gradientUnits="userSpaceOnUse">
<stop stop-color="#FFE87D"/>
<stop offset="1" stop-color="#C1A036"/>
</linearGradient>
<linearGradient id="paint19_linear_2457_2085" x1="99.6461" y1="4.82174" x2="102.624" y2="11.3838" gradientUnits="userSpaceOnUse">
<stop stop-color="#FFE87D"/>
<stop offset="1" stop-color="#C1A036"/>
</linearGradient>
<linearGradient id="paint20_linear_2457_2085" x1="136.471" y1="10.0996" x2="131.079" y2="14.4807" gradientUnits="userSpaceOnUse">
<stop stop-color="#FFE87D"/>
<stop offset="1" stop-color="#C1A036"/>
</linearGradient>
<linearGradient id="paint21_linear_2457_2085" x1="134.181" y1="20.2495" x2="128.23" y2="16.8603" gradientUnits="userSpaceOnUse">
<stop stop-color="#FFE87D"/>
<stop offset="1" stop-color="#C1A036"/>
</linearGradient>
<linearGradient id="paint22_linear_2457_2085" x1="124.779" y1="20.9252" x2="126.661" y2="13.9053" gradientUnits="userSpaceOnUse">
<stop stop-color="#FFE87D"/>
<stop offset="1" stop-color="#C1A036"/>
</linearGradient>
<linearGradient id="paint23_linear_2457_2085" x1="121.274" y1="11.459" x2="127.955" y2="11.0319" gradientUnits="userSpaceOnUse">
<stop stop-color="#FFE87D"/>
<stop offset="1" stop-color="#C1A036"/>
</linearGradient>
<linearGradient id="paint24_linear_2457_2085" x1="128.483" y1="4.82174" x2="131.461" y2="11.3838" gradientUnits="userSpaceOnUse">
<stop stop-color="#FFE87D"/>
<stop offset="1" stop-color="#C1A036"/>
</linearGradient>
</defs>
</svg>
