<svg width="41" height="42" viewBox="0 0 41 42" fill="none" xmlns="http://www.w3.org/2000/svg">
<mask id="mask0_2472_2013" style="mask-type:alpha" maskUnits="userSpaceOnUse" x="5" y="5" width="31" height="32">
<path d="M5.125 13.25C5.125 9.47876 5.125 7.59315 6.29657 6.42157C7.46815 5.25 9.35376 5.25 13.125 5.25H27.875C31.6462 5.25 33.5319 5.25 34.7034 6.42157C35.875 7.59315 35.875 9.47876 35.875 13.25V28.75C35.875 32.5212 35.875 34.4069 34.7034 35.5784C33.5319 36.75 31.6462 36.75 27.875 36.75H13.125C9.35376 36.75 7.46815 36.75 6.29657 35.5784C5.125 34.4069 5.125 32.5212 5.125 28.75V13.25Z" fill="black"/>
</mask>
<g mask="url(#mask0_2472_2013)">
<path d="M27.8662 -1.29395C31.6406 -1.50875 33.5285 -1.61564 34.7656 -0.508789C36.0023 0.598081 36.1049 2.48548 36.3096 6.25977L37.499 28.1992C37.5447 29.0418 36.8741 29.7498 36.0303 29.75C35.9312 29.75 35.8358 29.7106 35.7666 29.6396L31.9043 25.6826C30.558 24.3035 29.8844 23.6135 29.042 23.6133C28.1994 23.6133 27.5261 24.3034 26.1797 25.6826L25.4111 26.4697C24.711 27.187 24.3607 27.5455 23.9268 27.5361C23.4928 27.5267 23.1586 27.1532 22.4902 26.4062L17.1631 20.4531C15.9415 19.0879 15.3306 18.4051 14.5771 18.3174C13.8237 18.2297 13.0128 18.7955 11.3916 19.9268C9.42094 21.3019 6.91942 22.75 5.125 22.75V7.55469C5.125 3.97733 5.12547 2.18846 6.21777 1.03223C7.31013 -0.123749 9.09735 -0.225338 12.6709 -0.428711L27.8662 -1.29395ZM28.1875 10.5C26.7724 10.5 25.6252 11.6755 25.625 13.125C25.625 14.5747 26.7723 15.75 28.1875 15.75C29.6027 15.75 30.75 14.5747 30.75 13.125C30.7498 11.6755 29.6026 10.5 28.1875 10.5Z" fill="#404040"/>
</g>
<path d="M20.5 36.75H31.875C34.0841 36.75 35.875 34.9591 35.875 32.75V9.25C35.875 7.04086 34.0841 5.25 31.875 5.25H9.125C6.91586 5.25 5.125 7.04086 5.125 9.25V21" stroke="#404040" stroke-width="2" stroke-linecap="round"/>
<path d="M13.6665 28V27H14.6665V28H13.6665ZM5.84041 37.4485C5.45462 37.8437 4.8215 37.8514 4.4263 37.4656C4.0311 37.0798 4.02347 36.4467 4.40926 36.0515L5.12484 36.75L5.84041 37.4485ZM13.6665 36.75H12.6665V28H13.6665H14.6665V36.75H13.6665ZM13.6665 28V29H5.12484V28V27H13.6665V28ZM13.6665 28L14.3821 28.6985L5.84041 37.4485L5.12484 36.75L4.40926 36.0515L12.9509 27.3015L13.6665 28Z" fill="#404040"/>
</svg>
