<svg width="112" height="100" viewBox="0 0 112 100" fill="none" xmlns="http://www.w3.org/2000/svg">
<circle cx="56" cy="21.6665" r="17.7083" stroke="#1F6563" stroke-width="7.08333" stroke-linecap="round"/>
<path d="M68.523 11.0415C69.924 8.61499 72.013 6.65839 74.526 5.41914C77.0389 4.17989 79.8629 3.71365 82.6408 4.07937C85.4188 4.44509 88.0259 5.62635 90.1324 7.47377C92.239 9.3212 93.7505 11.7518 94.4757 14.4582C95.2008 17.1647 95.1072 20.0254 94.2066 22.6786C93.3059 25.3318 91.6387 27.6583 89.4158 29.364C87.1929 31.0697 84.5142 32.0779 81.7182 32.2612C78.9223 32.4444 76.1349 31.7945 73.7084 30.3935" stroke="#1F6563" stroke-width="7.08333"/>
<path d="M43.4771 11.0415C42.0762 8.61499 39.9871 6.65839 37.4742 5.41914C34.9612 4.17989 32.1372 3.71365 29.3593 4.07937C26.5814 4.44509 23.9743 5.62635 21.8677 7.47377C19.7611 9.3212 18.2496 11.7518 17.5245 14.4582C16.7993 17.1647 16.8929 20.0254 17.7936 22.6786C18.6942 25.3318 20.3614 27.6583 22.5843 29.364C24.8072 31.0697 27.486 32.0779 30.2819 32.2612C33.0778 32.4444 35.8652 31.7945 38.2918 30.3935" stroke="#1F6563" stroke-width="7.08333"/>
<path d="M56.0001 53.5415C84.9018 53.5415 92.3624 76.9318 94.2883 89.0076C94.9044 92.8708 91.7871 96.0415 87.8751 96.0415H24.1251C20.2131 96.0415 17.0958 92.8708 17.7119 89.0076C19.6377 76.9318 27.0984 53.5415 56.0001 53.5415Z" stroke="#1F6563" stroke-width="7.08333" stroke-linecap="round"/>
<path d="M80.792 46.4585L80.792 42.9168H80.792V46.4585ZM107.684 74.1987L111.119 73.3385L111.119 73.3384L107.684 74.1987ZM101.298 81.8755V85.4172H101.298L101.298 81.8755ZM92.7002 81.8755L89.298 82.8597L90.0379 85.4172H92.7002V81.8755ZM63.7021 54.1509L61.0867 51.7628L56.692 56.5758L63.1214 57.6446L63.7021 54.1509ZM80.792 46.4585L80.7919 50.0002C88.0715 50.0003 93.184 53.5608 96.9297 58.5494C100.75 63.6378 102.994 70.0502 104.248 75.0591L107.684 74.1987L111.119 73.3384C109.765 67.9319 107.233 60.4743 102.594 54.2964C97.8808 48.0189 90.8516 42.917 80.792 42.9168L80.792 46.4585ZM107.684 74.1987L104.248 75.0589C104.629 76.5812 103.511 78.3338 101.298 78.3338L101.298 81.8755L101.298 85.4172C107.466 85.4171 112.774 79.9462 111.119 73.3385L107.684 74.1987ZM101.298 81.8755V78.3338H92.7002V81.8755V85.4172H101.298V81.8755ZM92.7002 81.8755L96.1023 80.8912C92.7654 69.357 84.4685 54.0126 64.2829 50.6572L63.7021 54.1509L63.1214 57.6446C79.4153 60.3532 86.3086 72.5265 89.298 82.8597L92.7002 81.8755ZM63.7021 54.1509L66.3176 56.539C69.8622 52.6569 74.4934 50.0002 80.792 50.0002V46.4585V42.9168C72.1697 42.9168 65.7308 46.6766 61.0867 51.7628L63.7021 54.1509Z" fill="#1F6563"/>
<path d="M31.2089 46.4585L31.209 42.9168H31.2089V46.4585ZM48.2968 54.1509L48.8776 57.6446L55.307 56.5757L50.9121 51.7627L48.2968 54.1509ZM19.2997 81.8755V85.4172H21.962L22.7019 82.8597L19.2997 81.8755ZM10.7021 81.8755L10.7021 85.4172H10.7021V81.8755ZM4.31631 74.1987L0.880738 73.3384L0.880698 73.3385L4.31631 74.1987ZM31.2089 46.4585L31.2088 50.0002C37.5066 50.0003 42.1367 52.657 45.6814 56.539L48.2968 54.1509L50.9121 51.7627C46.2685 46.6773 39.8309 42.917 31.209 42.9168L31.2089 46.4585ZM48.2968 54.1509L47.7159 50.6572C27.5311 54.013 19.2344 69.3572 15.8976 80.8912L19.2997 81.8755L22.7019 82.8597C25.6913 72.5267 32.5844 60.3535 48.8776 57.6446L48.2968 54.1509ZM19.2997 81.8755V78.3338H10.7021V81.8755V85.4172H19.2997V81.8755ZM10.7021 81.8755L10.7021 78.3338C8.48906 78.3338 7.37078 76.5812 7.75193 75.0589L4.31631 74.1987L0.880698 73.3385C-0.773708 79.9462 4.53396 85.4171 10.7021 85.4172L10.7021 81.8755ZM4.31631 74.1987L7.75189 75.0591C9.00624 70.0503 11.2499 63.6378 15.0706 58.5494C18.8164 53.5607 23.9292 50.0002 31.2089 50.0002V46.4585V42.9168C21.1492 42.9168 14.1198 48.0187 9.40629 54.2963C4.76762 60.4741 2.23469 67.9318 0.880738 73.3384L4.31631 74.1987Z" fill="#1F6563"/>
</svg>
