<svg width="54" height="54" viewBox="0 0 54 54" fill="none" xmlns="http://www.w3.org/2000/svg">
<path d="M47.25 7.55859C49.4986 10.2225 49.5 14.4528 49.5 22.5V31.5C49.5 39.9851 49.5001 44.2282 46.8643 46.8643C44.2282 49.5003 39.9852 49.5 31.5 49.5H22.5C14.0147 49.5 9.77178 49.5003 7.13574 46.8643C4.49977 44.2282 4.5 39.9852 4.5 31.5V22.5C4.5 14.4526 4.50124 10.2225 6.75 7.55859V34.875L11.0469 30.5781C14.0745 27.5505 15.5887 26.0369 17.2285 25.8984C18.0541 25.8288 18.8834 25.9881 19.624 26.3594C21.0951 27.097 21.9385 29.0647 23.625 33L23.7451 33.2803C24.4788 34.9922 24.8461 35.8488 25.4502 36.2227C25.9194 36.513 26.4789 36.6207 27.0225 36.5254C27.7222 36.4026 28.3812 35.7438 29.6982 34.4268L29.9531 34.1729C31.576 32.5499 32.3875 31.7385 33.3076 31.3965C34.3189 31.0207 35.4311 31.0207 36.4424 31.3965C37.3625 31.7385 38.174 32.5499 39.7969 34.1729L41.4883 35.8643C43.0163 37.3922 45.0891 38.25 47.25 38.25V7.55859Z" fill="#1F6563"/>
<path d="M22.5 5.625H31.5C35.7744 5.625 38.8671 5.62725 41.2256 5.94434C43.5516 6.25707 44.9942 6.85749 46.0684 7.93164C47.1425 9.00579 47.7429 10.4484 48.0557 12.7744C48.3727 15.1329 48.375 18.2256 48.375 22.5V31.5C48.375 35.7744 48.3727 38.8671 48.0557 41.2256C47.7429 43.5516 47.1425 44.9942 46.0684 46.0684C44.9942 47.1425 43.5516 47.7429 41.2256 48.0557C38.8671 48.3727 35.7744 48.375 31.5 48.375H22.5C18.2256 48.375 15.1329 48.3727 12.7744 48.0557C10.4484 47.7429 9.00579 47.1425 7.93164 46.0684C6.85749 44.9942 6.25707 43.5516 5.94434 41.2256C5.62725 38.8671 5.625 35.7744 5.625 31.5V22.5C5.625 18.2256 5.62725 15.1329 5.94434 12.7744C6.25707 10.4484 6.85749 9.00579 7.93164 7.93164C9.00579 6.85749 10.4484 6.25707 12.7744 5.94434C15.1329 5.62725 18.2256 5.625 22.5 5.625Z" stroke="#1F6563" stroke-width="2.25"/>
<circle cx="33.75" cy="20.25" r="3.375" stroke="#1F6563" stroke-width="2.25" stroke-linecap="round"/>
</svg>
