<svg width="79" height="79" viewBox="0 0 79 79" fill="none" xmlns="http://www.w3.org/2000/svg">
<circle cx="39.5" cy="26.334" r="8.22917" stroke="#1F6563" stroke-width="3.29167" stroke-linecap="round"/>
<path d="M45.3198 21.3965C45.9709 20.2689 46.9416 19.3596 48.1094 18.7837C49.2772 18.2079 50.5895 17.9912 51.8805 18.1611C53.1714 18.3311 54.3829 18.88 55.3619 19.7385C56.3408 20.597 57.0432 21.7266 57.3802 22.9843C57.7172 24.242 57.6736 25.5713 57.2551 26.8043C56.8366 28.0373 56.0618 29.1184 55.0288 29.9111C53.9958 30.7037 52.751 31.1722 51.4517 31.2574C50.1525 31.3425 48.8571 31.0405 47.7295 30.3895" stroke="#2A4157" stroke-opacity="0.24" stroke-width="3.29167"/>
<path d="M33.6802 21.3965C33.0291 20.2689 32.0584 19.3596 30.8906 18.7837C29.7228 18.2079 28.4105 17.9912 27.1195 18.1611C25.8286 18.3311 24.6171 18.88 23.6381 19.7385C22.6592 20.597 21.9568 21.7266 21.6198 22.9843C21.2828 24.242 21.3264 25.5713 21.7449 26.8043C22.1634 28.0373 22.9382 29.1184 23.9712 29.9111C25.0042 30.7037 26.249 31.1722 27.5483 31.2574C28.8475 31.3425 30.1429 31.0405 31.2705 30.3895" stroke="#2A4157" stroke-opacity="0.24" stroke-width="3.29167"/>
<path d="M51.0215 37.8535L51.0215 36.2077H51.0215V37.8535ZM63.5176 50.7451L65.1141 50.3454L65.1141 50.3453L63.5176 50.7451ZM60.5508 54.3125V55.9583H60.551L60.5508 54.3125ZM56.5518 54.3125L54.9708 54.77L55.3146 55.9583H56.5518V54.3125ZM43.0801 41.4297L41.8646 40.32L39.8227 42.5565L42.8101 43.0532L43.0801 41.4297ZM51.0215 37.8535L51.0214 39.4993C54.4041 39.4995 56.7798 41.1542 58.5203 43.4726C60.2957 45.8373 61.3382 48.8173 61.921 51.1449L63.5176 50.7451L65.1141 50.3453C64.485 47.8329 63.3081 44.3673 61.1527 41.4963C58.9626 38.579 55.6962 36.2079 51.0215 36.2077L51.0215 37.8535ZM63.5176 50.7451L61.921 51.1448C62.0982 51.8524 61.5785 52.6665 60.5506 52.6667L60.5508 54.3125L60.551 55.9583C63.4173 55.958 65.8827 53.4155 65.1141 50.3454L63.5176 50.7451ZM60.5508 54.3125V52.6667H56.5518V54.3125V55.9583H60.5508V54.3125ZM56.5518 54.3125L58.1327 53.855C56.582 48.4959 52.7291 41.3658 43.3501 39.8061L43.0801 41.4297L42.8101 43.0532C50.3803 44.3121 53.5813 49.968 54.9708 54.77L56.5518 54.3125ZM43.0801 41.4297L44.2955 42.5394C45.9432 40.7348 48.0949 39.4993 51.0215 39.4993V37.8535V36.2077C47.014 36.2077 44.0224 37.9567 41.8646 40.32L43.0801 41.4297Z" fill="#2A4157" fill-opacity="0.24"/>
<path d="M27.9785 37.8535L27.9785 36.2077H27.9785V37.8535ZM35.918 41.4297L36.1881 43.0532L39.1754 42.5562L37.1333 40.3199L35.918 41.4297ZM22.4473 54.3125V55.9583H23.6844L24.0282 54.77L22.4473 54.3125ZM15.4814 50.7451L13.8849 50.3453L13.8849 50.3455L15.4814 50.7451ZM27.9785 37.8535L27.9785 39.4993C30.9043 39.4994 33.0547 40.7349 34.7026 42.5395L35.918 41.4297L37.1333 40.3199C34.976 37.9573 31.986 36.2077 27.9785 36.2077L27.9785 37.8535ZM35.918 41.4297L35.6479 39.8062C26.2698 41.3663 22.4169 48.4961 20.8663 53.855L22.4473 54.3125L24.0282 54.77C25.4177 49.9682 28.6187 44.3124 36.1881 43.0532L35.918 41.4297ZM22.4473 54.3125V52.6667H18.4492V54.3125V55.9583H22.4473V54.3125ZM18.4492 54.3125V52.6667C17.4208 52.6667 16.901 51.8521 17.078 51.1448L15.4814 50.7451L13.8849 50.3455C13.1163 53.4161 15.5831 55.9583 18.4492 55.9583V54.3125ZM15.4814 50.7451L17.078 51.1449C17.6609 48.8173 18.7035 45.8372 20.479 43.4725C22.2197 41.154 24.5956 39.4993 27.9785 39.4993V37.8535V36.2077C23.3037 36.2077 20.0371 38.5788 17.8467 41.4961C15.6911 44.3671 14.5141 47.8328 13.8849 50.3453L15.4814 50.7451Z" fill="#2A4157" fill-opacity="0.24"/>
<path d="M39.4997 41.1465C52.9305 41.1465 56.3975 52.0161 57.2924 57.6278C57.5787 59.423 56.1301 60.8965 54.3122 60.8965H24.6872C22.8692 60.8965 21.4206 59.423 21.7069 57.6278C22.6019 52.0161 26.0689 41.1465 39.4997 41.1465Z" stroke="#1F6563" stroke-width="3.29167" stroke-linecap="round"/>
</svg>
