<svg width="26" height="26" viewBox="0 0 26 26" fill="none" xmlns="http://www.w3.org/2000/svg">
<path d="M22.2531 19.7475C23.7271 17.7903 24.6 15.3602 24.6 12.7274C24.6 6.25052 19.317 1 12.8 1C6.28304 1 1 6.25052 1 12.7274C1 19.2042 6.28304 24.4547 12.8 24.4547C14.83 24.4547 16.7403 23.9453 18.4084 23.048L23.705 24.9899C24.0207 25.0589 24.2943 24.7638 24.2012 24.4547L22.2531 19.7475Z" stroke="#1F6563" stroke-linecap="round" stroke-linejoin="round"/>
<path d="M11.8138 6.85302L13.0887 9.01809C13.2745 9.33369 13.1354 9.53865 12.9151 9.74753C12.6948 9.95642 11.4362 10.5848 11.1143 10.767C10.7924 10.9492 13.7216 16.1059 14.1239 15.8781C14.5262 15.6504 15.63 14.9414 15.9247 14.8587C16.2194 14.7761 16.4699 14.7605 16.6558 15.0761L17.9306 17.2411C18.0742 17.4849 17.9873 17.7981 17.7366 17.9358C13.9619 20.009 12.2195 20.4324 11.1032 18.4996L7.53608 12.4416C6.38712 10.5273 7.38475 8.83913 11.1032 6.67047C11.3502 6.52643 11.6703 6.60926 11.8138 6.85302Z" stroke="#1F6563" stroke-linecap="round"/>
</svg>
