<svg width="982" height="575" viewBox="0 0 982 575" fill="none" xmlns="http://www.w3.org/2000/svg">
<g clip-path="url(#clip0_1870_7302)">
<path d="M982 572.024H0V574.246H982V572.024Z" fill="#1D2238"/>
<path d="M238.112 278.093V252.512C238.112 250.112 236.177 248.177 233.777 248.177H223.315C222.097 244.057 220.449 240.116 218.442 236.425L225.823 229.045C227.507 227.361 227.507 224.638 225.823 222.918L207.73 204.826C206.046 203.142 203.323 203.142 201.603 204.826L194.223 212.206C190.533 210.2 186.592 208.552 182.472 207.333V196.872C182.472 194.471 180.537 192.537 178.136 192.537H152.555C150.155 192.537 148.22 194.471 148.22 196.872V207.333C144.1 208.552 140.159 210.2 136.469 212.206L129.088 204.826C127.404 203.142 124.682 203.142 122.962 204.826L104.869 222.918C103.185 224.602 103.185 227.325 104.869 229.045L112.249 236.425C110.243 240.116 108.595 244.057 107.377 248.177H96.9151C94.5147 248.177 92.58 250.112 92.58 252.512V278.093C92.58 280.493 94.5147 282.428 96.9151 282.428H107.377C108.595 286.548 110.243 290.489 112.249 294.18L104.869 301.56C103.185 303.244 103.185 305.967 104.869 307.687L122.962 325.78C124.646 327.464 127.369 327.464 129.088 325.78L136.469 318.399C140.159 320.405 144.1 322.054 148.22 323.272V333.733C148.22 336.134 150.155 338.069 152.555 338.069H178.136C180.537 338.069 182.472 336.134 182.472 333.733V323.272C186.592 322.054 190.533 320.405 194.223 318.399L201.603 325.78C203.287 327.464 206.01 327.464 207.73 325.78L225.823 307.687C227.507 306.003 227.507 303.28 225.823 301.56L218.478 294.144C220.485 290.454 222.133 286.513 223.351 282.392H233.813C236.177 282.392 238.112 280.458 238.112 278.093ZM166.062 285.939C154.132 286.333 144.351 276.552 144.745 264.622C145.103 253.802 153.881 244.988 164.701 244.666C176.632 244.272 186.413 254.053 186.018 265.983C185.696 276.767 176.882 285.581 166.062 285.939Z" fill="#D5E6EE"/>
<path d="M241.408 407.43V389.803C241.408 388.154 240.083 386.829 238.434 386.829H231.233C230.409 383.998 229.263 381.276 227.901 378.732L232.989 373.644C234.135 372.498 234.135 370.599 232.989 369.452L220.521 356.984C219.374 355.838 217.475 355.838 216.329 356.984L211.241 362.072C208.698 360.675 205.975 359.564 203.144 358.74V351.539C203.144 349.891 201.819 348.565 200.171 348.565H182.543C180.895 348.565 179.57 349.891 179.57 351.539V358.74C176.739 359.564 174.016 360.71 171.473 362.072L166.385 356.984C165.239 355.838 163.34 355.838 162.193 356.984L149.725 369.452C148.579 370.599 148.579 372.498 149.725 373.644L154.813 378.732C153.415 381.276 152.305 383.998 151.481 386.829H144.279C142.631 386.829 141.306 388.154 141.306 389.803V407.43C141.306 409.078 142.631 410.403 144.279 410.403H151.481C152.305 413.234 153.451 415.957 154.813 418.5L149.725 423.588C148.579 424.735 148.579 426.633 149.725 427.78L162.193 440.248C163.34 441.394 165.239 441.394 166.385 440.248L171.473 435.16C174.016 436.558 176.739 437.668 179.57 438.492V445.694C179.57 447.342 180.895 448.667 182.543 448.667H200.171C201.819 448.667 203.144 447.342 203.144 445.694V438.492C205.975 437.668 208.698 436.522 211.241 435.16L216.329 440.248C217.475 441.394 219.374 441.394 220.521 440.248L232.989 427.78C234.135 426.633 234.135 424.735 232.989 423.588L227.901 418.5C229.298 415.957 230.409 413.234 231.233 410.403H238.434C240.047 410.403 241.408 409.078 241.408 407.43ZM191.823 412.84C183.618 413.091 176.883 406.391 177.169 398.186C177.42 390.734 183.475 384.679 190.891 384.464C199.096 384.213 205.831 390.913 205.545 399.118C205.33 406.534 199.275 412.589 191.823 412.84Z" fill="#D5E6EE"/>
<path d="M126.938 368.916V356.627C126.938 355.48 126.007 354.549 124.86 354.549H119.845C119.271 352.578 118.483 350.679 117.516 348.888L121.063 345.341C121.887 344.517 121.887 343.227 121.063 342.403L112.357 333.697C111.532 332.873 110.243 332.873 109.419 333.697L105.872 337.244C104.08 336.277 102.217 335.488 100.211 334.915V329.899C100.211 328.753 99.2794 327.821 98.133 327.821H85.8441C84.6976 327.821 83.7661 328.753 83.7661 329.899V334.915C81.7955 335.488 79.8967 336.277 78.1053 337.244L74.5584 333.697C73.7343 332.873 72.4445 332.873 71.6205 333.697L62.9144 342.403C62.0903 343.227 62.0903 344.517 62.9144 345.341L66.4613 348.888C65.494 350.679 64.7058 352.542 64.1325 354.549H59.1166C57.9702 354.549 57.0386 355.48 57.0386 356.627V368.916C57.0386 370.062 57.9702 370.994 59.1166 370.994H64.1325C64.7058 372.964 65.494 374.863 66.4613 376.654L62.9144 380.201C62.0903 381.025 62.0903 382.315 62.9144 383.139L71.6205 391.845C72.4445 392.669 73.7343 392.669 74.5584 391.845L78.1053 388.298C79.8967 389.266 81.7597 390.054 83.7661 390.627V395.643C83.7661 396.79 84.6976 397.721 85.8441 397.721H98.133C99.2794 397.721 100.211 396.79 100.211 395.643V390.627C102.181 390.054 104.08 389.266 105.872 388.298L109.419 391.845C110.243 392.669 111.532 392.669 112.357 391.845L121.063 383.139C121.887 382.315 121.887 381.025 121.063 380.201L117.516 376.654C118.483 374.863 119.271 373 119.845 370.994H124.86C126.007 370.994 126.938 370.062 126.938 368.916ZM92.293 372.713C86.5606 372.892 81.8672 368.199 82.0463 362.467C82.2255 357.272 86.4531 353.044 91.6481 352.865C97.3806 352.686 102.074 357.379 101.895 363.112C101.716 368.307 97.4881 372.534 92.293 372.713Z" fill="#D5E6EE"/>
<path d="M869.998 -8.42871H593.829V318.242H869.998V-8.42871Z" fill="#D5E6EE"/>
<path d="M869.999 318.242L732.078 318.596L593.855 318.873H593.198V318.217L593.022 154.869L592.971 -8.4795V-9.36328H593.855L731.927 -9.28753L869.999 -9.16127H870.731V-8.429L870.428 155.096L869.999 318.242ZM869.999 318.242L869.57 154.717L869.267 -8.45425L869.999 -7.72197L731.927 -7.59572L593.83 -7.54522L594.713 -8.429L594.663 154.919L594.486 318.267L593.83 317.611L731.75 317.889L869.999 318.242Z" fill="#1D2238"/>
<path d="M731.928 297.94C751.843 297.94 767.987 281.796 767.987 261.882C767.987 241.967 751.843 225.823 731.928 225.823C712.014 225.823 695.87 241.967 695.87 261.882C695.87 281.796 712.014 297.94 731.928 297.94Z" fill="#4A4E60"/>
<path d="M748.592 250.771H743.037V247.084C743.037 245.898 742.078 244.938 740.891 244.938H722.963C721.776 244.938 720.816 245.898 720.816 247.084V250.771H715.261C711.297 250.771 708.09 253.978 708.09 257.942V270.492C708.09 274.456 711.297 277.663 715.261 277.663H748.592C752.557 277.663 755.764 274.456 755.764 270.492V257.942C755.764 253.978 752.557 250.771 748.592 250.771Z" fill="#1F6563"/>
<path d="M738.907 270.597C742.763 266.741 742.763 260.49 738.907 256.634C735.051 252.778 728.8 252.778 724.944 256.634C721.089 260.49 721.089 266.741 724.944 270.597C728.8 274.452 735.051 274.452 738.907 270.597Z" fill="white"/>
<path d="M620.369 50.683H615.419V15.1802H650.922V20.1041H620.369V50.683Z" fill="#4A4E60"/>
<path d="M845.96 50.683H841.036V20.1041H810.457V15.1802H845.96V50.683Z" fill="#4A4E60"/>
<path d="M848.41 208.147H812.907V203.198H843.486V172.645H848.41V208.147Z" fill="#4A4E60"/>
<path d="M653.371 208.147H617.868V172.645H622.817V203.198H653.371V208.147Z" fill="#1D2238"/>
<path d="M772.19 112.451C780.749 103.891 780.749 90.0139 772.19 81.4546C763.63 72.8952 749.753 72.8952 741.194 81.4546C732.634 90.0139 732.634 103.891 741.194 112.451C749.753 121.01 763.631 121.01 772.19 112.451Z" fill="white"/>
<path d="M835.355 190.398H607.617L685.819 118.458C691.475 113.256 700.212 113.307 705.792 118.609L749.476 159.945L771.621 140.982C777.656 135.831 786.696 136.411 791.999 142.295L835.355 190.398Z" fill="white"/>
<path d="M638.844 573.135H412.377C397.616 573.135 385.65 561.169 385.65 546.408V87.4198C385.65 72.6588 397.616 60.6924 412.377 60.6924H638.844C653.605 60.6924 665.571 72.6588 665.571 87.4198V546.372C665.571 561.169 653.605 573.135 638.844 573.135Z" fill="#1D2238"/>
<path d="M651.992 99.6367H399.193V530.966H651.992V99.6367Z" fill="#D5E6EE"/>
<path d="M548.092 81.7582H503.128C501.122 81.7582 499.509 80.1459 499.509 78.1396C499.509 76.1332 501.122 74.521 503.128 74.521H548.092C550.098 74.521 551.71 76.1332 551.71 78.1396C551.71 80.1101 550.098 81.7582 548.092 81.7582Z" fill="white"/>
<path d="M263.518 205.115C282.367 213.928 303.358 211.702 303.358 211.702C312.36 207.81 334.461 196.005 338.656 188.901C334.258 185.525 331.567 182.608 327.054 177.28C319.285 185.436 296.738 192.091 296.738 192.091C260.701 183.599 231.398 161.278 231.398 161.278C232.67 177.99 263.518 205.115 263.518 205.115Z" fill="#1F6563"/>
<path d="M513.152 293.699L495.882 135.029L274.1 159.168L291.37 317.839L513.152 293.699Z" fill="white"/>
<path d="M291.065 318.258L273.724 158.861L274.082 158.825L496.249 134.641L513.59 294.038L291.065 318.258ZM274.512 159.506L291.709 317.434L512.766 293.358L495.569 135.429L274.512 159.506Z" fill="#71ACAB"/>
<path d="M489.955 142.404L281.457 165.097L297.281 310.483L505.779 287.789L489.955 142.404Z" fill="#1F6563"/>
<path d="M291.316 255.451L327.573 211.562C336.387 200.886 352.079 199.166 363.007 207.657L414.742 247.856C421.047 252.764 430.076 252.012 435.45 246.1L444.909 235.782C453.579 226.288 467.982 224.747 478.479 232.127L501.516 248.286L505.816 287.768L297.299 310.483L291.316 255.451Z" fill="white"/>
<path d="M421.871 206.403C431.25 206.403 438.853 198.799 438.853 189.42C438.853 180.041 431.25 172.438 421.871 172.438C412.492 172.438 404.889 180.041 404.889 189.42C404.889 198.799 412.492 206.403 421.871 206.403Z" fill="white"/>
<path d="M399.229 99.6367H385.65V363.042H399.229V99.6367Z" fill="#4A4E60"/>
<path d="M643.202 382.25L622.197 267.79L462.207 297.15L483.212 411.609L643.202 382.25Z" fill="white"/>
<path d="M482.993 411.946L461.891 296.939L622.435 267.489L643.537 382.496L482.993 411.946ZM462.536 297.369L483.459 411.301L642.928 382.03L622.005 268.098L462.536 297.369Z" fill="#71ACAB"/>
<path d="M618.337 273.507L467.897 301.114L487.142 405.988L637.582 378.381L618.337 273.507Z" fill="#4A4E60"/>
<path d="M479.841 366.229L503.881 332.372C509.721 324.131 521.043 322.053 529.427 327.643L569.195 354.119C574.032 357.344 580.553 356.305 584.171 351.755L590.477 343.765C596.281 336.42 606.671 334.486 614.696 339.322L632.324 349.856L637.554 378.339L487.15 405.962L479.841 366.229Z" fill="white"/>
<path d="M581.44 318.318C585.328 312.683 583.911 304.963 578.275 301.076C572.64 297.189 564.921 298.606 561.033 304.241C557.146 309.876 558.563 317.596 564.198 321.483C569.833 325.37 577.553 323.953 581.44 318.318Z" fill="white"/>
<mask id="mask0_1870_7302" style="mask-type:luminance" maskUnits="userSpaceOnUse" x="461" y="115" width="192" height="236">
<path d="M652.029 115.33H461.246V350.682H652.029V115.33Z" fill="white"/>
</mask>
<g mask="url(#mask0_1870_7302)">
<path d="M687.988 319.003L709.408 160.828L488.317 130.888L466.897 289.063L687.988 319.003Z" fill="white"/>
<path d="M688.321 319.368L687.963 319.333L466.476 289.345L466.512 288.987L487.973 130.449L488.331 130.485L709.782 160.473L709.746 160.831L688.321 319.368ZM467.336 288.7L687.676 318.544L708.994 161.118L488.654 131.273L467.336 288.7Z" fill="#71ACAB"/>
<path d="M701.915 166.532L494.067 138.386L474.441 283.318L682.288 311.464L701.915 166.532Z" fill="#71ACAB"/>
<path d="M481.848 228.402L527.599 194.545C538.706 186.305 554.363 188.419 562.926 199.274L603.447 250.759C608.391 257.029 617.312 258.462 623.976 254.055L635.62 246.316C646.332 239.186 660.663 241.121 669.083 250.83L687.57 272.076L682.232 311.415L474.395 283.254L481.848 228.402Z" fill="white"/>
<path d="M630.114 211.796C638.952 208.657 643.572 198.947 640.433 190.11C637.294 181.272 627.584 176.652 618.746 179.791C609.908 182.93 605.289 192.64 608.428 201.478C611.567 210.315 621.276 214.935 630.114 211.796Z" fill="white"/>
</g>
<path d="M651.992 363.042H399.192V530.966H651.992V363.042Z" fill="#E4E6ED"/>
<path d="M628.346 517.925H422.982C418.217 517.925 414.347 514.056 414.347 509.29V386.187C414.347 381.422 418.217 377.552 422.982 377.552H628.346C633.111 377.552 636.98 381.422 636.98 386.187V509.29C636.98 514.056 633.111 517.925 628.346 517.925Z" fill="white"/>
<path d="M479.483 462.858H452.29V470.454H479.483V462.858Z" fill="#1D2238"/>
<path d="M454.01 465.831L451.502 460.421C451.143 459.633 450.319 459.131 449.459 459.131H432.513C431.259 459.131 430.256 460.135 430.256 461.389V502.304C430.256 503.558 431.259 504.561 432.513 504.561H482.098C483.352 504.561 484.356 503.558 484.356 502.304V469.414C484.356 468.16 483.352 467.157 482.098 467.157H456.088C455.156 467.121 454.368 466.619 454.01 465.831Z" fill="#1F6563"/>
<path d="M547.843 462.858H520.65V470.454H547.843V462.858Z" fill="#1D2238"/>
<path d="M522.368 465.831L519.86 460.421C519.501 459.633 518.677 459.131 517.818 459.131H500.871C499.617 459.131 498.614 460.135 498.614 461.389V502.304C498.614 503.558 499.617 504.561 500.871 504.561H550.457C551.71 504.561 552.714 503.558 552.714 502.304V469.414C552.714 468.16 551.71 467.157 550.457 467.157H524.446C523.55 467.121 522.762 466.619 522.368 465.831Z" fill="#1F6563"/>
<path d="M616.237 462.858H589.044V470.454H616.237V462.858Z" fill="#1D2238"/>
<path d="M590.764 465.831L588.256 460.421C587.898 459.633 587.074 459.131 586.214 459.131H569.267C568.013 459.131 567.01 460.135 567.01 461.389V502.304C567.01 503.558 568.013 504.561 569.267 504.561H618.853C620.107 504.561 621.11 503.558 621.11 502.304V469.414C621.11 468.16 620.107 467.157 618.853 467.157H592.842C591.946 467.121 591.158 466.619 590.764 465.831Z" fill="#1F6563"/>
<path d="M479.483 396.54H452.29V404.135H479.483V396.54Z" fill="#1D2238"/>
<path d="M454.01 399.514L451.502 394.104C451.143 393.316 450.319 392.814 449.459 392.814H432.513C431.259 392.814 430.256 393.818 430.256 395.072V435.987C430.256 437.241 431.259 438.244 432.513 438.244H482.098C483.352 438.244 484.356 437.241 484.356 435.987V403.097C484.356 401.843 483.352 400.84 482.098 400.84H456.088C455.156 400.84 454.368 400.338 454.01 399.514Z" fill="#1F6563"/>
<path d="M547.843 396.54H520.65V404.135H547.843V396.54Z" fill="#1D2238"/>
<path d="M522.368 399.514L519.86 394.104C519.501 393.316 518.677 392.814 517.818 392.814H500.871C499.617 392.814 498.614 393.818 498.614 395.072V435.987C498.614 437.241 499.617 438.244 500.871 438.244H550.457C551.71 438.244 552.714 437.241 552.714 435.987V403.097C552.714 401.843 551.71 400.84 550.457 400.84H524.446C523.55 400.84 522.762 400.338 522.368 399.514Z" fill="#1F6563"/>
<path d="M616.237 396.54H589.044V404.135H616.237V396.54Z" fill="#1D2238"/>
<path d="M590.764 399.514L588.256 394.104C587.898 393.316 587.074 392.814 586.214 392.814H569.267C568.013 392.814 567.01 393.818 567.01 395.072V435.987C567.01 437.241 568.013 438.244 569.267 438.244H618.853C620.107 438.244 621.11 437.241 621.11 435.987V403.097C621.11 401.843 620.107 400.84 618.853 400.84H592.842C591.946 400.84 591.158 400.338 590.764 399.514Z" fill="#1F6563"/>
<path d="M492.56 43.0292H339.218C332.303 43.0292 326.714 37.4401 326.714 30.5253C326.714 23.6106 332.303 18.0215 339.218 18.0215H492.56C499.475 18.0215 505.064 23.6106 505.064 30.5253C505.064 37.4042 499.475 43.0292 492.56 43.0292Z" fill="#71ACAB"/>
<path d="M300.738 18.0205L305.969 43.0282H318.974L313.743 18.0205H300.738Z" fill="#EDB248"/>
<path d="M217.438 30.5244C217.438 37.4392 223.027 43.0283 229.942 43.0283H232.987L227.792 18.1997C221.916 19.2029 217.438 24.3262 217.438 30.5244Z" fill="#EDB248"/>
<path d="M322.235 18.0205L327.466 43.0282H340.471L335.241 18.0205H322.235Z" fill="#EDB248"/>
<path d="M279.242 18.0205L284.473 43.0282H297.478L292.247 18.0205H279.242Z" fill="#EDB248"/>
<path d="M236.249 18.0205L241.48 43.0282H254.485L249.254 18.0205H236.249Z" fill="#EDB248"/>
<path d="M383.285 18.0205H365.228L370.459 43.0282H383.285C390.2 43.0282 395.789 37.4391 395.789 30.5244C395.789 23.6096 390.2 18.0205 383.285 18.0205Z" fill="#EDB248"/>
<path d="M257.745 18.0205L262.975 43.0282H275.981L270.75 18.0205H257.745Z" fill="#EDB248"/>
<path d="M343.731 18.0205L348.962 43.0282H361.967L356.736 18.0205H343.731Z" fill="#EDB248"/>
<path d="M229.943 18.0205C229.227 18.0205 228.51 18.0922 227.829 18.1996L233.024 43.0282H241.48L236.249 18.0205H229.943Z" fill="#1F6563"/>
<path d="M249.254 18.0205L254.484 43.0282H262.976L257.745 18.0205H249.254Z" fill="#1F6563"/>
<path d="M270.751 18.0205L275.982 43.0282H284.473L279.242 18.0205H270.751Z" fill="#1F6563"/>
<path d="M292.247 18.0205L297.478 43.0282H305.969L300.738 18.0205H292.247Z" fill="#1F6563"/>
<path d="M313.744 18.0205L318.975 43.0282H327.466L322.235 18.0205H313.744Z" fill="#1F6563"/>
<path d="M335.24 18.0205L340.471 43.0282H348.962L343.731 18.0205H335.24Z" fill="#1F6563"/>
<path d="M356.736 18.0205L361.966 43.0282H370.458L365.227 18.0205H356.736Z" fill="#1F6563"/>
<path d="M164.878 534.591L164.483 551.18L177.122 550.785L178.504 533.801L164.878 534.591Z" fill="#FCBB8C"/>
<path d="M169.815 548.218C169.815 548.218 176.134 546.836 177.912 546.836C179.689 546.836 190.748 560.265 194.698 561.055C201.808 562.635 201.413 573.694 197.068 574.089C184.626 575.274 163.495 569.35 163.495 569.35C163.495 569.35 161.915 555.13 162.903 550.786C163.89 546.441 166.457 549.403 169.815 548.218Z" fill="#1F6563"/>
<path d="M179.887 560.462C179.69 560.462 179.492 560.462 179.295 560.265C178.9 560.067 178.9 559.475 179.097 559.08C179.097 558.882 181.467 555.92 184.034 554.933C187.589 553.55 189.959 555.723 190.156 555.92C190.551 556.315 190.551 556.71 190.156 557.105C189.761 557.5 189.366 557.5 188.971 557.105C188.971 557.105 187.194 555.525 184.627 556.513C182.454 557.302 180.48 560.067 180.48 560.067C180.282 560.462 180.085 560.462 179.887 560.462Z" fill="white"/>
<path d="M177.518 557.895C177.32 557.895 177.123 557.895 176.925 557.697C176.53 557.5 176.53 556.907 176.728 556.512C176.728 556.315 179.098 553.353 181.665 552.365C185.22 550.983 187.59 553.155 187.787 553.353C188.182 553.748 188.182 554.143 187.787 554.538C187.392 554.933 186.997 554.933 186.602 554.538C186.602 554.538 184.825 552.958 182.258 553.945C180.085 554.735 178.11 557.5 178.11 557.5C177.913 557.697 177.715 557.895 177.518 557.895Z" fill="white"/>
<path d="M183.047 562.832C182.849 562.832 182.652 562.832 182.455 562.634C182.06 562.437 182.06 561.844 182.257 561.449C182.257 561.252 184.627 558.29 187.194 557.302C190.749 555.92 193.119 558.092 193.316 558.29C193.711 558.685 193.711 559.08 193.316 559.475C192.921 559.87 192.526 559.87 192.131 559.475C192.131 559.475 190.354 557.895 187.787 558.882C185.614 559.672 183.639 562.437 183.639 562.437C183.442 562.634 183.244 562.832 183.047 562.832Z" fill="white"/>
<path d="M211.089 338.684C211.089 338.684 210.892 342.436 210.497 348.755C210.299 350.335 210.299 352.31 210.102 354.285C208.522 375.219 205.559 413.136 202.202 440.192C197.462 477.912 182.256 540.121 182.256 540.121L166.062 539.726H164.482H160.73C160.73 539.726 163.1 500.426 166.26 466.458C168.234 443.549 169.222 390.425 169.617 356.852C169.814 339.473 169.814 327.427 169.814 327.427L211.089 338.684Z" fill="#3C3C48"/>
<path d="M211.089 338.683C211.089 338.683 210.892 342.436 210.497 348.755C210.299 350.335 210.299 352.31 210.102 354.285C202.597 355.667 182.059 356.852 169.617 357.05C169.814 339.671 169.814 327.624 169.814 327.624L211.089 338.683Z" fill="#1A100E"/>
<path d="M178.702 348.558C178.702 349.94 178.109 471.987 166.062 539.33H164.482C176.727 472.185 177.319 349.94 177.319 348.558H178.702Z" fill="#1A100E"/>
<path d="M261.251 536.765L260.856 551.379L247.624 550.786L247.229 535.382L261.251 536.765Z" fill="#FCBB8C"/>
<path d="M257.499 550.589C257.499 550.589 260.264 546.837 262.634 547.034C264.806 547.232 282.185 561.056 288.11 562.241C294.034 563.426 292.849 567.771 291.664 569.943C290.479 572.115 244.267 568.758 244.267 568.758C244.267 568.758 243.082 554.934 244.662 550.787C246.242 546.639 252.759 551.577 257.499 550.589Z" fill="#1F6563"/>
<path d="M266.977 560.266C266.78 560.266 266.583 560.266 266.385 560.266C265.99 560.069 265.793 559.476 265.99 559.081C265.99 558.884 267.965 555.724 270.335 554.539C273.495 552.959 276.062 554.736 276.259 554.934C276.654 555.131 276.654 555.724 276.457 556.119C276.259 556.514 275.667 556.514 275.272 556.316C275.272 556.316 273.495 554.934 271.125 556.119C269.15 557.106 267.57 559.871 267.372 559.871C267.372 560.069 267.175 560.266 266.977 560.266Z" fill="white"/>
<path d="M264.608 557.895C264.411 557.895 264.213 557.895 264.016 557.895C263.621 557.698 263.423 557.105 263.621 556.711C263.621 556.513 265.596 553.353 267.966 552.168C271.323 550.588 273.693 552.366 273.89 552.563C274.285 552.761 274.285 553.353 274.088 553.748C273.89 554.143 273.298 554.143 272.903 553.946C272.903 553.946 271.125 552.563 268.755 553.748C266.781 554.736 265.201 557.5 265.003 557.5C265.003 557.895 264.806 557.895 264.608 557.895Z" fill="white"/>
<path d="M270.335 562.24C270.138 562.24 269.94 562.24 269.743 562.24C269.348 562.043 269.15 561.45 269.348 561.055C269.348 560.858 271.323 557.698 273.693 556.513C277.05 554.933 279.42 556.711 279.617 556.908C280.012 557.105 280.012 557.698 279.815 558.093C279.617 558.488 279.025 558.488 278.63 558.29C278.63 558.29 276.852 556.908 274.482 558.093C272.508 559.08 270.928 561.845 270.73 561.845C270.73 562.043 270.533 562.24 270.335 562.24Z" fill="white"/>
<path d="M263.819 540.517L250.39 539.529H248.81L245.452 539.332C245.452 539.332 236.565 460.732 233.801 439.798C231.431 421.629 220.767 380.749 213.657 355.471C211.682 348.362 210.102 342.239 208.917 338.487C208.127 335.525 207.535 333.748 207.535 333.748L252.562 329.008C252.562 329.008 252.759 329.995 252.957 331.773C253.352 335.327 254.339 342.437 255.327 351.126C258.289 375.022 262.831 411.952 264.609 430.911C269.348 479.493 263.819 540.517 263.819 540.517Z" fill="#3C3C48"/>
<path d="M255.326 351.127L213.656 355.471C211.681 348.362 210.101 342.24 208.917 338.488L252.956 331.773C253.351 335.525 254.339 342.437 255.326 351.127Z" fill="#1A100E"/>
<path d="M250.192 539.726H248.612C247.625 515.435 244.86 454.609 239.725 428.936C233.406 396.548 218.989 349.349 218.792 348.954L220.372 348.559C220.569 348.954 234.986 396.35 241.305 428.738C246.44 454.412 249.402 515.435 250.192 539.726Z" fill="#1A100E"/>
<path d="M163.1 306.691C163.1 307.283 163.1 307.875 162.903 308.665C162.31 320.12 161.718 328.809 161.52 333.154C172.382 336.709 183.244 339.473 194.106 340.856C194.698 340.856 195.093 341.053 195.685 341.053C195.883 341.053 196.278 341.053 196.475 341.251C197.068 341.251 197.66 341.448 198.253 341.448C198.845 341.448 199.635 341.646 200.228 341.646C207.732 342.436 215.237 342.831 222.741 342.633C224.321 342.633 225.704 342.633 227.283 342.436C227.481 342.436 227.481 342.436 227.481 342.436C227.876 342.436 228.271 342.436 228.666 342.436C228.863 342.436 229.061 342.436 229.456 342.436C238.145 341.843 247.032 340.658 255.919 338.881C256.117 336.906 256.314 333.944 256.512 330.389C256.512 329.797 256.512 329.007 256.709 328.217C257.104 322.884 257.301 316.367 257.696 309.06C257.696 308.468 257.696 307.875 257.894 307.086C258.091 302.148 258.486 296.816 258.684 291.484C258.684 290.892 258.684 290.299 258.684 289.509C258.881 283.782 259.276 278.055 259.474 272.13C259.671 268.576 259.869 264.823 259.869 261.071C260.066 257.319 260.066 253.566 260.264 250.012C260.264 249.222 260.264 248.432 260.264 247.642C261.449 212.687 262.041 180.496 259.671 176.744C258.091 174.177 254.537 171.017 249.994 167.857C249.402 167.462 249.007 167.067 248.415 166.672C246.637 165.29 231.036 158.97 229.061 157.785L212.472 155.613C212.274 155.613 196.08 160.155 195.883 160.155C195.093 160.55 194.501 160.945 193.711 161.142C187.588 164.302 181.466 167.462 177.912 170.424C177.319 170.819 176.924 171.214 176.529 171.609C176.134 172.004 175.937 172.202 175.739 172.597C175.542 172.794 175.344 173.387 175.147 173.979C172.579 181.286 169.815 210.119 167.445 241.52C167.247 243.692 167.05 246.062 166.852 248.234C166.852 249.222 166.655 250.209 166.655 251.197C166.655 251.789 166.457 252.579 166.457 253.171C166.457 253.566 166.457 253.764 166.457 254.159C166.26 255.936 166.26 257.516 166.062 259.294C166.062 260.479 165.865 261.861 165.865 263.046C164.68 278.845 163.693 294.249 163.1 306.691Z" fill="#71ACAB"/>
<path d="M222.346 182.867C213.459 182.274 205.757 172.4 205.362 172.005C205.164 171.808 205.164 171.413 205.559 171.215C205.757 171.018 206.152 171.018 206.349 171.413C206.349 171.61 214.446 181.879 223.136 181.879C223.531 181.879 223.728 182.077 223.728 182.472C223.728 182.867 223.531 183.064 223.136 183.064C222.741 183.064 222.543 183.064 222.346 182.867Z" fill="#286361" fill-opacity="0.53"/>
<path d="M208.126 288.917C207.731 288.917 207.534 288.72 207.534 288.325C207.534 287.93 207.731 287.732 208.126 287.732C231.232 286.547 243.279 247.247 243.279 246.852C243.477 246.457 243.674 246.26 244.069 246.457C244.464 246.655 244.662 246.852 244.464 247.247C244.069 248.827 232.22 287.732 208.126 288.917Z" fill="#286361" fill-opacity="0.53"/>
<path d="M218.001 277.463C217.804 277.463 217.606 277.266 217.409 277.068C217.211 276.673 217.409 276.476 217.606 276.278C230.245 269.564 232.813 258.504 232.813 258.307C232.813 257.912 233.208 257.714 233.603 257.912C233.998 257.912 234.195 258.307 233.998 258.702C233.8 259.097 231.43 270.354 218.199 277.463C218.199 277.463 218.199 277.463 218.001 277.463Z" fill="#286361" fill-opacity="0.53"/>
<path d="M199.438 119.079C199.438 119.079 196.475 117.104 198.253 110.192C200.03 103.28 195.883 101.107 198.648 97.3549C201.413 93.6027 203.98 93.4052 205.955 88.6655C207.732 83.9258 218.199 80.5685 224.716 83.5308C231.036 86.2956 241.107 81.7534 244.465 86.8881C250.587 96.17 246.637 99.5273 249.007 101.502C252.167 104.464 250.587 123.621 244.465 124.213C238.343 125.003 199.438 119.079 199.438 119.079Z" fill="#3C3C48"/>
<path d="M242.884 122.238C242.884 122.238 247.032 117.3 249.796 121.843C252.364 126.385 247.624 138.826 240.515 135.272L242.884 122.238Z" fill="#FB927E"/>
<path d="M242.49 131.322C242.687 131.322 243.082 131.124 243.082 130.927C244.465 127.175 248.612 125.792 248.612 125.792C249.007 125.595 249.204 125.397 249.007 125.002C248.809 124.607 248.612 124.41 248.217 124.607C248.019 124.607 243.477 126.187 241.897 130.532C241.897 130.927 241.897 131.322 242.49 131.322Z" fill="#E6765D"/>
<path d="M246.637 129.544C246.834 129.544 246.834 129.544 247.032 129.544C247.229 129.346 247.427 128.951 247.229 128.754C247.229 128.754 246.637 127.569 245.057 126.779C244.859 126.582 244.464 126.779 244.267 126.977C244.069 127.174 244.267 127.569 244.464 127.767C245.649 128.359 246.044 129.149 246.044 129.346C246.242 129.544 246.439 129.544 246.637 129.544Z" fill="#E6765D"/>
<path d="M202.399 119.868C202.399 119.868 198.845 114.338 195.685 118.486C192.525 122.633 195.882 135.667 203.189 132.902L202.399 119.868Z" fill="#FB927E"/>
<path d="M201.807 128.953C201.609 128.953 201.214 128.755 201.214 128.558C200.424 124.608 196.277 122.633 196.277 122.633C195.882 122.436 195.882 122.041 195.882 121.843C196.079 121.448 196.474 121.448 196.672 121.448C196.869 121.448 201.214 123.621 202.202 128.163C202.597 128.558 202.399 128.755 201.807 128.953C202.004 128.953 202.004 128.953 201.807 128.953Z" fill="#E6765D"/>
<path d="M197.857 126.78C197.659 126.78 197.659 126.78 197.462 126.583C197.264 126.385 197.067 125.99 197.264 125.793C197.264 125.793 198.054 124.608 199.634 124.015C200.029 123.818 200.227 124.015 200.424 124.41C200.622 124.805 200.424 125.003 200.029 125.2C198.844 125.595 198.252 126.385 198.252 126.385C198.252 126.583 198.054 126.78 197.857 126.78Z" fill="#E6765D"/>
<path d="M211.682 144.357L210.892 156.996C210.892 156.996 214.249 163.711 219.384 164.501C224.518 165.291 229.456 159.563 229.456 159.563L230.245 146.332L211.682 144.357Z" fill="#FCBB8C"/>
<path d="M211.682 144.357L211.287 150.084C214.446 154.034 220.568 155.416 229.653 154.626L230.048 146.529L211.682 144.357Z" fill="#FB927E"/>
<path d="M200.227 110.981C200.227 115.919 200.227 122.238 200.82 127.175C201.017 128.36 201.215 129.545 201.412 130.533C201.61 131.125 201.61 131.718 201.807 132.507C204.177 142.184 210.497 156.206 228.271 151.071C235.775 148.899 240.12 141.394 242.687 133.297C242.885 132.902 242.885 132.31 243.082 131.915C243.082 131.52 243.28 131.323 243.28 130.928L243.477 130.533V130.335C245.057 124.016 245.649 117.696 245.847 112.956C246.044 108.217 243.675 103.872 239.725 101.304C229.061 94.1949 217.211 95.9723 209.509 98.3422C203.98 100.12 200.227 105.254 200.227 110.981Z" fill="#FCBB8C"/>
<path d="M212.669 120.855C212.669 122.238 213.262 123.423 214.052 123.423C214.842 123.423 215.632 122.435 215.829 121.053C215.829 119.67 215.237 118.485 214.447 118.485C213.459 118.485 212.669 119.473 212.669 120.855Z" fill="#3C3C48"/>
<path d="M231.627 122.041C231.627 123.423 232.22 124.608 233.01 124.608C233.8 124.608 234.59 123.621 234.787 122.238C234.787 120.856 234.195 119.671 233.405 119.671C232.417 119.671 231.627 120.658 231.627 122.041Z" fill="#3C3C48"/>
<path d="M208.127 112.956C208.127 112.956 214.447 109.994 219.581 111.969L219.186 114.734C219.186 114.734 211.879 114.536 208.325 116.116C207.732 115.129 207.732 113.944 208.127 112.956Z" fill="#3C3C48"/>
<path d="M238.935 114.537C238.935 114.537 232.813 111.179 227.48 112.759L227.678 115.524C227.678 115.524 234.985 115.721 238.54 117.696C239.132 116.709 239.33 115.721 238.935 114.537Z" fill="#3C3C48"/>
<path d="M221.951 132.508C220.964 132.508 219.976 131.915 219.779 131.915C219.384 131.718 219.384 131.323 219.581 131.125C219.779 130.73 220.174 130.73 220.371 130.928C220.964 131.125 222.148 131.52 222.741 131.323C222.938 131.323 222.938 131.125 223.136 130.73C223.531 128.558 223.333 121.448 223.333 121.448C223.333 121.053 223.531 120.856 223.926 120.856C224.321 120.856 224.518 121.053 224.518 121.448C224.518 121.843 224.716 128.755 224.321 130.928C224.123 131.718 223.728 132.113 223.333 132.31C222.938 132.508 222.346 132.508 221.951 132.508Z" fill="#FB927E"/>
<path d="M229.258 137.445C228.666 139.815 226.888 143.962 221.754 143.567C216.619 143.172 215.434 139.223 215.039 136.655L229.258 137.445Z" fill="white"/>
<path d="M200.227 110.982C200.227 115.919 200.227 122.238 200.82 127.176H203.585C203.585 127.176 203.19 123.028 202.992 120.263C202.795 117.499 202.597 112.364 204.967 111.969C207.337 111.574 206.35 105.649 209.707 103.28C213.064 100.712 220.371 100.515 224.913 103.675C229.456 106.834 234.985 104.07 237.158 104.662C239.33 105.254 242.095 108.414 241.107 111.179C240.12 113.944 242.49 115.721 242.885 118.684C243.28 121.646 240.91 129.348 240.91 129.348L243.477 129.94C245.057 123.621 245.649 117.301 245.847 112.561C246.044 107.822 243.675 103.477 239.725 100.91C229.061 94.1952 217.211 95.9726 209.509 98.3424C203.98 100.12 200.227 105.254 200.227 110.982Z" fill="#3C3C48"/>
<path d="M288.175 298.486L291.772 300.02C294.855 301.303 297.91 300.766 300.433 298.84C301.441 297.979 303.205 296.472 304.22 296.066C306.754 294.822 312.605 293.509 314.404 294.276C316.199 294.816 314.452 297.461 312.93 298.07C311.152 298.668 308.612 299.456 306.844 300.736C305.077 302.016 312.589 309.191 315.945 311.623C319.301 314.055 326.72 315.089 325.998 318.009C325.277 320.93 320.403 319.334 320.403 319.334C320.403 319.334 320.703 322.303 315.601 322.516C315.601 322.516 315.132 325.221 312.07 325.303C312.07 325.303 311.097 328.438 307.513 327.814C304.189 327.428 293.442 325.782 279.387 308.069L288.175 298.486Z" fill="#FCBB8C"/>
<path d="M288.452 296.428C288.452 296.428 223.469 273.163 202.731 259.114C202.731 259.114 198.604 237.242 196.165 219.416C194.226 207.988 191.288 196.779 186.852 185.898C184.29 179.72 181.603 174.034 178.791 170.698C178.791 170.698 166.176 177.645 170.244 219.748C172.31 242.769 175.999 260.321 178.124 269.616C179.187 274.264 182.185 278.255 186.433 281.043C200.051 289.681 238.673 310.089 279.147 312.379C286.305 314.638 287.953 302.115 288.452 296.428Z" fill="#1F6563"/>
<path d="M321.743 153.617C321.743 153.617 322.722 158.295 324.607 159.57C326.366 160.845 326.031 154.404 326.031 154.404C326.031 154.404 326.482 162.234 328.375 162.373C330.267 162.639 329.94 155.061 329.94 155.061C329.94 155.061 331.041 160.245 332.553 160.634C333.94 160.896 333.978 155.341 333.978 155.341C333.978 155.341 335.339 159.391 336.347 159.776C337.354 160.162 338.017 155.495 337.402 153.092C336.914 150.69 333.873 152.184 333.873 152.184C333.873 152.184 331.102 151.282 330.085 152.285C330.085 152.285 327.568 151.132 326.174 151.88C326.175 151.753 322.143 150.59 321.743 153.617Z" fill="#FCBB8C"/>
</g>
<defs>
<clipPath id="clip0_1870_7302">
<rect width="982" height="574.246" fill="white"/>
</clipPath>
</defs>
</svg>
